<svg width="24" height="25" viewBox="0 0 24 25" fill="none" xmlns="http://www.w3.org/2000/svg">
<g clip-path="url(#clip0_244_1049)">
<path d="M11.9999 21.3691C16.9705 21.3691 20.9999 17.3397 20.9999 12.3691C20.9999 7.39858 16.9705 3.36914 11.9999 3.36914C7.02938 3.36914 2.99994 7.39858 2.99994 12.3691C2.99994 17.3397 7.02938 21.3691 11.9999 21.3691Z" stroke="white" stroke-width="1.5" stroke-linecap="round" stroke-linejoin="round"/>
<path d="M15 14.6197C14.5277 15.2492 13.8693 15.7142 13.118 15.9487C12.3668 16.1833 11.5608 16.1755 10.8142 15.9266C10.0676 15.6777 9.41831 15.2001 8.95817 14.5617C8.49804 13.9232 8.25043 13.1562 8.25043 12.3692C8.25042 11.5822 8.49802 10.8151 8.95814 10.1767C9.41827 9.53818 10.0676 9.06066 10.8142 8.81171C11.5608 8.56276 12.3668 8.555 13.118 8.78954C13.8692 9.02408 14.5276 9.48902 15 10.1185" stroke="white" stroke-width="1.5" stroke-linecap="round" stroke-linejoin="round"/>
</g>
<defs>
<clipPath id="clip0_244_1049">
<rect width="24" height="24" fill="white" transform="translate(0 0.369141)"/>
</clipPath>
</defs>
</svg>
