<svg width="60" height="60" viewBox="0 0 60 60" fill="none" xmlns="http://www.w3.org/2000/svg">
<g clip-path="url(#clip0_1412_3542)">
<rect width="60" height="60" fill="white"/>
<g clip-path="url(#clip1_1412_3542)">
<path d="M34.4175 27.8337C35.7863 28.9947 35.9602 29.1561 36.5626 29.6748C37.0039 29.2963 37.3826 28.9519 38.9878 27.6058C41.9339 25.132 44.0626 23.3458 44.0626 20.7073C44.0626 18.206 42.2251 16.2468 39.8795 16.2468C38.3039 16.2468 37.2584 17.1358 36.6019 18.0413C35.9803 17.1331 34.9696 16.2468 33.3894 16.2468C31.0438 16.2468 29.2073 18.2061 29.2073 20.7073C29.2072 23.4126 31.28 25.1713 34.4175 27.8337ZM19.3626 43.2468C21.8188 41.5781 24.5064 40.9405 27.4314 41.428L32.1189 42.2343C33.9189 42.5343 35.5688 42.4405 36.9938 41.9718C39.9418 40.9893 42.893 37.895 43.6751 36.7218C44.7627 35.0905 45.3601 33.3093 45.7352 32.4468C46.0914 31.6218 46.0914 31.0406 45.7164 30.7031C45.2851 30.3093 44.5539 30.5155 44.0101 30.8156C43.1477 31.3031 42.2314 32.7093 41.2939 34.0593C40.0752 35.8218 37.9877 36.8718 35.8501 36.8718H29.0626V34.9968H31.8751C36.8625 34.9968 39.0938 34.0593 39.0938 33.1218C39.0938 32.3343 37.5376 31.978 37.0125 31.8656C34.9688 31.3968 30.3563 31.1718 27.2063 29.7656C26.6383 29.517 25.9943 29.3775 25.3127 29.3718C24.2441 29.3627 23.0827 29.6956 21.975 30.553C21.9564 30.553 21.9564 30.553 21.9376 30.5718C21.2063 31.1343 20.2063 31.9593 18.8563 33.1405C17.7125 34.153 16.6063 35.4467 14.675 37.0968L14 37.678L18.6126 43.7531L19.3626 43.2468Z" fill="#A15236"/>
</g>
</g>
<defs>
<clipPath id="clip0_1412_3542">
<rect width="60" height="60" rx="30" fill="white"/>
</clipPath>
<clipPath id="clip1_1412_3542">
<rect width="32" height="32" fill="white" transform="translate(14 14)"/>
</clipPath>
</defs>
</svg>
