<svg width="13" height="6" viewBox="0 0 13 6" fill="none" xmlns="http://www.w3.org/2000/svg">
<g id="Icon">
<path id="Vector" d="M12.2448 0.0394885C12.1463 0.0393564 12.0487 0.058729 11.9578 0.0964884C11.8668 0.134248 11.7842 0.189647 11.7148 0.259489L7.87828 4.09549C7.7622 4.2116 7.62439 4.3037 7.47271 4.36654C7.32103 4.42938 7.15846 4.46172 6.99428 4.46172C6.8301 4.46172 6.66752 4.42938 6.51585 4.36654C6.36417 4.3037 6.22635 4.2116 6.11028 4.09549L2.27978 0.264488C2.21059 0.192856 2.12783 0.135719 2.03633 0.0964124C1.94483 0.0571056 1.84641 0.0364161 1.74683 0.0355508C1.64724 0.0346854 1.54848 0.0536615 1.45631 0.0913722C1.36414 0.129083 1.2804 0.184773 1.20998 0.255192C1.13956 0.325612 1.08387 0.409351 1.04616 0.501523C1.00845 0.593695 0.989474 0.692455 0.990339 0.792039C0.991204 0.891624 1.01189 0.990039 1.0512 1.08154C1.09051 1.17304 1.14764 1.2558 1.21928 1.32499L5.04978 5.15599C5.56582 5.67107 6.26516 5.96037 6.99428 5.96037C7.7234 5.96037 8.42273 5.67107 8.93878 5.15599L12.7753 1.31999C12.8802 1.2151 12.9517 1.08143 12.9807 0.9359C13.0097 0.790369 12.9948 0.639516 12.938 0.50243C12.8812 0.365343 12.785 0.248184 12.6616 0.165778C12.5382 0.0833714 12.3932 0.0394212 12.2448 0.0394885Z" fill="#06152D"/>
</g>
</svg>
