<svg width="120" height="115" viewBox="0 0 120 115" fill="none" xmlns="http://www.w3.org/2000/svg">
<path d="M8.44098 80.1406H0.238281C1.74758 99.8271 28.0127 114.871 60.118 114.871H60.1016C69.0476 114.884 77.9488 113.607 86.5307 111.081C89.896 110.095 93.1856 108.867 96.3739 107.406C101.138 105.239 105.559 102.387 109.498 98.9412C115.568 93.511 119.341 87.0309 119.866 79.9601L49.6678 80.0421L8.44098 80.1406Z" fill="#FFA000"/>
<path d="M112.404 69.5755C103.086 62.0618 84.3511 56.8285 62.5483 56.4511H60.0547C35.0036 56.4511 13.611 62.8656 5.21139 71.8886C3.24274 73.9721 1.37255 76.3017 1.15928 78.582C1.09888 79.1919 1.17163 79.8077 1.37253 80.3867C1.68138 81.2367 2.06 82.0598 2.50451 82.8475C2.85409 83.4695 3.23745 84.0719 3.65288 84.6521C10.3955 94.2 27.8673 102.698 52.459 104.092C54.9198 104.24 57.3806 104.322 60.0547 104.322C91.1101 104.322 112.158 95.0039 118.048 82.0764C118.301 81.5421 118.526 80.9944 118.72 80.4359C120 76.6298 116.456 72.8073 112.404 69.5755Z" fill="#BF360C"/>
<path d="M62.5491 56.4675H60.0555C35.0045 56.4675 13.6118 62.882 5.21227 71.905C3.24362 73.9885 1.37343 76.3181 1.16016 78.5984C1.18135 78.9313 1.2363 79.261 1.3242 79.5827C1.6277 80.7068 2.02275 81.8042 2.50539 82.8638C2.68585 83.2411 2.8663 83.6185 3.06316 83.9958C8.75584 94.8562 24.3902 104.339 46.3078 104.339C48.4241 104.339 50.4748 104.339 52.4598 104.109C72.901 102.6 86.6651 93.5274 90.7829 81.3381C90.9797 80.7639 91.1602 80.1733 91.3078 79.5827C92.2757 75.7767 89.5688 71.7573 86.3862 68.4106C81.4318 62.9476 72.9502 58.6822 62.5491 56.4675Z" fill="#C74E0C"/>
<path d="M61.8589 66.3928C53.364 66.3676 44.8848 67.1255 36.529 68.6568C22.5844 71.2816 11.5764 76.0064 6.08054 81.7811C5.21027 82.657 4.40431 83.5946 3.66895 84.5864C11.0842 95.0859 31.5581 104.273 60.0707 104.273C71.5962 104.476 83.0839 102.899 94.1283 99.5974C106.4 95.6273 114.684 89.4424 118.047 82.06C117.123 81.1632 116.148 80.3197 115.127 79.5335C105.284 71.7081 85.1218 66.3928 61.8589 66.3928Z" fill="#FF6F00"/>
<path d="M62.336 71.823C40.0903 71.823 21.1093 77.4172 13.6448 85.2919C12.8868 86.0608 12.185 86.8832 11.5449 87.7527C18.0251 96.9069 35.8249 104.913 60.7611 104.913C87.8628 104.913 106.221 96.7921 111.372 85.5051C110.562 84.7243 109.714 83.9851 108.829 83.2904C100.233 76.4985 82.6295 71.823 62.336 71.823Z" fill="#EA5206"/>
<path d="M62.1723 77.2532C43.9951 77.2532 28.4592 81.8303 22.3564 88.2612C21.7737 88.9039 21.2261 89.5775 20.7158 90.2791C26.0148 97.76 40.5663 104.306 60.9582 104.306C83.1055 104.306 98.1165 97.6616 102.333 88.4417C101.672 87.8022 100.976 87.1998 100.249 86.6371C93.1621 81.0757 78.7745 77.2532 62.1723 77.2532Z" fill="#FF8F00"/>
<g style="mix-blend-mode:overlay">
<path d="M61.8592 66.3928C53.3643 66.3677 44.8851 67.1255 36.5293 68.6568C51.9832 69.7396 86.0408 74.1526 94.1286 99.5974C106.4 95.6273 114.685 89.4425 118.048 82.06C117.123 81.1632 116.148 80.3197 115.128 79.5336C105.284 71.7082 85.1221 66.3928 61.8592 66.3928Z" fill="#616161"/>
</g>
<path d="M62.5822 78.0898C63.5829 75.6618 64.2227 73.0862 62.6642 70.7894C61.7291 69.3293 58.7269 70.3629 59.6621 71.8065C61.6799 74.9072 58.0215 78.7953 57.6277 82.6013C57.0207 87.523 61.6471 91.7228 63.3861 91.7228C63.8154 91.7287 64.2353 91.5964 64.5837 91.3454C64.719 91.2556 64.83 91.1337 64.9068 90.9906C64.9837 90.8475 65.0239 90.6876 65.0239 90.5251C65.0239 90.3627 64.9837 90.2028 64.9068 90.0597C64.83 89.9166 64.719 89.7947 64.5837 89.7049C58.4645 85.5543 61.5979 80.485 62.5822 78.0898Z" fill="#5D4037"/>
<path d="M60.2519 80.846C57.2574 84.0882 53.5898 86.6359 49.5063 88.3104C29.098 96.7592 1.93066 83.881 1.93066 83.881C10.1334 114.494 51.2781 111.934 61.2198 112.541C65.4852 112.279 75.0167 112.541 85.1717 110.655C88.9765 109.946 92.7061 108.88 96.311 107.472C101.208 105.557 105.671 102.679 109.435 99.0068C113.557 94.8139 116.5 89.6077 117.966 83.9138C117.966 83.9138 86.3529 102.37 60.2519 80.846Z" fill="#FFA000"/>
<path d="M112.782 87.9003C112.674 88.02 112.546 88.12 112.404 88.1956L112.191 88.2777C111.283 88.8416 110.275 89.2259 109.222 89.4096C99.8215 92.6907 89.0431 92.904 79.3476 91.8048C74.9537 91.4424 70.6952 90.1088 66.8794 87.9003C64.4702 86.65 62.3298 84.9388 60.5798 82.8638C59.2673 83.9138 57.9221 84.9145 56.6096 85.8989C54.8271 87.3912 52.8236 88.5976 50.6709 89.4752C59.5596 97.9109 69.9628 104.59 81.3326 109.162C86.8284 109.72 92.7344 107.685 97.6396 105.438C103.482 102.728 108.88 99.1492 113.651 94.8234C117.072 90.8597 119.246 85.9746 119.902 80.7804C118.86 82.3066 117.661 83.7197 116.325 84.9966C115.226 86.06 114.041 87.0312 112.782 87.9003Z" fill="#FFAA2E"/>
<path d="M12.7413 89.7541L0.174805 80.1898C1.6841 99.8763 27.9492 114.92 60.0545 114.92H60.1037C42.0588 111.732 25.4825 102.924 12.7413 89.7541Z" fill="#E2890A"/>
<path d="M118.031 71.7902C116.776 69.923 115.237 68.2626 113.471 66.8685C110.039 64.18 106.209 62.0434 102.118 60.5361C98.1273 59.0044 94.0249 57.7813 89.8469 56.8776C85.7002 55.9937 81.5115 55.3202 77.2967 54.8598C73.0806 54.3676 68.8644 54.0887 64.6318 53.9739C60.3992 53.859 56.183 53.9739 51.9504 54.1051C47.7178 54.2363 43.5016 54.7285 39.3018 55.2863C35.0909 55.8501 30.9167 56.6609 26.8009 57.7143C22.6414 58.7601 18.5839 60.1766 14.6773 61.9469C12.7012 62.8441 10.8026 63.9031 9.00105 65.1132C7.139 66.3357 5.43616 67.785 3.93177 69.4278C2.32977 71.1315 1.13995 73.1801 0.453828 75.4158C0.106213 76.5914 -0.0434847 77.8167 0.0108756 79.0414C0.122731 80.3492 0.575233 81.6049 1.32331 82.6834C2.70693 84.5714 4.51691 86.106 6.60585 87.1621C8.5339 88.2094 10.5619 89.0612 12.6595 89.7049C16.7719 90.9549 21.0071 91.7579 25.2916 92.1001C29.5563 92.4093 33.8406 92.3159 38.0878 91.8212C42.3444 91.3901 46.5132 90.3286 50.4575 88.6714C52.4202 87.8338 54.2761 86.7654 55.9861 85.4887C57.6824 84.208 59.119 82.6156 60.2187 80.7968C58.9964 82.4986 57.4662 83.9564 55.7072 85.095C53.967 86.2373 52.0939 87.1628 50.1294 87.8511C46.1903 89.1858 42.0914 89.9913 37.9402 90.2463C33.794 90.5309 29.6302 90.4211 25.5049 89.9182C21.4027 89.4714 17.3602 88.5859 13.4469 87.2769C11.5365 86.6308 9.69545 85.7954 7.95111 84.7833C6.28866 83.8948 4.85627 82.631 3.76773 81.0921C3.32384 80.4218 3.06361 79.6468 3.01307 78.8445V78.2047C3.00166 78.0901 3.00166 77.9748 3.01307 77.8602V77.5485C3.07454 77.1049 3.16774 76.6663 3.29196 76.2361C3.86405 74.4551 4.83471 72.828 6.13011 71.4785C8.95923 68.6376 12.2986 66.3557 15.9733 64.7523C19.7001 63.0338 23.5701 61.645 27.5391 60.6017C35.5472 58.4733 43.7566 57.192 52.0324 56.7792C56.1665 56.5495 60.35 56.5003 64.4841 56.6316C68.6183 56.7628 72.7689 57.0745 76.8866 57.5667C80.9962 58.0783 85.0759 58.8066 89.1086 59.7486C93.1172 60.6786 97.0537 61.8958 100.888 63.3906C104.667 64.8264 108.219 66.7989 111.436 69.2473C112.963 70.4424 114.292 71.8708 115.374 73.4799C116.394 74.9903 116.963 76.7601 117.014 78.582V79.025C117.026 79.09 117.026 79.1568 117.014 79.2218V79.3859C117.014 79.4843 117.014 79.6156 117.014 79.7468C116.986 79.8754 116.947 80.0015 116.899 80.1242C116.74 80.6519 116.496 81.1504 116.178 81.6006C115.478 82.595 114.613 83.4609 113.618 84.1599C111.473 85.6599 109.111 86.8219 106.613 87.605C104.059 88.4327 101.442 89.0526 98.7878 89.4589C96.1197 89.8587 93.4297 90.0943 90.7328 90.1643C85.2975 90.339 79.8656 89.7257 74.6062 88.3433C71.9696 87.6642 69.4125 86.7073 66.9777 85.4887C64.5261 84.2573 62.266 82.6769 60.2679 80.7968C61.191 81.8267 62.195 82.7813 63.2701 83.6513C64.3559 84.5109 65.4957 85.3 66.6824 86.0137C69.0878 87.4229 71.6334 88.5775 74.2782 89.4589C76.9296 90.3179 79.645 90.9652 82.3988 91.3947C85.1569 91.8291 87.9413 92.0758 90.7328 92.1329C93.5281 92.2096 96.3251 92.0725 99.0995 91.7228C101.875 91.4092 104.619 90.8604 107.302 90.0823C110.09 89.2942 112.74 88.0825 115.16 86.4895C116.43 85.6336 117.541 84.562 118.441 83.3232C118.923 82.6584 119.31 81.9295 119.59 81.1577C119.59 80.9608 119.721 80.764 119.77 80.5507C119.82 80.3374 119.885 80.1406 119.918 79.9109C119.958 79.6883 119.985 79.4638 120 79.2382V78.7297C119.996 77.5216 119.808 76.3211 119.442 75.1697C119.109 73.9908 118.635 72.8562 118.031 71.7902Z" fill="#FFDC8D"/>
<path d="M66.4687 0C66.4687 0 64.172 4.60995 56.8059 19.3256C34.7079 56.5988 60.087 75.465 60.087 75.465L61.9244 76.4001C68.8311 64.9163 80.3313 46.8703 72.0466 33.5984C63.7618 20.3264 66.4687 0 66.4687 0Z" fill="#FDD835"/>
<path d="M63.3849 12.3697L59.2507 20.5724V20.6544C48.4724 38.8317 46.6514 62.1274 61.3014 75.3338C67.7815 64.5554 76.5748 46.0172 69.701 34.9764C65.2879 28.0205 63.7786 19.3584 63.3849 12.3697Z" fill="#FFB300"/>
<path d="M61.4007 24.1324C53.4441 38.2411 51.2786 59.9619 61.0234 72.5941C64.9279 65.8679 68.8816 56.1066 68.5207 48.1992C68.1433 39.734 63.3858 32.3351 61.4007 24.1324Z" fill="#FF8F00"/>
<path d="M59.6619 71.8066C60.9251 73.7588 59.99 76.0228 58.9893 78.3687C60.2095 78.0218 61.4635 77.8073 62.7297 77.729C63.2998 76.6613 63.5981 75.4695 63.5981 74.2592C63.5981 73.0488 63.2998 71.8571 62.7297 70.7894C61.7454 69.3294 58.7268 70.3629 59.6619 71.8066Z" fill="#5D4037"/>
<path d="M60.8258 89.6065C58.7363 89.6065 56.6936 90.2261 54.9562 91.387C53.2188 92.5479 51.8646 94.198 51.0649 96.1285C50.2653 98.059 50.0561 100.183 50.4638 102.233C50.8714 104.282 51.8776 106.165 53.3552 107.642C54.8327 109.12 56.7153 110.126 58.7647 110.534C60.8141 110.941 62.9384 110.732 64.8689 109.932C66.7994 109.133 68.4495 107.779 69.6104 106.041C70.7713 104.304 71.3909 102.261 71.3909 100.172C71.3866 97.3709 70.2721 94.6861 68.2917 92.7057C66.3113 90.7253 63.6265 89.6108 60.8258 89.6065ZM60.8258 108.998C59.0762 108.998 57.366 108.479 55.9115 107.506C54.457 106.534 53.3237 105.152 52.6549 103.535C51.9861 101.919 51.8119 100.14 52.1544 98.4241C52.4969 96.7083 53.3407 95.1327 54.579 93.8967C55.8173 92.6608 57.3944 91.8199 59.1108 91.4805C60.8271 91.1412 62.6056 91.3187 64.2211 91.9905C65.8366 92.6622 67.2164 93.7982 68.1861 95.2545C69.1557 96.7108 69.6716 98.422 69.6683 100.172C69.664 102.514 68.7304 104.759 67.0726 106.414C65.4148 108.068 63.1682 108.998 60.8258 108.998Z" fill="#BF360C"/>
<path d="M60.827 92.7235C59.3539 92.7235 57.9139 93.1603 56.6891 93.9787C55.4642 94.7971 54.5096 95.9603 53.9458 97.3213C53.3821 98.6822 53.2346 100.18 53.522 101.625C53.8094 103.069 54.5188 104.397 55.5604 105.438C56.602 106.48 57.9291 107.189 59.3739 107.477C60.8187 107.764 62.3162 107.616 63.6772 107.053C65.0381 106.489 66.2014 105.534 67.0198 104.309C67.8382 103.085 68.275 101.645 68.275 100.172C68.275 99.1935 68.0823 98.2249 67.708 97.3213C67.3337 96.4176 66.7851 95.5966 66.0935 94.905C65.4019 94.2134 64.5808 93.6647 63.6772 93.2904C62.7735 92.9161 61.8051 92.7235 60.827 92.7235ZM60.827 105.848C59.6939 105.848 58.5863 105.512 57.6444 104.882C56.7025 104.252 55.9686 103.357 55.5358 102.31C55.1029 101.262 54.9905 100.11 55.2127 98.9993C55.435 97.8882 55.9819 96.8681 56.7843 96.068C57.5867 95.2679 58.6084 94.7239 59.7201 94.5049C60.8318 94.2858 61.9835 94.4015 63.0294 94.8374C64.0753 95.2733 64.9684 96.0096 65.5955 96.9534C66.2227 97.8971 66.5557 99.0056 66.5524 100.139C66.5568 100.893 66.4118 101.64 66.1258 102.337C65.8398 103.035 65.4185 103.669 64.8862 104.203C64.3538 104.737 63.7211 105.16 63.0244 105.448C62.3277 105.736 61.5808 105.883 60.827 105.881V105.848Z" fill="#BF360C"/>
<path d="M60.8263 104.322C63.1186 104.322 64.9769 102.464 64.9769 100.172C64.9769 97.8793 63.1186 96.021 60.8263 96.021C58.5341 96.021 56.6758 97.8793 56.6758 100.172C56.6758 102.464 58.5341 104.322 60.8263 104.322Z" fill="#BF360C"/>
</svg>
