<svg width="160" height="51" viewBox="0 0 160 51" fill="none" xmlns="http://www.w3.org/2000/svg">
<g clip-path="url(#clip0_244_960)">
<path d="M2.52893 5.04063C2.36565 6.6189 3.05427 8.33022 1.51927 9.49069C-0.0154775 10.6512 0.852533 13.8474 1.51649 16.1928C1.67299 16.7457 1.66036 17.3335 1.48016 17.879L0.878893 19.6995C0.588332 20.5793 0.815234 21.5492 1.46494 22.205C2.18214 22.9289 2.48974 24.9712 2.19324 25.9502C1.68474 27.6291 0.748104 29.1796 0.878893 31.6016C1.55827 35.1193 2.26736 34.5679 1.60865 37.8586C1.40665 38.8678 2.75531 40.4824 2.08114 43.1063C1.40701 45.7301 2.88206 47.1301 3.6272 47.9503C4.54385 48.9595 6.65472 49.913 8.06756 49.3632C9.48041 48.813 10.2417 51.4356 12.4619 50.7558C14.194 50.5609 15.5663 50.1297 16.9483 50.1705C18.0192 50.202 19.0959 50.6755 20.3502 50.7558C21.584 50.8345 23.6585 50.7171 25.1905 49.7894C26.6477 48.907 28.2031 48.7577 29.1424 48.813C29.8375 48.8537 30.4131 49.3615 30.9666 49.7337C31.8474 50.3263 32.9781 50.3614 33.9481 49.934C35.4631 49.2667 37.4281 48.6208 38.7102 48.8796C39.9325 49.1266 40.875 49.934 41.8871 49.934C42.8991 49.934 43.1013 49.6013 44.1133 49.1928C44.8528 48.8941 46.2814 49.2086 47.2555 48.3592C47.3208 48.3023 47.3697 48.2305 47.425 48.1643C47.8731 47.6286 49.7388 46.4471 49.7388 45.2066C49.7388 43.8761 49.2419 43.1063 49.2419 42.0971C49.2419 41.0879 50.0493 40.0788 49.7388 38.6094C49.1087 36.7013 47.9126 33.2242 49.5257 31.5961C50.9676 30.1407 51.3281 27.6542 50.8776 26.593C50.5518 25.9356 50.1437 25.2804 49.9128 24.5813L49.4454 23.166C49.2084 22.448 49.2633 21.6644 49.5988 20.9875L50.291 19.5897C50.6632 18.839 50.6887 17.9611 50.3609 17.1896C50.1042 16.5849 49.3852 15.5817 49.7663 14.9086C49.7937 14.8595 49.8236 14.8106 49.8454 14.7585C50.9728 12.0578 49.8753 9.00976 49.1725 7.82769C48.5654 6.80641 49.9362 5.16565 49.1725 3.14286C48.6077 1.64674 44.9061 2.19646 43.6656 2.33552C42.3618 2.48177 41.5246 1.689 40.6813 0.837988C39.7876 -0.0640124 38.4006 -0.236379 37.3167 0.419907C35.1219 1.74903 33.253 1.19532 30.9585 0.425841C26.4346 -1.09135 25.4028 1.93318 22.5997 1.93318C21.1869 1.93318 19.5722 0.0986664 17.7557 0.837988C15.9392 1.57731 16.1775 1.57731 12.4619 0.554571C11.6731 0.337438 10.8284 0.474201 10.1912 0.99114C8.68857 2.2103 7.63927 1.41746 5.05389 1.57731C4.20703 1.62967 2.61802 2.53736 2.52893 5.04063Z" fill="white"/>
<path d="M26.999 26.3601C27.768 25.5912 27.768 24.3444 26.999 23.5754C26.23 22.8064 24.9833 22.8064 24.2143 23.5754C23.4453 24.3444 23.4453 25.5912 24.2143 26.3601C24.9833 27.1291 26.23 27.1291 26.999 26.3601Z" stroke="#A15236"/>
<path d="M20.6611 20.0259L23.9573 23.3222" stroke="#A15236"/>
<path d="M27.0849 26.4497L30.6392 30.0038" stroke="#A15236"/>
<path d="M30.5533 19.9404L27.2569 23.2367" stroke="#A15236"/>
<path d="M23.8754 26.6201L20.5792 29.9164" stroke="#A15236"/>
<path d="M20.5693 19.936V23.5793C20.5699 24.2727 22.1315 24.6196 21.7844 22.8847" stroke="#A15236" stroke-linecap="round"/>
<path d="M20.5706 19.9355H24.2136C24.9071 19.9361 25.2543 21.4975 23.5193 21.1506" stroke="#A15236" stroke-linecap="round"/>
<path d="M30.5855 29.9524H26.942C26.2489 29.9518 25.9017 28.3904 27.6367 28.7373" stroke="#A15236" stroke-linecap="round"/>
<path d="M30.5868 29.9515V26.3083C30.5859 25.6149 29.0246 25.268 29.3717 27.0029" stroke="#A15236" stroke-linecap="round"/>
<path d="M30.5641 19.9229H26.921C26.2275 19.9234 25.8808 21.4849 27.6153 21.1379" stroke="#A15236" stroke-linecap="round"/>
<path d="M30.5654 19.9233V23.5666C30.565 24.26 29.0032 24.6069 29.3503 22.872" stroke="#A15236" stroke-linecap="round"/>
<path d="M20.5536 29.933V26.2897C20.5542 25.5964 22.1158 25.2494 21.7687 26.9843" stroke="#A15236" stroke-linecap="round"/>
<path d="M20.5548 29.9333H24.1979C24.8914 29.9328 25.2381 28.3713 23.5036 28.7183" stroke="#A15236" stroke-linecap="round"/>
<path d="M30.8342 33.9498L29.0431 32.159C28.8857 32.0014 28.6302 32.0014 28.4723 32.159L26.3305 34.301C26.173 34.4585 26.173 34.714 26.3305 34.8718L29.3931 37.9341C29.5506 38.0919 29.8065 38.0919 29.9639 37.9341L38.6162 29.2819C38.774 29.1243 38.774 28.8687 38.6162 28.711L35.5539 25.6485C35.3961 25.4909 35.1406 25.4909 34.9827 25.6485L32.8413 27.7903C32.6834 27.948 32.6834 28.2036 32.8413 28.3612L34.6319 30.152" stroke="#A15236" stroke-linecap="round"/>
<path d="M16.6198 19.7339L18.4106 21.5247C18.5682 21.6823 18.5682 21.9379 18.4106 22.0956L16.2688 24.2374C16.1111 24.3951 15.8555 24.3951 15.6979 24.2374L12.6354 21.1749C12.4777 21.0173 12.4777 20.7617 12.6354 20.604L21.2877 11.9517C21.4453 11.7941 21.7009 11.7941 21.8586 11.9517L24.9212 15.0142C25.0787 15.1719 25.0787 15.4274 24.9212 15.5851L22.7794 17.7269C22.6215 17.8846 22.366 17.8846 22.2086 17.7269L20.4176 15.9361" stroke="#A15236" stroke-linecap="round"/>
<path d="M16.6198 30.1505L18.4106 28.3598C18.5682 28.2021 18.5682 27.9465 18.4106 27.7889L16.2688 25.6471C16.1111 25.4894 15.8555 25.4894 15.6979 25.6471L12.6354 28.7095C12.4777 28.8672 12.4777 29.1228 12.6354 29.2805L21.2877 37.9327C21.4453 38.0905 21.7009 38.0905 21.8586 37.9327L24.9212 34.8704C25.0787 34.7126 25.0787 34.4571 24.9212 34.2992L22.7794 32.1575C22.6215 31.9999 22.366 31.9999 22.2086 32.1575L20.4176 33.9483" stroke="#A15236" stroke-linecap="round"/>
<path d="M30.8342 15.9347L29.0431 17.7255C28.8857 17.8831 28.6302 17.8831 28.4723 17.7255L26.3305 15.5836C26.173 15.426 26.173 15.1704 26.3305 15.0128L29.3931 11.9503C29.5506 11.7926 29.8065 11.7926 29.9639 11.9503L38.6162 20.6026C38.774 20.7602 38.774 21.0158 38.6162 21.1735L35.5539 24.236C35.3961 24.3936 35.1406 24.3936 34.9827 24.236L32.8413 22.0942C32.6834 21.9365 32.6834 21.6809 32.8413 21.5232L34.6319 19.7325" stroke="#A15236" stroke-linecap="round"/>
<path d="M14.7266 14.0415V16.2774" stroke="#A15236" stroke-linecap="round"/>
<path d="M14.7274 14.0415H16.9633" stroke="#A15236" stroke-linecap="round"/>
<path d="M12.2111 11.5264V18.7931" stroke="#A15236" stroke-linecap="round"/>
<path d="M12.212 11.5269H19.4788" stroke="#A15236" stroke-linecap="round"/>
<path d="M36.5271 35.8433H34.2912" stroke="#A15236" stroke-linecap="round"/>
<path d="M36.528 35.8429V33.6069" stroke="#A15236" stroke-linecap="round"/>
<path d="M39.0424 38.3574H31.7759" stroke="#A15236" stroke-linecap="round"/>
<path d="M39.0432 38.3585V31.0918" stroke="#A15236" stroke-linecap="round"/>
<path d="M36.5255 14.0386H34.2896" stroke="#A15236" stroke-linecap="round"/>
<path d="M36.5231 14.0356V16.2716" stroke="#A15236" stroke-linecap="round"/>
<path d="M39.0408 11.5239H31.7744" stroke="#A15236" stroke-linecap="round"/>
<path d="M39.0388 11.5229V18.7897" stroke="#A15236" stroke-linecap="round"/>
<path d="M14.725 35.8399V33.604" stroke="#A15236" stroke-linecap="round"/>
<path d="M14.7227 35.8364H16.9586" stroke="#A15236" stroke-linecap="round"/>
<path d="M12.2095 38.355V31.0884" stroke="#A15236" stroke-linecap="round"/>
<path d="M12.2073 38.3545H19.474" stroke="#A15236" stroke-linecap="round"/>
<path d="M30.659 19.9116L29.5461 20.0564L30.5141 21.0246L30.659 19.9116Z" fill="#A15236"/>
<path d="M20.5972 29.9718L20.7419 28.8589L21.7101 29.8271L20.5972 29.9718Z" fill="#A15236"/>
<path d="M30.6582 29.9748L30.5133 28.8618L29.5453 29.83L30.6582 29.9748Z" fill="#A15236"/>
<path d="M20.5964 19.9116L21.7093 20.0564L20.7411 21.0246L20.5964 19.9116Z" fill="#A15236"/>
<path d="M26.2089 11.4431C25.9025 11.9538 25.7181 12.391 25.641 12.5893C25.6268 12.6255 25.6672 12.6573 25.6999 12.6364C25.8323 12.5519 26.085 12.3973 26.4063 12.2336C26.8871 11.9887 28.3827 11.0478 27.9875 10.4549C27.5919 9.86203 26.6283 10.7444 26.2089 11.4431Z" fill="#A15236" stroke="#A15236" stroke-width="0.5" stroke-linecap="round"/>
<path d="M25.077 11.4494C25.3834 11.9601 25.5679 12.3973 25.6454 12.5957C25.6591 12.6319 25.6188 12.6637 25.5861 12.6427C25.4537 12.5583 25.201 12.4036 24.8796 12.24C24.3989 11.9951 22.9033 11.0542 23.2985 10.4613C23.6941 9.8684 24.658 10.7507 25.077 11.4494Z" fill="#A15236" stroke="#A15236" stroke-width="0.5" stroke-linecap="round"/>
<path d="M25.6058 8.87807C26.0193 8.87807 26.3545 9.21328 26.3545 9.62678C26.3545 10.0403 26.0193 10.3755 25.6058 10.3755C25.1923 10.3755 24.8571 10.0403 24.8571 9.62678C24.8571 9.21328 25.1923 8.87807 25.6058 8.87807Z" fill="#A15236" stroke="#A15236" stroke-width="0.5"/>
<path d="M12.1563 25.5105C12.6671 25.204 13.1043 25.0195 13.3026 24.9423C13.3388 24.9282 13.3706 24.9688 13.3497 25.0016C13.2652 25.1338 13.1106 25.3865 12.9468 25.7079C12.702 26.1886 11.7611 27.6843 11.1682 27.2889C10.5753 26.8935 11.4576 25.9297 12.1563 25.5105Z" fill="#A15236" stroke="#A15236" stroke-width="0.5" stroke-linecap="round"/>
<path d="M12.1556 24.3711C12.6662 24.6775 13.1035 24.8621 13.3018 24.9392C13.338 24.9533 13.3698 24.9127 13.3489 24.88C13.2644 24.7478 13.1098 24.4951 12.9461 24.1737C12.7012 23.693 11.7603 22.1972 11.1674 22.5927C10.5745 22.9881 11.4568 23.9519 12.1556 24.3711Z" fill="#A15236" stroke="#A15236" stroke-width="0.5" stroke-linecap="round"/>
<path d="M9.58748 24.8996C9.58748 25.3131 9.92269 25.6483 10.3362 25.6483C10.7497 25.6483 11.0849 25.3131 11.0849 24.8996C11.0849 24.4861 10.7497 24.1509 10.3362 24.1509C9.92269 24.1509 9.58748 24.4861 9.58748 24.8996Z" fill="#A15236" stroke="#A15236" stroke-width="0.5"/>
<path d="M39.1106 24.3457C38.6 24.6522 38.1628 24.8367 37.9646 24.9139C37.9283 24.9279 37.8964 24.8873 37.9174 24.8546C38.0018 24.7224 38.1564 24.4697 38.3203 24.1483C38.5653 23.6676 39.5062 22.1718 40.0988 22.5673C40.6918 22.9627 39.8094 23.9265 39.1106 24.3457Z" fill="#A15236" stroke="#A15236" stroke-width="0.5" stroke-linecap="round"/>
<path d="M39.1114 25.4855C38.6008 25.1791 38.1636 24.9946 37.9654 24.9174C37.9291 24.9033 37.8972 24.9439 37.9182 24.9767C38.0026 25.1089 38.1572 25.3616 38.3211 25.683C38.5661 26.1637 39.5066 27.6594 40.0996 27.264C40.6926 26.8686 39.8102 25.9048 39.1114 25.4855Z" fill="#A15236" stroke="#A15236" stroke-width="0.5" stroke-linecap="round"/>
<path d="M41.6827 24.9569C41.6827 24.5434 41.3475 24.2081 40.934 24.2081C40.5205 24.2081 40.1853 24.5434 40.1853 24.9569C40.1853 25.3704 40.5205 25.7056 40.934 25.7056C41.3475 25.7056 41.6827 25.3704 41.6827 24.9569Z" fill="#A15236" stroke="#A15236" stroke-width="0.5"/>
<path d="M25.0589 38.4099C25.3653 37.8993 25.5502 37.4621 25.6273 37.2639C25.641 37.2276 25.6006 37.1957 25.5679 37.2167C25.4355 37.301 25.1828 37.4556 24.8615 37.6195C24.3807 37.8645 22.8852 38.8051 23.2803 39.3981C23.6759 39.9911 24.6399 39.1087 25.0589 38.4099Z" fill="#A15236" stroke="#A15236" stroke-width="0.5" stroke-linecap="round"/>
<path d="M26.1908 38.4038C25.8844 37.8927 25.6999 37.4556 25.6228 37.2574C25.6087 37.221 25.6491 37.1896 25.6818 37.2101C25.8142 37.2949 26.0669 37.4495 26.3882 37.613C26.869 37.858 28.3646 38.799 27.9694 39.392C27.5738 39.9846 26.6102 39.1025 26.1908 38.4038Z" fill="#A15236" stroke="#A15236" stroke-width="0.5" stroke-linecap="round"/>
<path d="M25.664 40.972C25.2505 40.972 24.9153 40.6368 24.9153 40.2233C24.9153 39.8098 25.2505 39.4746 25.664 39.4746C26.0775 39.4746 26.4127 39.8098 26.4127 40.2233C26.4127 40.6368 26.0775 40.972 25.664 40.972Z" fill="#A15236" stroke="#A15236" stroke-width="0.5"/>
<path d="M74.4622 13.626H66.6575V15.501C66.6966 15.501 66.7278 15.5166 66.7512 15.5479C66.7747 15.5791 66.802 15.5947 66.8333 15.5947C66.8177 15.5947 66.9778 15.5479 67.3137 15.4541C67.6575 15.3604 68.0481 15.2783 68.4856 15.208C68.9231 15.1299 69.345 15.0908 69.7512 15.0908C70.6887 15.0908 71.427 15.2197 71.9661 15.4775C72.5052 15.7354 72.8919 16.0986 73.1262 16.5674C73.3684 17.0361 73.513 17.5635 73.5598 18.1494C73.6145 18.7275 73.6419 19.5244 73.6419 20.54V25.1689C73.2122 24.9971 72.8255 24.8291 72.4817 24.665C72.138 24.4932 71.8997 24.3682 71.7669 24.29C71.7669 24.0322 71.72 23.8721 71.6262 23.8096C71.3684 23.958 71.0794 24.1221 70.7591 24.3018C70.4387 24.4736 70.0208 24.626 69.5052 24.7588C68.9895 24.8916 68.3762 24.958 67.6653 24.958C66.9856 24.958 66.3216 24.833 65.6731 24.583C65.0247 24.333 64.4973 23.9775 64.0911 23.5166C63.6927 23.0479 63.4934 22.5205 63.4934 21.9346C63.4934 21.3877 63.7473 20.8174 64.2552 20.2236C64.763 19.6221 65.4427 19.126 66.2942 18.7354C67.1458 18.3369 68.0755 18.1377 69.0833 18.1377C69.6302 18.1377 70.1497 18.2197 70.6419 18.3838C71.1341 18.54 71.5091 18.7158 71.7669 18.9111V17.833C71.4622 17.4268 71.1575 17.1455 70.8528 16.9893C70.5481 16.833 70.0794 16.7549 69.4466 16.7549C68.6262 16.7861 67.9778 16.8564 67.5012 16.9658C67.0325 17.0674 66.5247 17.2314 65.9778 17.458C65.4387 17.6768 64.9856 17.8486 64.6184 17.9736V17.1064C64.6731 17.0596 64.7512 16.9932 64.8528 16.9072C64.9544 16.8213 65.0208 16.7588 65.052 16.7197C65.0911 16.6807 65.1145 16.6572 65.1223 16.6494V13.626H62.72V12.2197H74.4622V13.626ZM71.7669 21.0439C71.7669 20.6846 71.3645 20.3838 70.5598 20.1416C69.7552 19.8994 69.1848 19.7783 68.8489 19.7783C67.9973 19.7783 67.22 19.958 66.5169 20.3174C65.8216 20.6768 65.2747 21.0947 64.8762 21.5713C64.4778 22.04 64.2786 22.4268 64.2786 22.7314C64.388 23.0596 64.6302 23.2861 65.0052 23.4111C65.388 23.5283 65.7942 23.5869 66.2239 23.5869C67.0208 23.5869 67.7591 23.4814 68.4387 23.2705C69.1262 23.0596 69.72 22.8018 70.22 22.4971C70.72 22.1846 71.1028 21.8877 71.3684 21.6064C71.6341 21.3252 71.7669 21.1377 71.7669 21.0439ZM89.3567 12.2197L89.3333 13.626H88.138V15.8643C88.138 15.8877 87.8059 16.4854 87.1419 17.6572C86.4856 18.8213 85.7239 20.165 84.8567 21.6885C83.9895 23.2041 83.3684 24.2939 82.9934 24.958C82.7356 24.958 82.3489 24.8174 81.8333 24.5361C81.3255 24.2471 80.802 23.8408 80.263 23.3174C79.7239 22.7861 79.2786 22.1807 78.927 21.501C78.5833 20.8135 78.4114 20.0791 78.4114 19.2979C78.4114 18.79 78.4778 18.3877 78.6106 18.0908C78.7434 17.7939 78.9192 17.501 79.138 17.2119C79.3567 16.915 79.4661 16.6885 79.4661 16.5322C79.4661 16.2588 79.2356 16.1221 78.7747 16.1221C78.4856 16.1221 78.2356 16.1963 78.0247 16.3447C77.8216 16.4932 77.4856 16.8369 77.0169 17.376L75.5052 16.0049C75.7942 15.7627 76.0598 15.5791 76.302 15.4541C76.552 15.3291 76.7864 15.2471 77.0052 15.208C77.2317 15.1611 77.5481 15.1299 77.9544 15.1143C79.2122 15.1143 80.0559 15.4346 80.4856 16.0752C80.9153 16.708 81.1302 17.5166 81.1302 18.501C81.1302 18.5791 81.095 18.9385 81.0247 19.5791C80.9622 20.2119 80.9309 20.7666 80.9309 21.2432C80.9309 22.4775 81.1458 23.1494 81.5755 23.2588C81.8098 23.2588 82.0989 22.9619 82.4427 22.3682L86.0169 15.9111V13.626H74.1458V12.2197H89.3567ZM100.665 13.626H92.8606V15.501C92.8997 15.501 92.9309 15.5166 92.9544 15.5479C92.9778 15.5791 93.0052 15.5947 93.0364 15.5947C93.0208 15.5947 93.1809 15.5479 93.5169 15.4541C93.8606 15.3604 94.2512 15.2783 94.6887 15.208C95.1262 15.1299 95.5481 15.0908 95.9544 15.0908C96.8919 15.0908 97.6302 15.2197 98.1692 15.4775C98.7083 15.7354 99.095 16.0986 99.3294 16.5674C99.5716 17.0361 99.7161 17.5635 99.763 18.1494C99.8177 18.7275 99.845 19.5244 99.845 20.54V25.1689C99.4153 24.9971 99.0286 24.8291 98.6848 24.665C98.3411 24.4932 98.1028 24.3682 97.97 24.29C97.97 24.0322 97.9231 23.8721 97.8294 23.8096C97.5716 23.958 97.2825 24.1221 96.9622 24.3018C96.6419 24.4736 96.2239 24.626 95.7083 24.7588C95.1927 24.8916 94.5794 24.958 93.8684 24.958C93.1887 24.958 92.5247 24.833 91.8762 24.583C91.2278 24.333 90.7005 23.9775 90.2942 23.5166C89.8958 23.0479 89.6966 22.5205 89.6966 21.9346C89.6966 21.3877 89.9505 20.8174 90.4583 20.2236C90.9661 19.6221 91.6458 19.126 92.4973 18.7354C93.3489 18.3369 94.2786 18.1377 95.2864 18.1377C95.8333 18.1377 96.3528 18.2197 96.845 18.3838C97.3372 18.54 97.7122 18.7158 97.97 18.9111V17.833C97.6653 17.4268 97.3606 17.1455 97.0559 16.9893C96.7512 16.833 96.2825 16.7549 95.6497 16.7549C94.8294 16.7861 94.1809 16.8564 93.7044 16.9658C93.2356 17.0674 92.7278 17.2314 92.1809 17.458C91.6419 17.6768 91.1887 17.8486 90.8216 17.9736V17.1064C90.8762 17.0596 90.9544 16.9932 91.0559 16.9072C91.1575 16.8213 91.2239 16.7588 91.2552 16.7197C91.2942 16.6807 91.3177 16.6572 91.3255 16.6494V13.626H88.9231V12.2197H100.665V13.626ZM97.97 21.0439C97.97 20.6846 97.5677 20.3838 96.763 20.1416C95.9583 19.8994 95.388 19.7783 95.052 19.7783C94.2005 19.7783 93.4231 19.958 92.72 20.3174C92.0247 20.6768 91.4778 21.0947 91.0794 21.5713C90.6809 22.04 90.4817 22.4268 90.4817 22.7314C90.5911 23.0596 90.8333 23.2861 91.2083 23.4111C91.5911 23.5283 91.9973 23.5869 92.427 23.5869C93.2239 23.5869 93.9622 23.4814 94.6419 23.2705C95.3294 23.0596 95.9231 22.8018 96.4231 22.4971C96.9231 22.1846 97.3059 21.8877 97.5716 21.6064C97.8372 21.3252 97.97 21.1377 97.97 21.0439ZM105.716 13.626H104.474V12.2197H105.716V13.626ZM101.708 13.626H100.372V12.2197H101.708V13.626ZM104.087 10.8018V25.2275C104.056 25.2275 103.95 25.1807 103.771 25.0869C103.599 25.001 103.4 24.8994 103.173 24.7822C102.947 24.665 102.712 24.5479 102.47 24.4307C102.228 24.3057 102.095 24.2432 102.072 24.2432V10.8252C102.032 9.89551 101.872 9.02441 101.591 8.21191C101.31 7.39941 100.993 6.72363 100.642 6.18457C100.298 5.64551 99.927 5.14941 99.5286 4.69629C99.1223 4.24316 98.8723 3.96582 98.7786 3.86426H101.275C101.939 4.52832 102.486 5.29004 102.915 6.14941C103.345 7.00098 103.646 7.83301 103.818 8.64551C103.997 9.4502 104.087 10.1689 104.087 10.8018ZM116.931 13.626H109.126V15.501C109.165 15.501 109.197 15.5166 109.22 15.5479C109.243 15.5791 109.271 15.5947 109.302 15.5947C109.286 15.5947 109.447 15.5479 109.782 15.4541C110.126 15.3604 110.517 15.2783 110.954 15.208C111.392 15.1299 111.814 15.0908 112.22 15.0908C113.157 15.0908 113.896 15.2197 114.435 15.4775C114.974 15.7354 115.361 16.0986 115.595 16.5674C115.837 17.0361 115.982 17.5635 116.029 18.1494C116.083 18.7275 116.111 19.5244 116.111 20.54V25.1689C115.681 24.9971 115.294 24.8291 114.95 24.665C114.607 24.4932 114.368 24.3682 114.236 24.29C114.236 24.0322 114.189 23.8721 114.095 23.8096C113.837 23.958 113.548 24.1221 113.228 24.3018C112.907 24.4736 112.49 24.626 111.974 24.7588C111.458 24.8916 110.845 24.958 110.134 24.958C109.454 24.958 108.79 24.833 108.142 24.583C107.493 24.333 106.966 23.9775 106.56 23.5166C106.161 23.0479 105.962 22.5205 105.962 21.9346C105.962 21.3877 106.216 20.8174 106.724 20.2236C107.232 19.6221 107.911 19.126 108.763 18.7354C109.615 18.3369 110.544 18.1377 111.552 18.1377C112.099 18.1377 112.618 18.2197 113.111 18.3838C113.603 18.54 113.978 18.7158 114.236 18.9111V17.833C113.931 17.4268 113.626 17.1455 113.322 16.9893C113.017 16.833 112.548 16.7549 111.915 16.7549C111.095 16.7861 110.447 16.8564 109.97 16.9658C109.501 17.0674 108.993 17.2314 108.447 17.458C107.907 17.6768 107.454 17.8486 107.087 17.9736V17.1064C107.142 17.0596 107.22 16.9932 107.322 16.9072C107.423 16.8213 107.49 16.7588 107.521 16.7197C107.56 16.6807 107.583 16.6572 107.591 16.6494V13.626H105.189V12.2197H116.931V13.626ZM114.236 21.0439C114.236 20.6846 113.833 20.3838 113.029 20.1416C112.224 19.8994 111.654 19.7783 111.318 19.7783C110.466 19.7783 109.689 19.958 108.986 20.3174C108.29 20.6768 107.743 21.0947 107.345 21.5713C106.947 22.04 106.747 22.4268 106.747 22.7314C106.857 23.0596 107.099 23.2861 107.474 23.4111C107.857 23.5283 108.263 23.5869 108.693 23.5869C109.49 23.5869 110.228 23.4814 110.907 23.2705C111.595 23.0596 112.189 22.8018 112.689 22.4971C113.189 22.1846 113.572 21.8877 113.837 21.6064C114.103 21.3252 114.236 21.1377 114.236 21.0439ZM134.661 13.626H130.794L130.818 15.2666C131.857 15.6494 132.618 16.1572 133.103 16.79C133.595 17.415 133.841 18.3057 133.841 19.4619C133.841 20.3291 133.646 21.1221 133.255 21.8408C132.872 22.5596 132.419 23.1533 131.896 23.6221C131.38 24.083 130.888 24.4502 130.419 24.7236C129.95 24.9893 129.685 25.1221 129.622 25.1221C129.505 25.1221 129.181 24.8643 128.65 24.3486C128.126 23.833 127.697 23.4033 127.361 23.0596C128.095 23.0205 128.911 22.7783 129.81 22.333C130.708 21.8877 131.478 21.3135 132.118 20.6104C132.759 19.8994 133.079 19.1494 133.079 18.3604C133.079 17.9541 132.958 17.6182 132.716 17.3525C132.474 17.0791 132.157 16.876 131.767 16.7432C131.384 16.6025 130.97 16.5322 130.525 16.5322C129.173 16.6104 128.122 17.0479 127.372 17.8447C126.63 18.6338 126.13 19.6689 125.872 20.9502C125.818 20.9346 125.493 20.8057 124.9 20.5635C124.306 20.3135 123.829 20.1143 123.47 19.9658C123.47 19.583 123.544 19.2002 123.693 18.8174C123.849 18.4346 124.025 18.083 124.22 17.7627C124.423 17.4424 124.525 17.2744 124.525 17.2588C124.525 17.0479 124.333 16.9033 123.95 16.8252C123.568 16.7471 123.232 16.708 122.943 16.708C122.302 16.708 121.697 16.876 121.126 17.2119C120.564 17.5479 120.118 17.9775 119.79 18.501C119.462 19.0166 119.298 19.5361 119.298 20.0596C119.298 20.6455 119.458 21.2119 119.779 21.7588C120.099 22.3057 120.443 22.7783 120.81 23.1768C121.177 23.5674 121.63 24.0049 122.169 24.4893C122.716 24.9658 123.005 25.2432 123.036 25.3213C122.536 25.1494 121.947 24.8955 121.267 24.5596C120.595 24.2236 119.923 23.8018 119.251 23.2939C118.579 22.7783 118.021 22.1963 117.575 21.5479C117.138 20.8994 116.919 20.2041 116.919 19.4619C116.919 18.6104 117.161 17.8525 117.646 17.1885C118.13 16.5166 118.751 15.9971 119.509 15.6299C120.275 15.2549 121.06 15.0674 121.865 15.0674C122.505 15.0674 123.075 15.1611 123.575 15.3486C124.075 15.5283 124.532 15.7432 124.947 15.9932C125.368 16.2432 125.599 16.3682 125.638 16.3682C125.646 16.3682 125.861 16.2705 126.282 16.0752C126.704 15.8799 127.138 15.7002 127.583 15.5361C128.036 15.3721 128.419 15.2666 128.732 15.2197L128.755 13.626H116.568V12.2197H134.661V13.626ZM147.365 13.626H138.458V17.9971C138.615 17.8018 138.884 17.5049 139.267 17.1064C139.657 16.708 140.157 16.3096 140.767 15.9111C141.384 15.5127 141.997 15.3135 142.607 15.3135C143.24 15.3135 143.822 15.4463 144.353 15.7119C144.884 15.9697 145.337 16.3135 145.712 16.7432C146.095 17.165 146.384 17.626 146.579 18.126C146.782 18.626 146.884 19.1025 146.884 19.5557C146.884 20.2275 146.708 20.8916 146.357 21.5479C146.005 22.1963 145.552 22.7744 144.997 23.2822C144.45 23.7822 143.876 24.1846 143.275 24.4893C142.681 24.7861 142.169 24.9346 141.74 24.9346C141.2 24.9346 140.712 24.7744 140.275 24.4541C139.845 24.126 139.208 23.5322 138.365 22.6729V25.0752L136.325 24.1963V13.626H134.404V12.2197H136.325C136.325 11.2119 136.169 10.2314 135.857 9.27832C135.552 8.31738 135.189 7.47363 134.767 6.74707C134.345 6.02051 133.911 5.37598 133.466 4.81348C133.013 4.25098 132.661 3.86035 132.411 3.6416H134.978C135.282 3.89941 135.595 4.2041 135.915 4.55566C136.236 4.89941 136.599 5.42676 137.005 6.1377C137.411 6.84863 137.755 7.71191 138.036 8.72754C138.318 9.74316 138.458 10.9072 138.458 12.2197H147.365V13.626ZM145.583 20.7627C145.583 20.4424 145.474 20.0713 145.255 19.6494C145.044 19.2197 144.747 18.8057 144.365 18.4072C143.982 18.0088 143.513 17.6729 142.958 17.3994C142.411 17.126 141.829 16.9893 141.212 16.9893C140.837 16.9893 140.454 17.1025 140.064 17.3291C139.681 17.5557 139.361 17.8174 139.103 18.1143C138.845 18.4033 138.716 18.6221 138.716 18.7705C138.716 19.3096 138.95 19.9775 139.419 20.7744C139.896 21.5635 140.497 22.251 141.224 22.8369C141.95 23.4229 142.661 23.7158 143.357 23.7158C143.755 23.7158 144.122 23.5674 144.458 23.2705C144.802 22.9736 145.075 22.5947 145.279 22.1338C145.482 21.6729 145.583 21.2158 145.583 20.7627ZM158.673 13.626H150.868V15.501C150.907 15.501 150.939 15.5166 150.962 15.5479C150.986 15.5791 151.013 15.5947 151.044 15.5947C151.029 15.5947 151.189 15.5479 151.525 15.4541C151.868 15.3604 152.259 15.2783 152.697 15.208C153.134 15.1299 153.556 15.0908 153.962 15.0908C154.9 15.0908 155.638 15.2197 156.177 15.4775C156.716 15.7354 157.103 16.0986 157.337 16.5674C157.579 17.0361 157.724 17.5635 157.771 18.1494C157.825 18.7275 157.853 19.5244 157.853 20.54V25.1689C157.423 24.9971 157.036 24.8291 156.693 24.665C156.349 24.4932 156.111 24.3682 155.978 24.29C155.978 24.0322 155.931 23.8721 155.837 23.8096C155.579 23.958 155.29 24.1221 154.97 24.3018C154.65 24.4736 154.232 24.626 153.716 24.7588C153.2 24.8916 152.587 24.958 151.876 24.958C151.197 24.958 150.532 24.833 149.884 24.583C149.236 24.333 148.708 23.9775 148.302 23.5166C147.904 23.0479 147.704 22.5205 147.704 21.9346C147.704 21.3877 147.958 20.8174 148.466 20.2236C148.974 19.6221 149.654 19.126 150.505 18.7354C151.357 18.3369 152.286 18.1377 153.294 18.1377C153.841 18.1377 154.361 18.2197 154.853 18.3838C155.345 18.54 155.72 18.7158 155.978 18.9111V17.833C155.673 17.4268 155.368 17.1455 155.064 16.9893C154.759 16.833 154.29 16.7549 153.657 16.7549C152.837 16.7861 152.189 16.8564 151.712 16.9658C151.243 17.0674 150.736 17.2314 150.189 17.458C149.65 17.6768 149.197 17.8486 148.829 17.9736V17.1064C148.884 17.0596 148.962 16.9932 149.064 16.9072C149.165 16.8213 149.232 16.7588 149.263 16.7197C149.302 16.6807 149.325 16.6572 149.333 16.6494V13.626H146.931V12.2197H158.673V13.626ZM155.978 21.0439C155.978 20.6846 155.575 20.3838 154.771 20.1416C153.966 19.8994 153.396 19.7783 153.06 19.7783C152.208 19.7783 151.431 19.958 150.728 20.3174C150.032 20.6768 149.486 21.0947 149.087 21.5713C148.689 22.04 148.49 22.4268 148.49 22.7314C148.599 23.0596 148.841 23.2861 149.216 23.4111C149.599 23.5283 150.005 23.5869 150.435 23.5869C151.232 23.5869 151.97 23.4814 152.65 23.2705C153.337 23.0596 153.931 22.8018 154.431 22.4971C154.931 22.1846 155.314 21.8877 155.579 21.6064C155.845 21.3252 155.978 21.1377 155.978 21.0439Z" fill="white"/>
<path d="M70.3018 33.9111H66.376V37.0679H69.9942V38.54H66.376V42.9346H64.6328V32.4316H70.3018V33.9111ZM76.5054 43.1104C74.9917 43.1104 73.7783 42.6196 72.8653 41.6382C71.9571 40.6567 71.503 39.3799 71.503 37.8076C71.503 36.1182 71.9668 34.7705 72.8946 33.7646C73.8223 32.7588 75.0821 32.2559 76.6739 32.2559C78.1485 32.2559 79.335 32.7441 80.2334 33.7207C81.1367 34.6973 81.5884 35.9741 81.5884 37.5513C81.5884 39.2651 81.127 40.6201 80.2041 41.6162C79.2813 42.6123 78.0484 43.1104 76.5054 43.1104ZM76.586 33.7866C75.6241 33.7866 74.8404 34.1455 74.2349 34.8633C73.6343 35.5811 73.334 36.5259 73.334 37.6978C73.334 38.8647 73.627 39.8047 74.2129 40.5176C74.7989 41.2305 75.5655 41.5869 76.5127 41.5869C77.5186 41.5869 78.312 41.2476 78.8931 40.5688C79.4741 39.8901 79.7647 38.9404 79.7647 37.7197C79.7647 36.4648 79.4815 35.4956 78.9151 34.812C78.3535 34.1284 77.5772 33.7866 76.586 33.7866ZM91.5933 38.6865C91.5933 41.6357 90.1968 43.1104 87.4038 43.1104C84.7281 43.1104 83.3902 41.6919 83.3902 38.855V32.4316H85.1333V38.4961C85.1333 40.5566 85.9341 41.5869 87.5357 41.5869C89.0786 41.5869 89.8501 40.5933 89.8501 38.606V32.4316H91.5933V38.6865ZM102.968 42.9346H101.064L96.0464 35.2148C95.9195 35.0195 95.8145 34.8169 95.7315 34.6069H95.6875C95.7266 34.8315 95.7461 35.3125 95.7461 36.0498V42.9346H94.0616V32.4316H96.0904L100.939 39.9683C101.144 40.2808 101.276 40.4956 101.334 40.6128H101.364C101.315 40.3345 101.291 39.8633 101.291 39.1992V32.4316H102.968V42.9346ZM105.575 42.9346V32.4316H108.607C112.48 32.4316 114.416 34.1382 114.416 37.5513C114.416 39.1724 113.878 40.4761 112.804 41.4624C111.73 42.4438 110.29 42.9346 108.483 42.9346H105.575ZM107.311 33.9111V41.4624H108.703C109.928 41.4624 110.88 41.1255 111.559 40.4517C112.243 39.7778 112.584 38.8257 112.584 37.5952C112.584 35.1392 111.313 33.9111 108.769 33.9111H107.311ZM124.735 42.9346H122.824L121.879 40.2612H117.748L116.84 42.9346H114.936L118.869 32.4316H120.832L124.735 42.9346ZM121.418 38.8403L119.96 34.6509C119.916 34.5142 119.87 34.2944 119.821 33.9917H119.792C119.748 34.27 119.699 34.4897 119.645 34.6509L118.202 38.8403H121.418ZM131.855 33.9111H128.837V42.9346H127.094V33.9111H124.084V32.4316H131.855V33.9111ZM135.18 42.9346H133.385V32.4316H135.18V42.9346ZM142.101 43.1104C140.587 43.1104 139.374 42.6196 138.461 41.6382C137.553 40.6567 137.099 39.3799 137.099 37.8076C137.099 36.1182 137.563 34.7705 138.49 33.7646C139.418 32.7588 140.678 32.2559 142.27 32.2559C143.744 32.2559 144.931 32.7441 145.829 33.7207C146.732 34.6973 147.184 35.9741 147.184 37.5513C147.184 39.2651 146.723 40.6201 145.8 41.6162C144.877 42.6123 143.644 43.1104 142.101 43.1104ZM142.182 33.7866C141.22 33.7866 140.436 34.1455 139.831 34.8633C139.23 35.5811 138.93 36.5259 138.93 37.6978C138.93 38.8647 139.223 39.8047 139.809 40.5176C140.395 41.2305 141.161 41.5869 142.108 41.5869C143.114 41.5869 143.908 41.2476 144.489 40.5688C145.07 39.8901 145.36 38.9404 145.36 37.7197C145.36 36.4648 145.077 35.4956 144.511 34.812C143.949 34.1284 143.173 33.7866 142.182 33.7866ZM158.017 42.9346H156.112L151.095 35.2148C150.968 35.0195 150.863 34.8169 150.78 34.6069H150.736C150.775 34.8315 150.795 35.3125 150.795 36.0498V42.9346H149.11V32.4316H151.139L155.988 39.9683C156.193 40.2808 156.325 40.4956 156.383 40.6128H156.413C156.364 40.3345 156.339 39.8633 156.339 39.1992V32.4316H158.017V42.9346Z" fill="white"/>
</g>
<defs>
<clipPath id="clip0_244_960">
<rect width="158.673" height="50.8692" fill="white" transform="translate(0.663574)"/>
</clipPath>
</defs>
</svg>
