<svg width="25" height="24" viewBox="0 0 25 24" fill="none" xmlns="http://www.w3.org/2000/svg">
<path d="M14.9301 18.82C14.7401 18.82 14.5501 18.75 14.4001 18.6C14.1101 18.31 14.1101 17.83 14.4001 17.54L19.9401 12L14.4001 6.46C14.1101 6.17 14.1101 5.69 14.4001 5.4C14.6901 5.11 15.1701 5.11 15.4601 5.4L21.5301 11.47C21.8201 11.76 21.8201 12.24 21.5301 12.53L15.4601 18.6C15.3101 18.75 15.1201 18.82 14.9301 18.82Z" fill="white"/>
<path d="M20.83 12.75H4C3.59 12.75 3.25 12.41 3.25 12C3.25 11.59 3.59 11.25 4 11.25H20.83C21.24 11.25 21.58 11.59 21.58 12C21.58 12.41 21.24 12.75 20.83 12.75Z" fill="white"/>
</svg>
