<svg width="135" height="52" viewBox="0 0 135 52" fill="none" xmlns="http://www.w3.org/2000/svg">
<g clip-path="url(#clip0_434_1457)">
<path d="M1.86536 5.60603C1.70208 7.1843 2.39069 8.89562 0.8557 10.0561C-0.679052 11.2166 0.188959 14.4128 0.852915 16.7582C1.00942 17.3111 0.996783 17.8989 0.816584 18.4444L0.215319 20.2649C-0.0752422 21.1447 0.151659 22.1146 0.801366 22.7704C1.51857 23.4943 1.82616 25.5366 1.52967 26.5156C1.02117 28.1945 0.0845302 29.745 0.215319 32.167C0.894695 35.6847 1.60378 35.1333 0.945073 38.424C0.743077 39.4332 2.09174 41.0478 1.41757 43.6717C0.743439 46.2955 2.21849 47.6955 2.96362 48.5157C3.88028 49.5249 5.99115 50.4784 7.40399 49.9286C8.81683 49.3784 9.57812 52.001 11.7983 51.3212C13.5304 51.1263 14.9027 50.6951 16.2847 50.7359C17.3556 50.7674 18.4323 51.2409 19.6866 51.3212C20.9205 51.3999 22.995 51.2825 24.5269 50.3548C25.9841 49.4724 27.5395 49.3231 28.4788 49.3784C29.1739 49.4191 29.7496 49.9269 30.303 50.2991C31.1838 50.8917 32.3145 50.9268 33.2845 50.4994C34.7995 49.8321 36.7645 49.1862 38.0466 49.445C39.2689 49.692 40.2115 50.4994 41.2235 50.4994C42.2355 50.4994 42.4377 50.1667 43.4497 49.7582C44.1892 49.4595 45.6178 49.774 46.5919 48.9246C46.6573 48.8677 46.7061 48.7959 46.7614 48.7297C47.2095 48.194 49.0753 47.0125 49.0753 45.772C49.0753 44.4415 48.5783 43.6717 48.5783 42.6625C48.5783 41.6533 49.3857 40.6442 49.0753 39.1748C48.4451 37.2667 47.2491 33.7896 48.8621 32.1615C50.304 30.7061 50.6645 28.2196 50.214 27.1584C49.8882 26.501 49.4801 25.8458 49.2492 25.1467L48.7818 23.7314C48.5448 23.0134 48.5997 22.2298 48.9352 21.5529L49.6275 20.1551C49.9997 19.4044 50.0251 18.5265 49.6973 17.755C49.4406 17.1503 48.7216 16.1471 49.1027 15.474C49.1302 15.4249 49.16 15.376 49.1818 15.3239C50.3093 12.6232 49.2117 9.57516 48.5089 8.39309C47.9018 7.37181 49.2727 5.73105 48.5089 3.70826C47.9442 2.21214 44.2425 2.76186 43.002 2.90092C41.6982 3.04717 40.861 2.2544 40.0177 1.40339C39.124 0.501387 37.737 0.32902 36.6531 0.985306C34.4584 2.31443 32.5894 1.76072 30.2949 0.99124C25.771 -0.525953 24.7392 2.49858 21.9361 2.49858C20.5233 2.49858 18.9086 0.664066 17.0921 1.40339C15.2756 2.14271 15.514 2.14271 11.7983 1.11997C11.0096 0.902837 10.1649 1.0396 9.52766 1.55654C8.025 2.7757 6.9757 1.98286 4.39031 2.14271C3.54345 2.19506 1.95445 3.10276 1.86536 5.60603Z" fill="white"/>
<path d="M26.3354 26.9253C27.1044 26.1564 27.1044 24.9096 26.3354 24.1406C25.5665 23.3717 24.3197 23.3717 23.5507 24.1406C22.7818 24.9096 22.7818 26.1564 23.5507 26.9253C24.3197 27.6943 25.5665 27.6943 26.3354 26.9253Z" stroke="#A15236"/>
<path d="M19.9975 20.5912L23.2937 23.8875" stroke="#A15236"/>
<path d="M26.4213 27.0152L29.9756 30.5693" stroke="#A15236"/>
<path d="M29.8897 20.5061L26.5933 23.8023" stroke="#A15236"/>
<path d="M23.2118 27.1855L19.9156 30.4818" stroke="#A15236"/>
<path d="M19.9058 20.5015V24.1448C19.9063 24.8382 21.4679 25.1851 21.1208 23.4502" stroke="#A15236" stroke-linecap="round"/>
<path d="M19.907 20.5011H23.5501C24.2436 20.5017 24.5907 22.0631 22.8557 21.7162" stroke="#A15236" stroke-linecap="round"/>
<path d="M29.9219 30.5175H26.2784C25.5853 30.517 25.2382 28.9555 26.9731 29.3025" stroke="#A15236" stroke-linecap="round"/>
<path d="M29.9232 30.5172V26.874C29.9224 26.1805 28.361 25.8337 28.7081 27.5685" stroke="#A15236" stroke-linecap="round"/>
<path d="M29.9006 20.4885H26.2574C25.5639 20.4891 25.2172 22.0505 26.9518 21.7035" stroke="#A15236" stroke-linecap="round"/>
<path d="M29.9018 20.4889V24.1322C29.9014 24.8255 28.3396 25.1725 28.6868 23.4376" stroke="#A15236" stroke-linecap="round"/>
<path d="M19.8901 30.4983V26.855C19.8906 26.1616 21.4522 25.8147 21.1051 27.5496" stroke="#A15236" stroke-linecap="round"/>
<path d="M19.8912 30.4987H23.5343C24.2278 30.4981 24.5746 28.9366 22.84 29.2836" stroke="#A15236" stroke-linecap="round"/>
<path d="M30.1706 34.5152L28.3796 32.7244C28.2221 32.5668 27.9666 32.5668 27.8088 32.7244L25.6669 34.8665C25.5095 35.0239 25.5095 35.2794 25.6669 35.4373L28.7295 38.4995C28.887 38.6573 29.1429 38.6573 29.3003 38.4995L37.9526 29.8473C38.1104 29.6897 38.1104 29.4341 37.9526 29.2764L34.8904 26.2139C34.7325 26.0563 34.477 26.0563 34.3192 26.2139L32.1777 28.3558C32.0199 28.5134 32.0199 28.769 32.1777 28.9267L33.9684 30.7174" stroke="#A15236" stroke-linecap="round"/>
<path d="M15.9562 20.2994L17.747 22.0902C17.9047 22.2478 17.9047 22.5034 17.747 22.661L15.6052 24.8029C15.4476 24.9605 15.192 24.9605 15.0343 24.8029L11.9718 21.7404C11.8142 21.5827 11.8142 21.3271 11.9718 21.1695L20.6241 12.5172C20.7818 12.3595 21.0374 12.3595 21.195 12.5172L24.2576 15.5797C24.4151 15.7373 24.4151 15.9929 24.2576 16.1506L22.1158 18.2924C21.9579 18.45 21.7024 18.45 21.545 18.2924L19.754 16.5016" stroke="#A15236" stroke-linecap="round"/>
<path d="M15.9562 30.7161L17.747 28.9253C17.9047 28.7677 17.9047 28.5121 17.747 28.3545L15.6052 26.2126C15.4476 26.055 15.192 26.055 15.0343 26.2126L11.9718 29.2751C11.8142 29.4328 11.8142 29.6884 11.9718 29.846L20.6241 38.4983C20.7818 38.6561 21.0374 38.6561 21.195 38.4983L24.2576 35.436C24.4151 35.2782 24.4151 35.0227 24.2576 34.8648L22.1158 32.7231C21.9579 32.5655 21.7024 32.5655 21.545 32.7231L19.754 34.5139" stroke="#A15236" stroke-linecap="round"/>
<path d="M30.1706 16.5003L28.3796 18.2911C28.2221 18.4488 27.9666 18.4488 27.8088 18.2911L25.6669 16.1493C25.5095 15.9917 25.5095 15.7361 25.6669 15.5784L28.7295 12.5159C28.887 12.3583 29.1429 12.3583 29.3003 12.5159L37.9526 21.1682C38.1104 21.3259 38.1104 21.5815 37.9526 21.7391L34.8904 24.8016C34.7325 24.9593 34.477 24.9593 34.3192 24.8016L32.1777 22.6598C32.0199 22.5021 32.0199 22.2466 32.1777 22.0889L33.9684 20.2981" stroke="#A15236" stroke-linecap="round"/>
<path d="M14.063 14.6071V16.843" stroke="#A15236" stroke-linecap="round"/>
<path d="M14.0638 14.6071H16.2998" stroke="#A15236" stroke-linecap="round"/>
<path d="M11.5475 12.0917V19.3585" stroke="#A15236" stroke-linecap="round"/>
<path d="M11.5484 12.0924H18.8152" stroke="#A15236" stroke-linecap="round"/>
<path d="M35.8636 36.4084H33.6276" stroke="#A15236" stroke-linecap="round"/>
<path d="M35.8644 36.4085V34.1725" stroke="#A15236" stroke-linecap="round"/>
<path d="M38.3788 38.9229H31.1124" stroke="#A15236" stroke-linecap="round"/>
<path d="M38.3796 38.9237V31.6571" stroke="#A15236" stroke-linecap="round"/>
<path d="M35.862 14.604H33.626" stroke="#A15236" stroke-linecap="round"/>
<path d="M35.8596 14.6008V16.8368" stroke="#A15236" stroke-linecap="round"/>
<path d="M38.3772 12.0893H31.1108" stroke="#A15236" stroke-linecap="round"/>
<path d="M38.3752 12.0885V19.3553" stroke="#A15236" stroke-linecap="round"/>
<path d="M14.0615 36.4052V34.1693" stroke="#A15236" stroke-linecap="round"/>
<path d="M14.0591 36.402H16.295" stroke="#A15236" stroke-linecap="round"/>
<path d="M11.546 38.9205V31.6539" stroke="#A15236" stroke-linecap="round"/>
<path d="M11.5437 38.9201H18.8104" stroke="#A15236" stroke-linecap="round"/>
<path d="M29.9954 20.4769L28.8825 20.6216L29.8505 21.5898L29.9954 20.4769Z" fill="#A15236"/>
<path d="M19.9336 30.5371L20.0783 29.4241L21.0466 30.3923L19.9336 30.5371Z" fill="#A15236"/>
<path d="M29.9946 30.5402L29.8497 29.4273L28.8817 30.3955L29.9946 30.5402Z" fill="#A15236"/>
<path d="M19.9328 20.4769L21.0458 20.6216L20.0776 21.5898L19.9328 20.4769Z" fill="#A15236"/>
<path d="M25.5454 12.0085C25.239 12.5192 25.0545 12.9564 24.9774 13.1547C24.9633 13.1909 25.0036 13.2227 25.0363 13.2018C25.1687 13.1173 25.4214 12.9627 25.7427 12.799C26.2235 12.5541 27.7191 11.6132 27.3239 11.0203C26.9283 10.4274 25.9648 11.3098 25.5454 12.0085Z" fill="#A15236" stroke="#A15236" stroke-width="0.5" stroke-linecap="round"/>
<path d="M24.4135 12.0148C24.7199 12.5255 24.9043 12.9627 24.9818 13.161C24.9956 13.1972 24.9552 13.2291 24.9225 13.2081C24.7901 13.1236 24.5374 12.969 24.2161 12.8053C23.7353 12.5604 22.2397 11.6195 22.6349 11.0266C23.0305 10.4338 23.9945 11.3161 24.4135 12.0148Z" fill="#A15236" stroke="#A15236" stroke-width="0.5" stroke-linecap="round"/>
<path d="M24.9423 9.44356C25.3558 9.44356 25.691 9.77877 25.691 10.1923C25.691 10.6058 25.3558 10.941 24.9423 10.941C24.5288 10.941 24.1935 10.6058 24.1935 10.1923C24.1935 9.77877 24.5288 9.44356 24.9423 9.44356Z" fill="#A15236" stroke="#A15236" stroke-width="0.5"/>
<path d="M11.4928 26.0761C12.0035 25.7696 12.4407 25.5851 12.639 25.5079C12.6752 25.4939 12.707 25.5345 12.6861 25.5672C12.6016 25.6994 12.447 25.9521 12.2833 26.2735C12.0384 26.7542 11.0975 28.2499 10.5046 27.8545C9.91171 27.4591 10.7941 26.4953 11.4928 26.0761Z" fill="#A15236" stroke="#A15236" stroke-width="0.5" stroke-linecap="round"/>
<path d="M11.492 24.9363C12.0027 25.2428 12.4399 25.4273 12.6382 25.5045C12.6744 25.5186 12.7062 25.4779 12.6853 25.4452C12.6008 25.313 12.4462 25.0603 12.2825 24.7389C12.0376 24.2582 11.0967 22.7624 10.5038 23.1579C9.91094 23.5533 10.7932 24.5171 11.492 24.9363Z" fill="#A15236" stroke="#A15236" stroke-width="0.5" stroke-linecap="round"/>
<path d="M8.92391 25.4649C8.92391 25.8784 9.25911 26.2136 9.67262 26.2136C10.0861 26.2136 10.4213 25.8784 10.4213 25.4649C10.4213 25.0514 10.0861 24.7162 9.67262 24.7162C9.25911 24.7162 8.92391 25.0514 8.92391 25.4649Z" fill="#A15236" stroke="#A15236" stroke-width="0.5"/>
<path d="M38.4471 24.9111C37.9364 25.2175 37.4993 25.4021 37.3011 25.4792C37.2647 25.4933 37.2328 25.4527 37.2538 25.42C37.3382 25.2878 37.4928 25.035 37.6567 24.7137C37.9017 24.233 38.8427 22.7372 39.4353 23.1327C40.0282 23.5281 39.1458 24.4919 38.4471 24.9111Z" fill="#A15236" stroke="#A15236" stroke-width="0.5" stroke-linecap="round"/>
<path d="M38.4479 26.0508C37.9372 25.7444 37.5 25.5598 37.3018 25.4827C37.2655 25.4686 37.2336 25.5092 37.2546 25.542C37.339 25.6742 37.4936 25.9269 37.6575 26.2483C37.9025 26.7289 38.8431 28.2247 39.436 27.8293C40.029 27.4338 39.1466 26.47 38.4479 26.0508Z" fill="#A15236" stroke="#A15236" stroke-width="0.5" stroke-linecap="round"/>
<path d="M41.0192 25.5223C41.0192 25.1088 40.6839 24.7735 40.2704 24.7735C39.8569 24.7735 39.5217 25.1088 39.5217 25.5223C39.5217 25.9358 39.8569 26.271 40.2704 26.271C40.6839 26.271 41.0192 25.9358 41.0192 25.5223Z" fill="#A15236" stroke="#A15236" stroke-width="0.5"/>
<path d="M24.3953 38.9754C24.7017 38.4647 24.8866 38.0276 24.9637 37.8294C24.9774 37.793 24.9371 37.7612 24.9044 37.7821C24.772 37.8665 24.5193 38.0211 24.1979 38.185C23.7172 38.43 22.2216 39.3706 22.6168 39.9636C23.0124 40.5566 23.9763 39.6741 24.3953 38.9754Z" fill="#A15236" stroke="#A15236" stroke-width="0.5" stroke-linecap="round"/>
<path d="M25.5272 38.9693C25.2208 38.4583 25.0364 38.0211 24.9593 37.8229C24.9451 37.7866 24.9855 37.7551 25.0182 37.7757C25.1506 37.8605 25.4033 38.0151 25.7246 38.1786C26.2054 38.4236 27.701 39.3645 27.3058 39.9575C26.9102 40.5501 25.9466 39.6681 25.5272 38.9693Z" fill="#A15236" stroke="#A15236" stroke-width="0.5" stroke-linecap="round"/>
<path d="M25.0004 41.5374C24.5869 41.5374 24.2517 41.2022 24.2517 40.7887C24.2517 40.3752 24.5869 40.04 25.0004 40.04C25.4139 40.04 25.7491 40.3752 25.7491 40.7887C25.7491 41.2022 25.4139 41.5374 25.0004 41.5374Z" fill="#A15236" stroke="#A15236" stroke-width="0.5"/>
<path d="M70.948 18.0186H65.0945V19.4248C65.1238 19.4248 65.1472 19.4365 65.1648 19.46C65.1824 19.4834 65.2029 19.4951 65.2263 19.4951C65.2146 19.4951 65.3347 19.46 65.5867 19.3896C65.8445 19.3193 66.1375 19.2578 66.4656 19.2051C66.7937 19.1465 67.1101 19.1172 67.4148 19.1172C68.1179 19.1172 68.6716 19.2139 69.0759 19.4072C69.4802 19.6006 69.7703 19.873 69.946 20.2246C70.1277 20.5762 70.2361 20.9717 70.2712 21.4111C70.3123 21.8447 70.3328 22.4424 70.3328 23.2041V26.6758C70.0105 26.5469 69.7205 26.4209 69.4626 26.2979C69.2048 26.1689 69.0261 26.0752 68.9265 26.0166C68.9265 25.8232 68.8914 25.7031 68.821 25.6562C68.6277 25.7676 68.4109 25.8906 68.1707 26.0254C67.9304 26.1543 67.6169 26.2686 67.2302 26.3682C66.8435 26.4678 66.3835 26.5176 65.8503 26.5176C65.3406 26.5176 64.8425 26.4238 64.3562 26.2363C63.8699 26.0488 63.4744 25.7822 63.1697 25.4365C62.8708 25.085 62.7214 24.6895 62.7214 24.25C62.7214 23.8398 62.9119 23.4121 63.2927 22.9668C63.6736 22.5156 64.1833 22.1436 64.822 21.8506C65.4607 21.5518 66.158 21.4023 66.9138 21.4023C67.324 21.4023 67.7136 21.4639 68.0828 21.5869C68.4519 21.7041 68.7332 21.8359 68.9265 21.9824V21.1738C68.698 20.8691 68.4695 20.6582 68.241 20.541C68.0125 20.4238 67.6609 20.3652 67.1863 20.3652C66.571 20.3887 66.0847 20.4414 65.7273 20.5234C65.3757 20.5996 64.9949 20.7227 64.5847 20.8926C64.1804 21.0566 63.8406 21.1855 63.5652 21.2793V20.6289C63.6062 20.5938 63.6648 20.5439 63.741 20.4795C63.8171 20.415 63.8669 20.3682 63.8904 20.3389C63.9197 20.3096 63.9373 20.292 63.9431 20.2861V18.0186H62.1414V16.9639H70.948V18.0186ZM68.9265 23.582C68.9265 23.3125 68.6248 23.0869 68.0212 22.9053C67.4177 22.7236 66.99 22.6328 66.738 22.6328C66.0994 22.6328 65.5164 22.7676 64.989 23.0371C64.4675 23.3066 64.0574 23.6201 63.7585 23.9775C63.4597 24.3291 63.3103 24.6191 63.3103 24.8477C63.3923 25.0938 63.574 25.2637 63.8552 25.3574C64.1423 25.4453 64.447 25.4893 64.7693 25.4893C65.3669 25.4893 65.9207 25.4102 66.4304 25.252C66.946 25.0938 67.3914 24.9004 67.7664 24.6719C68.1414 24.4375 68.4285 24.2148 68.6277 24.0039C68.8269 23.793 68.9265 23.6523 68.9265 23.582ZM82.1189 16.9639L82.1013 18.0186H81.2048V19.6973C81.2048 19.7148 80.9558 20.1631 80.4578 21.042C79.9656 21.915 79.3943 22.9229 78.7439 24.0654C78.0935 25.2021 77.6277 26.0195 77.3464 26.5176C77.1531 26.5176 76.863 26.4121 76.4763 26.2012C76.0955 25.9844 75.7029 25.6797 75.2986 25.2871C74.8943 24.8887 74.5603 24.4346 74.2966 23.9248C74.0388 23.4092 73.9099 22.8584 73.9099 22.2725C73.9099 21.8916 73.9597 21.5898 74.0593 21.3672C74.1589 21.1445 74.2908 20.9248 74.4548 20.708C74.6189 20.4854 74.7009 20.3154 74.7009 20.1982C74.7009 19.9932 74.5281 19.8906 74.1824 19.8906C73.9656 19.8906 73.7781 19.9463 73.6199 20.0576C73.4675 20.1689 73.2156 20.4268 72.864 20.8311L71.7302 19.8027C71.947 19.6211 72.1462 19.4834 72.3279 19.3896C72.5154 19.2959 72.6912 19.2344 72.8552 19.2051C73.0251 19.1699 73.2625 19.1465 73.5671 19.1348C74.5105 19.1348 75.1433 19.375 75.4656 19.8555C75.7878 20.3301 75.949 20.9365 75.949 21.6748C75.949 21.7334 75.9226 22.0029 75.8699 22.4834C75.823 22.958 75.7996 23.374 75.7996 23.7314C75.7996 24.6572 75.9607 25.1611 76.283 25.2432C76.4587 25.2432 76.6755 25.0205 76.9333 24.5752L79.614 19.7324V18.0186H70.7107V16.9639H82.1189ZM90.6003 18.0186H84.7468V19.4248C84.7761 19.4248 84.7996 19.4365 84.8171 19.46C84.8347 19.4834 84.8552 19.4951 84.8787 19.4951C84.8669 19.4951 84.9871 19.46 85.239 19.3896C85.4968 19.3193 85.7898 19.2578 86.1179 19.2051C86.446 19.1465 86.7625 19.1172 87.0671 19.1172C87.7703 19.1172 88.324 19.2139 88.7283 19.4072C89.1326 19.6006 89.4226 19.873 89.5984 20.2246C89.78 20.5762 89.8884 20.9717 89.9236 21.4111C89.9646 21.8447 89.9851 22.4424 89.9851 23.2041V26.6758C89.6628 26.5469 89.3728 26.4209 89.115 26.2979C88.8572 26.1689 88.6785 26.0752 88.5789 26.0166C88.5789 25.8232 88.5437 25.7031 88.4734 25.6562C88.28 25.7676 88.0632 25.8906 87.823 26.0254C87.5828 26.1543 87.2693 26.2686 86.8826 26.3682C86.4958 26.4678 86.0359 26.5176 85.5027 26.5176C84.9929 26.5176 84.4949 26.4238 84.0085 26.2363C83.5222 26.0488 83.1267 25.7822 82.822 25.4365C82.5232 25.085 82.3738 24.6895 82.3738 24.25C82.3738 23.8398 82.5642 23.4121 82.9451 22.9668C83.3259 22.5156 83.8357 22.1436 84.4744 21.8506C85.113 21.5518 85.8103 21.4023 86.5662 21.4023C86.9763 21.4023 87.366 21.4639 87.7351 21.5869C88.1042 21.7041 88.3855 21.8359 88.5789 21.9824V21.1738C88.3503 20.8691 88.1218 20.6582 87.8933 20.541C87.6648 20.4238 87.3132 20.3652 86.8386 20.3652C86.2234 20.3887 85.7371 20.4414 85.3796 20.5234C85.0281 20.5996 84.6472 20.7227 84.2371 20.8926C83.8328 21.0566 83.4929 21.1855 83.2175 21.2793V20.6289C83.2585 20.5938 83.3171 20.5439 83.3933 20.4795C83.4695 20.415 83.5193 20.3682 83.5427 20.3389C83.572 20.3096 83.5896 20.292 83.5955 20.2861V18.0186H81.7937V16.9639H90.6003V18.0186ZM88.5789 23.582C88.5789 23.3125 88.2771 23.0869 87.6736 22.9053C87.0701 22.7236 86.6423 22.6328 86.3904 22.6328C85.7517 22.6328 85.1687 22.7676 84.6414 23.0371C84.1199 23.3066 83.7097 23.6201 83.4109 23.9775C83.1121 24.3291 82.9626 24.6191 82.9626 24.8477C83.0447 25.0938 83.2263 25.2637 83.5076 25.3574C83.7947 25.4453 84.0994 25.4893 84.4216 25.4893C85.0193 25.4893 85.573 25.4102 86.0828 25.252C86.5984 25.0938 87.0437 24.9004 87.4187 24.6719C87.7937 24.4375 88.0808 24.2148 88.28 24.0039C88.4792 23.793 88.5789 23.6523 88.5789 23.582ZM94.3884 18.0186H93.4568V16.9639H94.3884V18.0186ZM91.3826 18.0186H90.3806V16.9639H91.3826V18.0186ZM93.1667 15.9004V26.7197C93.1433 26.7197 93.0642 26.6846 92.9294 26.6143C92.8005 26.5498 92.6511 26.4736 92.4812 26.3857C92.3113 26.2979 92.1355 26.21 91.9539 26.1221C91.7722 26.0283 91.6726 25.9814 91.655 25.9814V15.918C91.6257 15.2207 91.5056 14.5674 91.2947 13.958C91.0837 13.3486 90.8464 12.8418 90.5828 12.4375C90.325 12.0332 90.0466 11.6611 89.7478 11.3213C89.4431 10.9814 89.2556 10.7734 89.1853 10.6973H91.0574C91.5554 11.1953 91.9656 11.7666 92.2878 12.4111C92.6101 13.0498 92.8357 13.6738 92.9646 14.2832C93.0994 14.8867 93.1667 15.4258 93.1667 15.9004ZM102.8 18.0186H96.946V19.4248C96.9753 19.4248 96.9988 19.4365 97.0164 19.46C97.0339 19.4834 97.0544 19.4951 97.0779 19.4951C97.0662 19.4951 97.1863 19.46 97.4382 19.3896C97.696 19.3193 97.989 19.2578 98.3171 19.2051C98.6453 19.1465 98.9617 19.1172 99.2664 19.1172C99.9695 19.1172 100.523 19.2139 100.927 19.4072C101.332 19.6006 101.622 19.873 101.798 20.2246C101.979 20.5762 102.088 20.9717 102.123 21.4111C102.164 21.8447 102.184 22.4424 102.184 23.2041V26.6758C101.862 26.5469 101.572 26.4209 101.314 26.2979C101.056 26.1689 100.878 26.0752 100.778 26.0166C100.778 25.8232 100.743 25.7031 100.673 25.6562C100.479 25.7676 100.262 25.8906 100.022 26.0254C99.782 26.1543 99.4685 26.2686 99.0818 26.3682C98.6951 26.4678 98.2351 26.5176 97.7019 26.5176C97.1921 26.5176 96.6941 26.4238 96.2078 26.2363C95.7214 26.0488 95.3259 25.7822 95.0212 25.4365C94.7224 25.085 94.573 24.6895 94.573 24.25C94.573 23.8398 94.7634 23.4121 95.1443 22.9668C95.5251 22.5156 96.0349 22.1436 96.6736 21.8506C97.3123 21.5518 98.0095 21.4023 98.7654 21.4023C99.1755 21.4023 99.5652 21.4639 99.9343 21.5869C100.303 21.7041 100.585 21.8359 100.778 21.9824V21.1738C100.55 20.8691 100.321 20.6582 100.093 20.541C99.864 20.4238 99.5125 20.3652 99.0378 20.3652C98.4226 20.3887 97.9363 20.4414 97.5789 20.5234C97.2273 20.5996 96.8464 20.7227 96.4363 20.8926C96.032 21.0566 95.6921 21.1855 95.4167 21.2793V20.6289C95.4578 20.5938 95.5164 20.5439 95.5925 20.4795C95.6687 20.415 95.7185 20.3682 95.7419 20.3389C95.7712 20.3096 95.7888 20.292 95.7947 20.2861V18.0186H93.9929V16.9639H102.8V18.0186ZM100.778 23.582C100.778 23.3125 100.476 23.0869 99.8728 22.9053C99.2693 22.7236 98.8416 22.6328 98.5896 22.6328C97.9509 22.6328 97.3679 22.7676 96.8406 23.0371C96.3191 23.3066 95.9089 23.6201 95.6101 23.9775C95.3113 24.3291 95.1619 24.6191 95.1619 24.8477C95.2439 25.0938 95.4255 25.2637 95.7068 25.3574C95.9939 25.4453 96.2986 25.4893 96.6208 25.4893C97.2185 25.4893 97.7722 25.4102 98.282 25.252C98.7976 25.0938 99.2429 24.9004 99.6179 24.6719C99.9929 24.4375 100.28 24.2148 100.479 24.0039C100.678 23.793 100.778 23.6523 100.778 23.582ZM116.097 18.0186H113.197L113.215 19.249C113.994 19.5361 114.565 19.917 114.928 20.3916C115.298 20.8604 115.482 21.5283 115.482 22.3955C115.482 23.0459 115.336 23.6406 115.043 24.1797C114.756 24.7188 114.416 25.1641 114.023 25.5156C113.636 25.8613 113.267 26.1367 112.916 26.3418C112.564 26.541 112.365 26.6406 112.318 26.6406C112.23 26.6406 111.987 26.4473 111.589 26.0605C111.196 25.6738 110.874 25.3516 110.622 25.0938C111.173 25.0645 111.785 24.8828 112.459 24.5488C113.133 24.2148 113.71 23.7842 114.19 23.2568C114.671 22.7236 114.911 22.1611 114.911 21.5693C114.911 21.2646 114.82 21.0127 114.638 20.8135C114.457 20.6084 114.219 20.4561 113.927 20.3564C113.639 20.251 113.329 20.1982 112.995 20.1982C111.981 20.2568 111.193 20.585 110.631 21.1826C110.074 21.7744 109.699 22.5508 109.506 23.5117C109.465 23.5 109.221 23.4033 108.776 23.2217C108.331 23.0342 107.973 22.8848 107.704 22.7734C107.704 22.4863 107.76 22.1992 107.871 21.9121C107.988 21.625 108.12 21.3613 108.266 21.1211C108.419 20.8809 108.495 20.7549 108.495 20.7432C108.495 20.585 108.351 20.4766 108.064 20.418C107.777 20.3594 107.525 20.3301 107.308 20.3301C106.828 20.3301 106.374 20.4561 105.946 20.708C105.524 20.96 105.19 21.2822 104.944 21.6748C104.698 22.0615 104.575 22.4512 104.575 22.8438C104.575 23.2832 104.695 23.708 104.935 24.1182C105.176 24.5283 105.433 24.8828 105.709 25.1816C105.984 25.4746 106.324 25.8027 106.728 26.166C107.138 26.5234 107.355 26.7314 107.379 26.79C107.004 26.6611 106.561 26.4707 106.052 26.2188C105.548 25.9668 105.044 25.6504 104.54 25.2695C104.036 24.8828 103.617 24.4463 103.283 23.96C102.955 23.4736 102.791 22.9521 102.791 22.3955C102.791 21.7568 102.972 21.1885 103.336 20.6904C103.699 20.1865 104.165 19.7969 104.733 19.5215C105.307 19.2402 105.896 19.0996 106.5 19.0996C106.98 19.0996 107.408 19.1699 107.783 19.3105C108.158 19.4453 108.501 19.6064 108.811 19.7939C109.128 19.9814 109.301 20.0752 109.33 20.0752C109.336 20.0752 109.497 20.002 109.813 19.8555C110.13 19.709 110.455 19.5742 110.789 19.4512C111.129 19.3281 111.416 19.249 111.65 19.2139L111.668 18.0186H102.527V16.9639H116.097V18.0186ZM125.625 18.0186H118.945V21.2969C119.062 21.1504 119.264 20.9277 119.552 20.6289C119.844 20.3301 120.219 20.0312 120.677 19.7324C121.139 19.4336 121.599 19.2842 122.056 19.2842C122.531 19.2842 122.968 19.3838 123.366 19.583C123.764 19.7764 124.104 20.0342 124.385 20.3564C124.673 20.6729 124.889 21.0186 125.036 21.3936C125.188 21.7686 125.264 22.126 125.264 22.4658C125.264 22.9697 125.133 23.4678 124.869 23.96C124.605 24.4463 124.265 24.8799 123.849 25.2607C123.439 25.6357 123.009 25.9375 122.557 26.166C122.112 26.3887 121.728 26.5 121.406 26.5C121.002 26.5 120.635 26.3799 120.307 26.1396C119.985 25.8936 119.508 25.4482 118.875 24.8037V26.6055L117.345 25.9463V18.0186H115.904V16.9639H117.345C117.345 16.208 117.228 15.4727 116.994 14.7578C116.765 14.0371 116.493 13.4043 116.177 12.8594C115.86 12.3145 115.535 11.8311 115.201 11.4092C114.861 10.9873 114.597 10.6943 114.41 10.5303H116.335C116.563 10.7236 116.798 10.9521 117.038 11.2158C117.278 11.4736 117.551 11.8691 117.855 12.4023C118.16 12.9355 118.418 13.583 118.629 14.3447C118.84 15.1064 118.945 15.9795 118.945 16.9639H125.625V18.0186ZM124.289 23.3711C124.289 23.1309 124.207 22.8525 124.043 22.5361C123.885 22.2139 123.662 21.9033 123.375 21.6045C123.088 21.3057 122.736 21.0537 122.32 20.8486C121.91 20.6436 121.473 20.541 121.01 20.541C120.729 20.541 120.442 20.626 120.149 20.7959C119.862 20.9658 119.622 21.1621 119.428 21.3848C119.235 21.6016 119.138 21.7656 119.138 21.877C119.138 22.2812 119.314 22.7822 119.666 23.3799C120.023 23.9717 120.474 24.4873 121.019 24.9268C121.564 25.3662 122.097 25.5859 122.619 25.5859C122.918 25.5859 123.193 25.4746 123.445 25.252C123.703 25.0293 123.908 24.7451 124.06 24.3994C124.213 24.0537 124.289 23.7109 124.289 23.3711ZM134.106 18.0186H128.253V19.4248C128.282 19.4248 128.305 19.4365 128.323 19.46C128.341 19.4834 128.361 19.4951 128.385 19.4951C128.373 19.4951 128.493 19.46 128.745 19.3896C129.003 19.3193 129.296 19.2578 129.624 19.2051C129.952 19.1465 130.268 19.1172 130.573 19.1172C131.276 19.1172 131.83 19.2139 132.234 19.4072C132.638 19.6006 132.928 19.873 133.104 20.2246C133.286 20.5762 133.394 20.9717 133.429 21.4111C133.47 21.8447 133.491 22.4424 133.491 23.2041V26.6758C133.169 26.5469 132.879 26.4209 132.621 26.2979C132.363 26.1689 132.184 26.0752 132.085 26.0166C132.085 25.8232 132.05 25.7031 131.979 25.6562C131.786 25.7676 131.569 25.8906 131.329 26.0254C131.089 26.1543 130.775 26.2686 130.388 26.3682C130.002 26.4678 129.542 26.5176 129.009 26.5176C128.499 26.5176 128.001 26.4238 127.514 26.2363C127.028 26.0488 126.633 25.7822 126.328 25.4365C126.029 25.085 125.88 24.6895 125.88 24.25C125.88 23.8398 126.07 23.4121 126.451 22.9668C126.832 22.5156 127.342 22.1436 127.98 21.8506C128.619 21.5518 129.316 21.4023 130.072 21.4023C130.482 21.4023 130.872 21.4639 131.241 21.5869C131.61 21.7041 131.891 21.8359 132.085 21.9824V21.1738C131.856 20.8691 131.628 20.6582 131.399 20.541C131.171 20.4238 130.819 20.3652 130.344 20.3652C129.729 20.3887 129.243 20.4414 128.885 20.5234C128.534 20.5996 128.153 20.7227 127.743 20.8926C127.339 21.0566 126.999 21.1855 126.723 21.2793V20.6289C126.764 20.5938 126.823 20.5439 126.899 20.4795C126.975 20.415 127.025 20.3682 127.049 20.3389C127.078 20.3096 127.095 20.292 127.101 20.2861V18.0186H125.3V16.9639H134.106V18.0186ZM132.085 23.582C132.085 23.3125 131.783 23.0869 131.179 22.9053C130.576 22.7236 130.148 22.6328 129.896 22.6328C129.258 22.6328 128.675 22.7676 128.147 23.0371C127.626 23.3066 127.216 23.6201 126.917 23.9775C126.618 24.3291 126.469 24.6191 126.469 24.8477C126.551 25.0938 126.732 25.2637 127.013 25.3574C127.301 25.4453 127.605 25.4893 127.927 25.4893C128.525 25.4893 129.079 25.4102 129.589 25.252C130.104 25.0938 130.55 24.9004 130.925 24.6719C131.3 24.4375 131.587 24.2148 131.786 24.0039C131.985 23.793 132.085 23.6523 132.085 23.582Z" fill="white"/>
<path d="M67.7808 31.8828H64.9019V34.1978H67.5552V35.2773H64.9019V38.5H63.6235V30.7979H67.7808V31.8828ZM72.3301 38.6289C71.2201 38.6289 70.3302 38.269 69.6606 37.5493C68.9946 36.8296 68.6616 35.8932 68.6616 34.7402C68.6616 33.5013 69.0018 32.513 69.6821 31.7754C70.3625 31.0378 71.2863 30.6689 72.4536 30.6689C73.535 30.6689 74.4051 31.027 75.064 31.7432C75.7264 32.4593 76.0576 33.3957 76.0576 34.5522C76.0576 35.8091 75.7192 36.8027 75.0425 37.5332C74.3657 38.2637 73.4616 38.6289 72.3301 38.6289ZM72.3892 31.7915C71.6838 31.7915 71.109 32.0547 70.665 32.5811C70.2246 33.1074 70.0044 33.8003 70.0044 34.6597C70.0044 35.5155 70.2192 36.2048 70.6489 36.7275C71.0786 37.2503 71.6408 37.5117 72.3354 37.5117C73.0731 37.5117 73.6549 37.2629 74.0811 36.7651C74.5072 36.2674 74.7202 35.571 74.7202 34.6758C74.7202 33.7555 74.5125 33.0448 74.0972 32.5435C73.6854 32.0422 73.116 31.7915 72.3892 31.7915ZM83.3945 35.3848C83.3945 37.5475 82.3704 38.6289 80.3223 38.6289C78.36 38.6289 77.3789 37.5887 77.3789 35.5083V30.7979H78.6572V35.2451C78.6572 36.7562 79.2445 37.5117 80.4189 37.5117C81.5505 37.5117 82.1162 36.783 82.1162 35.3257V30.7979H83.3945V35.3848ZM91.7358 38.5H90.3394L86.6602 32.8389C86.5671 32.6956 86.4901 32.547 86.4292 32.3931H86.397C86.4256 32.5578 86.4399 32.9105 86.4399 33.4512V38.5H85.2046V30.7979H86.6924L90.248 36.3247C90.3984 36.5539 90.4951 36.7114 90.5381 36.7974H90.5596C90.5238 36.5933 90.5059 36.2477 90.5059 35.7607V30.7979H91.7358V38.5ZM93.6479 38.5V30.7979H95.8716C98.7111 30.7979 100.131 32.0493 100.131 34.5522C100.131 35.741 99.737 36.6971 98.9492 37.4204C98.1615 38.1401 97.1051 38.5 95.7803 38.5H93.6479ZM94.9209 31.8828V37.4204H95.9414C96.8402 37.4204 97.5384 37.1733 98.0361 36.6792C98.5374 36.1851 98.7881 35.4868 98.7881 34.5845C98.7881 32.7834 97.8553 31.8828 95.9897 31.8828H94.9209ZM107.699 38.5H106.297L105.604 36.5396H102.575L101.909 38.5H100.512L103.396 30.7979H104.836L107.699 38.5ZM105.266 35.4976L104.197 32.4253C104.165 32.325 104.131 32.1639 104.095 31.9419H104.073C104.041 32.146 104.005 32.3071 103.966 32.4253L102.908 35.4976H105.266ZM112.919 31.8828H110.707V38.5H109.428V31.8828H107.221V30.7979H112.919V31.8828ZM115.358 38.5H114.042V30.7979H115.358V38.5ZM120.434 38.6289C119.324 38.6289 118.434 38.269 117.764 37.5493C117.098 36.8296 116.765 35.8932 116.765 34.7402C116.765 33.5013 117.105 32.513 117.786 31.7754C118.466 31.0378 119.39 30.6689 120.557 30.6689C121.639 30.6689 122.509 31.027 123.167 31.7432C123.83 32.4593 124.161 33.3957 124.161 34.5522C124.161 35.8091 123.823 36.8027 123.146 37.5332C122.469 38.2637 121.565 38.6289 120.434 38.6289ZM120.493 31.7915C119.787 31.7915 119.213 32.0547 118.769 32.5811C118.328 33.1074 118.108 33.8003 118.108 34.6597C118.108 35.5155 118.323 36.2048 118.752 36.7275C119.182 37.2503 119.744 37.5117 120.439 37.5117C121.177 37.5117 121.758 37.2629 122.185 36.7651C122.611 36.2674 122.824 35.571 122.824 34.6758C122.824 33.7555 122.616 33.0448 122.201 32.5435C121.789 32.0422 121.22 31.7915 120.493 31.7915ZM132.105 38.5H130.708L127.029 32.8389C126.936 32.6956 126.859 32.547 126.798 32.3931H126.766C126.795 32.5578 126.809 32.9105 126.809 33.4512V38.5H125.574V30.7979H127.062L130.617 36.3247C130.768 36.5539 130.864 36.7114 130.907 36.7974H130.929C130.893 36.5933 130.875 36.2477 130.875 35.7607V30.7979H132.105V38.5Z" fill="white"/>
</g>
<defs>
<clipPath id="clip0_434_1457">
<rect width="134.396" height="50.8692" fill="white" transform="translate(0 0.565399)"/>
</clipPath>
</defs>
</svg>
