<svg width="51" height="52" viewBox="0 0 51 52" fill="none" xmlns="http://www.w3.org/2000/svg">
<path d="M1.86536 5.60603C1.70208 7.1843 2.39069 8.89562 0.8557 10.0561C-0.679052 11.2166 0.188959 14.4128 0.852915 16.7582C1.00942 17.3111 0.996783 17.8989 0.816584 18.4444L0.215319 20.2649C-0.0752422 21.1447 0.151659 22.1146 0.801366 22.7704C1.51857 23.4943 1.82616 25.5366 1.52967 26.5156C1.02117 28.1945 0.0845302 29.745 0.215319 32.167C0.894695 35.6847 1.60378 35.1333 0.945073 38.424C0.743077 39.4332 2.09174 41.0478 1.41757 43.6717C0.743439 46.2955 2.21849 47.6955 2.96362 48.5157C3.88028 49.5249 5.99115 50.4784 7.40399 49.9286C8.81683 49.3784 9.57812 52.001 11.7983 51.3212C13.5304 51.1263 14.9027 50.6951 16.2847 50.7359C17.3556 50.7674 18.4323 51.2409 19.6866 51.3212C20.9205 51.3999 22.995 51.2825 24.5269 50.3548C25.9841 49.4724 27.5395 49.3231 28.4788 49.3784C29.1739 49.4191 29.7496 49.9269 30.303 50.2991C31.1838 50.8917 32.3145 50.9268 33.2845 50.4994C34.7995 49.8321 36.7645 49.1862 38.0466 49.445C39.2689 49.692 40.2115 50.4994 41.2235 50.4994C42.2355 50.4994 42.4377 50.1667 43.4497 49.7582C44.1892 49.4595 45.6178 49.774 46.5919 48.9246C46.6573 48.8677 46.7061 48.7959 46.7614 48.7297C47.2095 48.194 49.0753 47.0125 49.0753 45.772C49.0753 44.4415 48.5783 43.6717 48.5783 42.6625C48.5783 41.6533 49.3857 40.6442 49.0753 39.1748C48.4451 37.2667 47.2491 33.7896 48.8621 32.1615C50.304 30.7061 50.6645 28.2196 50.214 27.1584C49.8882 26.501 49.4801 25.8458 49.2492 25.1467L48.7818 23.7314C48.5448 23.0134 48.5997 22.2298 48.9352 21.5529L49.6275 20.1551C49.9997 19.4044 50.0251 18.5265 49.6973 17.755C49.4406 17.1503 48.7216 16.1471 49.1027 15.474C49.1302 15.4249 49.16 15.376 49.1818 15.3239C50.3093 12.6232 49.2117 9.57516 48.5089 8.39309C47.9018 7.37181 49.2727 5.73105 48.5089 3.70826C47.9442 2.21214 44.2425 2.76186 43.002 2.90092C41.6982 3.04717 40.861 2.2544 40.0177 1.40339C39.124 0.501387 37.737 0.32902 36.6531 0.985306C34.4584 2.31443 32.5894 1.76072 30.2949 0.99124C25.771 -0.525953 24.7392 2.49858 21.9361 2.49858C20.5233 2.49858 18.9086 0.664066 17.0921 1.40339C15.2756 2.14271 15.514 2.14271 11.7983 1.11997C11.0096 0.902837 10.1649 1.0396 9.52766 1.55654C8.025 2.7757 6.9757 1.98286 4.39031 2.14271C3.54345 2.19506 1.95445 3.10276 1.86536 5.60603Z" fill="white"/>
<path d="M26.3354 26.9253C27.1044 26.1564 27.1044 24.9096 26.3354 24.1406C25.5665 23.3717 24.3197 23.3717 23.5507 24.1406C22.7818 24.9096 22.7818 26.1564 23.5507 26.9253C24.3197 27.6943 25.5665 27.6943 26.3354 26.9253Z" stroke="#A15236"/>
<path d="M19.9975 20.5912L23.2937 23.8875" stroke="#A15236"/>
<path d="M26.4213 27.0152L29.9756 30.5693" stroke="#A15236"/>
<path d="M29.8897 20.5061L26.5933 23.8023" stroke="#A15236"/>
<path d="M23.2118 27.1855L19.9156 30.4818" stroke="#A15236"/>
<path d="M19.9058 20.5015V24.1448C19.9063 24.8382 21.4679 25.1851 21.1208 23.4502" stroke="#A15236" stroke-linecap="round"/>
<path d="M19.907 20.5011H23.5501C24.2436 20.5017 24.5907 22.0631 22.8557 21.7162" stroke="#A15236" stroke-linecap="round"/>
<path d="M29.9219 30.5175H26.2784C25.5853 30.517 25.2382 28.9555 26.9731 29.3025" stroke="#A15236" stroke-linecap="round"/>
<path d="M29.9232 30.5172V26.874C29.9224 26.1805 28.361 25.8337 28.7081 27.5685" stroke="#A15236" stroke-linecap="round"/>
<path d="M29.9006 20.4885H26.2574C25.5639 20.4891 25.2172 22.0505 26.9518 21.7035" stroke="#A15236" stroke-linecap="round"/>
<path d="M29.9018 20.4889V24.1322C29.9014 24.8255 28.3396 25.1725 28.6868 23.4376" stroke="#A15236" stroke-linecap="round"/>
<path d="M19.8901 30.4983V26.855C19.8906 26.1616 21.4522 25.8147 21.1051 27.5496" stroke="#A15236" stroke-linecap="round"/>
<path d="M19.8912 30.4987H23.5343C24.2278 30.4981 24.5746 28.9366 22.84 29.2836" stroke="#A15236" stroke-linecap="round"/>
<path d="M30.1706 34.5152L28.3796 32.7244C28.2221 32.5668 27.9666 32.5668 27.8088 32.7244L25.6669 34.8665C25.5095 35.0239 25.5095 35.2794 25.6669 35.4373L28.7295 38.4995C28.887 38.6573 29.1429 38.6573 29.3003 38.4995L37.9526 29.8473C38.1104 29.6897 38.1104 29.4341 37.9526 29.2764L34.8904 26.2139C34.7325 26.0563 34.477 26.0563 34.3192 26.2139L32.1777 28.3558C32.0199 28.5134 32.0199 28.769 32.1777 28.9267L33.9684 30.7174" stroke="#A15236" stroke-linecap="round"/>
<path d="M15.9562 20.2994L17.747 22.0902C17.9047 22.2478 17.9047 22.5034 17.747 22.661L15.6052 24.8029C15.4476 24.9605 15.192 24.9605 15.0343 24.8029L11.9718 21.7404C11.8142 21.5827 11.8142 21.3271 11.9718 21.1695L20.6241 12.5172C20.7818 12.3595 21.0374 12.3595 21.195 12.5172L24.2576 15.5797C24.4151 15.7373 24.4151 15.9929 24.2576 16.1506L22.1158 18.2924C21.9579 18.45 21.7024 18.45 21.545 18.2924L19.754 16.5016" stroke="#A15236" stroke-linecap="round"/>
<path d="M15.9562 30.7161L17.747 28.9253C17.9047 28.7677 17.9047 28.5121 17.747 28.3545L15.6052 26.2126C15.4476 26.055 15.192 26.055 15.0343 26.2126L11.9718 29.2751C11.8142 29.4328 11.8142 29.6884 11.9718 29.846L20.6241 38.4983C20.7818 38.6561 21.0374 38.6561 21.195 38.4983L24.2576 35.436C24.4151 35.2782 24.4151 35.0227 24.2576 34.8648L22.1158 32.7231C21.9579 32.5655 21.7024 32.5655 21.545 32.7231L19.754 34.5139" stroke="#A15236" stroke-linecap="round"/>
<path d="M30.1706 16.5003L28.3796 18.2911C28.2221 18.4488 27.9666 18.4488 27.8088 18.2911L25.6669 16.1493C25.5095 15.9917 25.5095 15.7361 25.6669 15.5784L28.7295 12.5159C28.887 12.3583 29.1429 12.3583 29.3003 12.5159L37.9526 21.1682C38.1104 21.3259 38.1104 21.5815 37.9526 21.7391L34.8904 24.8016C34.7325 24.9593 34.477 24.9593 34.3192 24.8016L32.1777 22.6598C32.0199 22.5021 32.0199 22.2466 32.1777 22.0889L33.9684 20.2981" stroke="#A15236" stroke-linecap="round"/>
<path d="M14.063 14.6071V16.843" stroke="#A15236" stroke-linecap="round"/>
<path d="M14.0638 14.6071H16.2998" stroke="#A15236" stroke-linecap="round"/>
<path d="M11.5475 12.0917V19.3585" stroke="#A15236" stroke-linecap="round"/>
<path d="M11.5484 12.0924H18.8152" stroke="#A15236" stroke-linecap="round"/>
<path d="M35.8636 36.4084H33.6276" stroke="#A15236" stroke-linecap="round"/>
<path d="M35.8644 36.4085V34.1725" stroke="#A15236" stroke-linecap="round"/>
<path d="M38.3788 38.9229H31.1124" stroke="#A15236" stroke-linecap="round"/>
<path d="M38.3796 38.9237V31.6571" stroke="#A15236" stroke-linecap="round"/>
<path d="M35.862 14.604H33.626" stroke="#A15236" stroke-linecap="round"/>
<path d="M35.8596 14.6008V16.8368" stroke="#A15236" stroke-linecap="round"/>
<path d="M38.3772 12.0893H31.1108" stroke="#A15236" stroke-linecap="round"/>
<path d="M38.3752 12.0885V19.3553" stroke="#A15236" stroke-linecap="round"/>
<path d="M14.0615 36.4052V34.1693" stroke="#A15236" stroke-linecap="round"/>
<path d="M14.0591 36.402H16.295" stroke="#A15236" stroke-linecap="round"/>
<path d="M11.546 38.9205V31.6539" stroke="#A15236" stroke-linecap="round"/>
<path d="M11.5437 38.9201H18.8104" stroke="#A15236" stroke-linecap="round"/>
<path d="M29.9954 20.4769L28.8825 20.6216L29.8505 21.5898L29.9954 20.4769Z" fill="#A15236"/>
<path d="M19.9336 30.5371L20.0783 29.4241L21.0466 30.3923L19.9336 30.5371Z" fill="#A15236"/>
<path d="M29.9946 30.5402L29.8497 29.4273L28.8817 30.3955L29.9946 30.5402Z" fill="#A15236"/>
<path d="M19.9328 20.4769L21.0458 20.6216L20.0776 21.5898L19.9328 20.4769Z" fill="#A15236"/>
<path d="M25.5454 12.0085C25.239 12.5192 25.0545 12.9564 24.9774 13.1547C24.9633 13.1909 25.0036 13.2227 25.0363 13.2018C25.1687 13.1173 25.4214 12.9627 25.7427 12.799C26.2235 12.5541 27.7191 11.6132 27.3239 11.0203C26.9283 10.4274 25.9648 11.3098 25.5454 12.0085Z" fill="#A15236" stroke="#A15236" stroke-width="0.5" stroke-linecap="round"/>
<path d="M24.4135 12.0148C24.7199 12.5255 24.9043 12.9627 24.9818 13.161C24.9956 13.1972 24.9552 13.2291 24.9225 13.2081C24.7901 13.1236 24.5374 12.969 24.2161 12.8053C23.7353 12.5604 22.2397 11.6195 22.6349 11.0266C23.0305 10.4338 23.9945 11.3161 24.4135 12.0148Z" fill="#A15236" stroke="#A15236" stroke-width="0.5" stroke-linecap="round"/>
<path d="M24.9423 9.44356C25.3558 9.44356 25.691 9.77877 25.691 10.1923C25.691 10.6058 25.3558 10.941 24.9423 10.941C24.5288 10.941 24.1935 10.6058 24.1935 10.1923C24.1935 9.77877 24.5288 9.44356 24.9423 9.44356Z" fill="#A15236" stroke="#A15236" stroke-width="0.5"/>
<path d="M11.4928 26.0761C12.0035 25.7696 12.4407 25.5851 12.639 25.5079C12.6752 25.4939 12.707 25.5345 12.6861 25.5672C12.6016 25.6994 12.447 25.9521 12.2833 26.2735C12.0384 26.7542 11.0975 28.2499 10.5046 27.8545C9.91171 27.4591 10.7941 26.4953 11.4928 26.0761Z" fill="#A15236" stroke="#A15236" stroke-width="0.5" stroke-linecap="round"/>
<path d="M11.492 24.9363C12.0027 25.2428 12.4399 25.4273 12.6382 25.5045C12.6744 25.5186 12.7062 25.4779 12.6853 25.4452C12.6008 25.313 12.4462 25.0603 12.2825 24.7389C12.0376 24.2582 11.0967 22.7624 10.5038 23.1579C9.91094 23.5533 10.7932 24.5171 11.492 24.9363Z" fill="#A15236" stroke="#A15236" stroke-width="0.5" stroke-linecap="round"/>
<path d="M8.92391 25.4649C8.92391 25.8784 9.25911 26.2136 9.67262 26.2136C10.0861 26.2136 10.4213 25.8784 10.4213 25.4649C10.4213 25.0514 10.0861 24.7162 9.67262 24.7162C9.25911 24.7162 8.92391 25.0514 8.92391 25.4649Z" fill="#A15236" stroke="#A15236" stroke-width="0.5"/>
<path d="M38.4471 24.9111C37.9364 25.2175 37.4993 25.4021 37.3011 25.4792C37.2647 25.4933 37.2328 25.4527 37.2538 25.42C37.3382 25.2878 37.4928 25.035 37.6567 24.7137C37.9017 24.233 38.8427 22.7372 39.4353 23.1327C40.0282 23.5281 39.1458 24.4919 38.4471 24.9111Z" fill="#A15236" stroke="#A15236" stroke-width="0.5" stroke-linecap="round"/>
<path d="M38.4479 26.0508C37.9372 25.7444 37.5 25.5598 37.3018 25.4827C37.2655 25.4686 37.2336 25.5092 37.2546 25.542C37.339 25.6742 37.4936 25.9269 37.6575 26.2483C37.9025 26.7289 38.8431 28.2247 39.436 27.8293C40.029 27.4338 39.1466 26.47 38.4479 26.0508Z" fill="#A15236" stroke="#A15236" stroke-width="0.5" stroke-linecap="round"/>
<path d="M41.0192 25.5223C41.0192 25.1088 40.6839 24.7735 40.2704 24.7735C39.8569 24.7735 39.5217 25.1088 39.5217 25.5223C39.5217 25.9358 39.8569 26.271 40.2704 26.271C40.6839 26.271 41.0192 25.9358 41.0192 25.5223Z" fill="#A15236" stroke="#A15236" stroke-width="0.5"/>
<path d="M24.3953 38.9754C24.7017 38.4647 24.8866 38.0276 24.9637 37.8294C24.9774 37.793 24.9371 37.7612 24.9044 37.7821C24.772 37.8665 24.5193 38.0211 24.1979 38.185C23.7172 38.43 22.2216 39.3706 22.6168 39.9636C23.0124 40.5566 23.9763 39.6741 24.3953 38.9754Z" fill="#A15236" stroke="#A15236" stroke-width="0.5" stroke-linecap="round"/>
<path d="M25.5272 38.9693C25.2208 38.4583 25.0364 38.0211 24.9593 37.8229C24.9451 37.7866 24.9855 37.7551 25.0182 37.7757C25.1506 37.8605 25.4033 38.0151 25.7246 38.1786C26.2054 38.4236 27.701 39.3645 27.3058 39.9575C26.9102 40.5501 25.9466 39.6681 25.5272 38.9693Z" fill="#A15236" stroke="#A15236" stroke-width="0.5" stroke-linecap="round"/>
<path d="M25.0004 41.5374C24.5869 41.5374 24.2517 41.2022 24.2517 40.7887C24.2517 40.3752 24.5869 40.04 25.0004 40.04C25.4139 40.04 25.7491 40.3752 25.7491 40.7887C25.7491 41.2022 25.4139 41.5374 25.0004 41.5374Z" fill="#A15236" stroke="#A15236" stroke-width="0.5"/>
</svg>
