<svg width="73" height="32" viewBox="0 0 73 32" fill="none" xmlns="http://www.w3.org/2000/svg">
<path d="M8.948 8.01855H3.09448V9.4248C3.12378 9.4248 3.14722 9.43652 3.16479 9.45996C3.18237 9.4834 3.20288 9.49512 3.22632 9.49512C3.2146 9.49512 3.33472 9.45996 3.58667 9.38965C3.84448 9.31934 4.13745 9.25781 4.46558 9.20508C4.7937 9.14648 5.11011 9.11719 5.41479 9.11719C6.11792 9.11719 6.67163 9.21387 7.07593 9.40723C7.48022 9.60059 7.77026 9.87305 7.94604 10.2246C8.12769 10.5762 8.23608 10.9717 8.27124 11.4111C8.31226 11.8447 8.33276 12.4424 8.33276 13.2041V16.6758C8.0105 16.5469 7.72046 16.4209 7.46265 16.2979C7.20483 16.1689 7.02612 16.0752 6.92651 16.0166C6.92651 15.8232 6.89136 15.7031 6.82104 15.6562C6.62769 15.7676 6.41089 15.8906 6.17065 16.0254C5.93042 16.1543 5.61694 16.2686 5.23022 16.3682C4.84351 16.4678 4.38354 16.5176 3.85034 16.5176C3.34058 16.5176 2.84253 16.4238 2.3562 16.2363C1.86987 16.0488 1.47437 15.7822 1.16968 15.4365C0.87085 15.085 0.721436 14.6895 0.721436 14.25C0.721436 13.8398 0.911865 13.4121 1.29272 12.9668C1.67358 12.5156 2.18335 12.1436 2.82202 11.8506C3.46069 11.5518 4.15796 11.4023 4.91382 11.4023C5.32397 11.4023 5.71362 11.4639 6.08276 11.5869C6.4519 11.7041 6.73315 11.8359 6.92651 11.9824V11.1738C6.698 10.8691 6.46948 10.6582 6.24097 10.541C6.01245 10.4238 5.66089 10.3652 5.18628 10.3652C4.57104 10.3887 4.08472 10.4414 3.72729 10.5234C3.37573 10.5996 2.99487 10.7227 2.58472 10.8926C2.18042 11.0566 1.84058 11.1855 1.56519 11.2793V10.6289C1.6062 10.5938 1.66479 10.5439 1.74097 10.4795C1.81714 10.415 1.86694 10.3682 1.89038 10.3389C1.91968 10.3096 1.93726 10.292 1.94312 10.2861V8.01855H0.141357V6.96387H8.948V8.01855ZM6.92651 13.582C6.92651 13.3125 6.62476 13.0869 6.02124 12.9053C5.41772 12.7236 4.98999 12.6328 4.73804 12.6328C4.09937 12.6328 3.51636 12.7676 2.98901 13.0371C2.46753 13.3066 2.05737 13.6201 1.75854 13.9775C1.45972 14.3291 1.3103 14.6191 1.3103 14.8477C1.39233 15.0938 1.57397 15.2637 1.85522 15.3574C2.14233 15.4453 2.44702 15.4893 2.76929 15.4893C3.36694 15.4893 3.92065 15.4102 4.43042 15.252C4.94604 15.0938 5.39136 14.9004 5.76636 14.6719C6.14136 14.4375 6.42847 14.2148 6.62769 14.0039C6.8269 13.793 6.92651 13.6523 6.92651 13.582ZM20.1189 6.96387L20.1013 8.01855H19.2048V9.69727C19.2048 9.71484 18.9558 10.1631 18.4578 11.042C17.9656 11.915 17.3943 12.9229 16.7439 14.0654C16.0935 15.2021 15.6277 16.0195 15.3464 16.5176C15.1531 16.5176 14.863 16.4121 14.4763 16.2012C14.0955 15.9844 13.7029 15.6797 13.2986 15.2871C12.8943 14.8887 12.5603 14.4346 12.2966 13.9248C12.0388 13.4092 11.9099 12.8584 11.9099 12.2725C11.9099 11.8916 11.9597 11.5898 12.0593 11.3672C12.1589 11.1445 12.2908 10.9248 12.4548 10.708C12.6189 10.4854 12.7009 10.3154 12.7009 10.1982C12.7009 9.99316 12.5281 9.89062 12.1824 9.89062C11.9656 9.89062 11.7781 9.94629 11.6199 10.0576C11.4675 10.1689 11.2156 10.4268 10.864 10.8311L9.73022 9.80273C9.94702 9.62109 10.1462 9.4834 10.3279 9.38965C10.5154 9.2959 10.6912 9.23438 10.8552 9.20508C11.0251 9.16992 11.2625 9.14648 11.5671 9.13477C12.5105 9.13477 13.1433 9.375 13.4656 9.85547C13.7878 10.3301 13.949 10.9365 13.949 11.6748C13.949 11.7334 13.9226 12.0029 13.8699 12.4834C13.823 12.958 13.7996 13.374 13.7996 13.7314C13.7996 14.6572 13.9607 15.1611 14.283 15.2432C14.4587 15.2432 14.6755 15.0205 14.9333 14.5752L17.614 9.73242V8.01855H8.71069V6.96387H20.1189ZM28.6003 8.01855H22.7468V9.4248C22.7761 9.4248 22.7996 9.43652 22.8171 9.45996C22.8347 9.4834 22.8552 9.49512 22.8787 9.49512C22.8669 9.49512 22.9871 9.45996 23.239 9.38965C23.4968 9.31934 23.7898 9.25781 24.1179 9.20508C24.446 9.14648 24.7625 9.11719 25.0671 9.11719C25.7703 9.11719 26.324 9.21387 26.7283 9.40723C27.1326 9.60059 27.4226 9.87305 27.5984 10.2246C27.78 10.5762 27.8884 10.9717 27.9236 11.4111C27.9646 11.8447 27.9851 12.4424 27.9851 13.2041V16.6758C27.6628 16.5469 27.3728 16.4209 27.115 16.2979C26.8572 16.1689 26.6785 16.0752 26.5789 16.0166C26.5789 15.8232 26.5437 15.7031 26.4734 15.6562C26.28 15.7676 26.0632 15.8906 25.823 16.0254C25.5828 16.1543 25.2693 16.2686 24.8826 16.3682C24.4958 16.4678 24.0359 16.5176 23.5027 16.5176C22.9929 16.5176 22.4949 16.4238 22.0085 16.2363C21.5222 16.0488 21.1267 15.7822 20.822 15.4365C20.5232 15.085 20.3738 14.6895 20.3738 14.25C20.3738 13.8398 20.5642 13.4121 20.9451 12.9668C21.3259 12.5156 21.8357 12.1436 22.4744 11.8506C23.113 11.5518 23.8103 11.4023 24.5662 11.4023C24.9763 11.4023 25.366 11.4639 25.7351 11.5869C26.1042 11.7041 26.3855 11.8359 26.5789 11.9824V11.1738C26.3503 10.8691 26.1218 10.6582 25.8933 10.541C25.6648 10.4238 25.3132 10.3652 24.8386 10.3652C24.2234 10.3887 23.7371 10.4414 23.3796 10.5234C23.0281 10.5996 22.6472 10.7227 22.2371 10.8926C21.8328 11.0566 21.4929 11.1855 21.2175 11.2793V10.6289C21.2585 10.5938 21.3171 10.5439 21.3933 10.4795C21.4695 10.415 21.5193 10.3682 21.5427 10.3389C21.572 10.3096 21.5896 10.292 21.5955 10.2861V8.01855H19.7937V6.96387H28.6003V8.01855ZM26.5789 13.582C26.5789 13.3125 26.2771 13.0869 25.6736 12.9053C25.0701 12.7236 24.6423 12.6328 24.3904 12.6328C23.7517 12.6328 23.1687 12.7676 22.6414 13.0371C22.1199 13.3066 21.7097 13.6201 21.4109 13.9775C21.1121 14.3291 20.9626 14.6191 20.9626 14.8477C21.0447 15.0938 21.2263 15.2637 21.5076 15.3574C21.7947 15.4453 22.0994 15.4893 22.4216 15.4893C23.0193 15.4893 23.573 15.4102 24.0828 15.252C24.5984 15.0938 25.0437 14.9004 25.4187 14.6719C25.7937 14.4375 26.0808 14.2148 26.28 14.0039C26.4792 13.793 26.5789 13.6523 26.5789 13.582ZM32.3884 8.01855H31.4568V6.96387H32.3884V8.01855ZM29.3826 8.01855H28.3806V6.96387H29.3826V8.01855ZM31.1667 5.90039V16.7197C31.1433 16.7197 31.0642 16.6846 30.9294 16.6143C30.8005 16.5498 30.6511 16.4736 30.4812 16.3857C30.3113 16.2979 30.1355 16.21 29.9539 16.1221C29.7722 16.0283 29.6726 15.9814 29.655 15.9814V5.91797C29.6257 5.2207 29.5056 4.56738 29.2947 3.95801C29.0837 3.34863 28.8464 2.8418 28.5828 2.4375C28.325 2.0332 28.0466 1.66113 27.7478 1.32129C27.4431 0.981445 27.2556 0.773438 27.1853 0.697266H29.0574C29.5554 1.19531 29.9656 1.7666 30.2878 2.41113C30.6101 3.0498 30.8357 3.67383 30.9646 4.2832C31.0994 4.88672 31.1667 5.42578 31.1667 5.90039ZM40.7996 8.01855H34.946V9.4248C34.9753 9.4248 34.9988 9.43652 35.0164 9.45996C35.0339 9.4834 35.0544 9.49512 35.0779 9.49512C35.0662 9.49512 35.1863 9.45996 35.4382 9.38965C35.696 9.31934 35.989 9.25781 36.3171 9.20508C36.6453 9.14648 36.9617 9.11719 37.2664 9.11719C37.9695 9.11719 38.5232 9.21387 38.9275 9.40723C39.3318 9.60059 39.6218 9.87305 39.7976 10.2246C39.9792 10.5762 40.0876 10.9717 40.1228 11.4111C40.1638 11.8447 40.1843 12.4424 40.1843 13.2041V16.6758C39.8621 16.5469 39.572 16.4209 39.3142 16.2979C39.0564 16.1689 38.8777 16.0752 38.7781 16.0166C38.7781 15.8232 38.7429 15.7031 38.6726 15.6562C38.4792 15.7676 38.2625 15.8906 38.0222 16.0254C37.782 16.1543 37.4685 16.2686 37.0818 16.3682C36.6951 16.4678 36.2351 16.5176 35.7019 16.5176C35.1921 16.5176 34.6941 16.4238 34.2078 16.2363C33.7214 16.0488 33.3259 15.7822 33.0212 15.4365C32.7224 15.085 32.573 14.6895 32.573 14.25C32.573 13.8398 32.7634 13.4121 33.1443 12.9668C33.5251 12.5156 34.0349 12.1436 34.6736 11.8506C35.3123 11.5518 36.0095 11.4023 36.7654 11.4023C37.1755 11.4023 37.5652 11.4639 37.9343 11.5869C38.3035 11.7041 38.5847 11.8359 38.7781 11.9824V11.1738C38.5496 10.8691 38.321 10.6582 38.0925 10.541C37.864 10.4238 37.5125 10.3652 37.0378 10.3652C36.4226 10.3887 35.9363 10.4414 35.5789 10.5234C35.2273 10.5996 34.8464 10.7227 34.4363 10.8926C34.032 11.0566 33.6921 11.1855 33.4167 11.2793V10.6289C33.4578 10.5938 33.5164 10.5439 33.5925 10.4795C33.6687 10.415 33.7185 10.3682 33.7419 10.3389C33.7712 10.3096 33.7888 10.292 33.7947 10.2861V8.01855H31.9929V6.96387H40.7996V8.01855ZM38.7781 13.582C38.7781 13.3125 38.4763 13.0869 37.8728 12.9053C37.2693 12.7236 36.8416 12.6328 36.5896 12.6328C35.9509 12.6328 35.3679 12.7676 34.8406 13.0371C34.3191 13.3066 33.9089 13.6201 33.6101 13.9775C33.3113 14.3291 33.1619 14.6191 33.1619 14.8477C33.2439 15.0938 33.4255 15.2637 33.7068 15.3574C33.9939 15.4453 34.2986 15.4893 34.6208 15.4893C35.2185 15.4893 35.7722 15.4102 36.282 15.252C36.7976 15.0938 37.2429 14.9004 37.6179 14.6719C37.9929 14.4375 38.28 14.2148 38.4792 14.0039C38.6785 13.793 38.7781 13.6523 38.7781 13.582ZM54.0974 8.01855H51.197L51.2146 9.24902C51.9939 9.53613 52.5652 9.91699 52.9285 10.3916C53.2976 10.8604 53.4822 11.5283 53.4822 12.3955C53.4822 13.0459 53.3357 13.6406 53.0427 14.1797C52.7556 14.7188 52.4158 15.1641 52.0232 15.5156C51.6365 15.8613 51.2673 16.1367 50.9158 16.3418C50.5642 16.541 50.365 16.6406 50.3181 16.6406C50.2302 16.6406 49.9871 16.4473 49.5886 16.0605C49.196 15.6738 48.8738 15.3516 48.6218 15.0938C49.1726 15.0645 49.7849 14.8828 50.4587 14.5488C51.1326 14.2148 51.7097 13.7842 52.1902 13.2568C52.6707 12.7236 52.9109 12.1611 52.9109 11.5693C52.9109 11.2646 52.8201 11.0127 52.6384 10.8135C52.4568 10.6084 52.2195 10.4561 51.9265 10.3564C51.6394 10.251 51.3289 10.1982 50.9949 10.1982C49.9812 10.2568 49.1931 10.585 48.6306 11.1826C48.074 11.7744 47.699 12.5508 47.5056 13.5117C47.4646 13.5 47.2214 13.4033 46.7761 13.2217C46.3308 13.0342 45.9734 12.8848 45.7039 12.7734C45.7039 12.4863 45.7595 12.1992 45.8708 11.9121C45.988 11.625 46.1199 11.3613 46.2664 11.1211C46.4187 10.8809 46.4949 10.7549 46.4949 10.7432C46.4949 10.585 46.3513 10.4766 46.0642 10.418C45.7771 10.3594 45.5251 10.3301 45.3083 10.3301C44.8279 10.3301 44.3738 10.4561 43.946 10.708C43.5242 10.96 43.1902 11.2822 42.9441 11.6748C42.698 12.0615 42.575 12.4512 42.575 12.8438C42.575 13.2832 42.6951 13.708 42.9353 14.1182C43.1755 14.5283 43.4333 14.8828 43.7087 15.1816C43.9841 15.4746 44.324 15.8027 44.7283 16.166C45.1384 16.5234 45.3552 16.7314 45.3787 16.79C45.0037 16.6611 44.5613 16.4707 44.0515 16.2188C43.5476 15.9668 43.0437 15.6504 42.5398 15.2695C42.0359 14.8828 41.6169 14.4463 41.283 13.96C40.9548 13.4736 40.7908 12.9521 40.7908 12.3955C40.7908 11.7568 40.9724 11.1885 41.3357 10.6904C41.699 10.1865 42.1648 9.79688 42.7332 9.52148C43.3074 9.24023 43.8962 9.09961 44.4998 9.09961C44.9802 9.09961 45.408 9.16992 45.783 9.31055C46.158 9.44531 46.5007 9.60645 46.8113 9.79395C47.1277 9.98145 47.3005 10.0752 47.3298 10.0752C47.3357 10.0752 47.4968 10.002 47.8132 9.85547C48.1296 9.70898 48.4548 9.57422 48.7888 9.45117C49.1287 9.32812 49.4158 9.24902 49.6501 9.21387L49.6677 8.01855H40.5271V6.96387H54.0974V8.01855ZM63.6248 8.01855H56.9451V11.2969C57.0623 11.1504 57.2644 10.9277 57.5515 10.6289C57.8445 10.3301 58.2195 10.0312 58.6765 9.73242C59.1394 9.43359 59.5994 9.28418 60.0564 9.28418C60.531 9.28418 60.9675 9.38379 61.366 9.58301C61.7644 9.77637 62.1042 10.0342 62.3855 10.3564C62.6726 10.6729 62.8894 11.0186 63.0359 11.3936C63.1882 11.7686 63.2644 12.126 63.2644 12.4658C63.2644 12.9697 63.1326 13.4678 62.8689 13.96C62.6052 14.4463 62.2654 14.8799 61.8494 15.2607C61.4392 15.6357 61.0085 15.9375 60.5574 16.166C60.1121 16.3887 59.7283 16.5 59.406 16.5C59.0017 16.5 58.6355 16.3799 58.3074 16.1396C57.9851 15.8936 57.5076 15.4482 56.8748 14.8037V16.6055L55.3455 15.9463V8.01855H53.9041V6.96387H55.3455C55.3455 6.20801 55.2283 5.47266 54.9939 4.75781C54.7654 4.03711 54.4929 3.4043 54.1765 2.85938C53.8601 2.31445 53.5349 1.83105 53.2009 1.40918C52.8611 0.987305 52.5974 0.694336 52.4099 0.530273H54.3347C54.5632 0.723633 54.7976 0.952148 55.0378 1.21582C55.2781 1.47363 55.5505 1.86914 55.8552 2.40234C56.1599 2.93555 56.4177 3.58301 56.6287 4.34473C56.8396 5.10645 56.9451 5.97949 56.9451 6.96387H63.6248V8.01855ZM62.2888 13.3711C62.2888 13.1309 62.2068 12.8525 62.0427 12.5361C61.8845 12.2139 61.6619 11.9033 61.3748 11.6045C61.0876 11.3057 60.7361 11.0537 60.3201 10.8486C59.9099 10.6436 59.4734 10.541 59.0105 10.541C58.7292 10.541 58.4421 10.626 58.1492 10.7959C57.8621 10.9658 57.6218 11.1621 57.4285 11.3848C57.2351 11.6016 57.1384 11.7656 57.1384 11.877C57.1384 12.2812 57.3142 12.7822 57.6658 13.3799C58.0232 13.9717 58.4744 14.4873 59.0193 14.9268C59.5642 15.3662 60.0974 15.5859 60.6189 15.5859C60.9177 15.5859 61.1931 15.4746 61.4451 15.252C61.7029 15.0293 61.908 14.7451 62.0603 14.3994C62.2126 14.0537 62.2888 13.7109 62.2888 13.3711ZM72.1062 8.01855H66.2527V9.4248C66.282 9.4248 66.3054 9.43652 66.323 9.45996C66.3406 9.4834 66.3611 9.49512 66.3845 9.49512C66.3728 9.49512 66.4929 9.45996 66.7449 9.38965C67.0027 9.31934 67.2957 9.25781 67.6238 9.20508C67.9519 9.14648 68.2683 9.11719 68.573 9.11719C69.2761 9.11719 69.8298 9.21387 70.2341 9.40723C70.6384 9.60059 70.9285 9.87305 71.1042 10.2246C71.2859 10.5762 71.3943 10.9717 71.4294 11.4111C71.4705 11.8447 71.491 12.4424 71.491 13.2041V16.6758C71.1687 16.5469 70.8787 16.4209 70.6208 16.2979C70.363 16.1689 70.1843 16.0752 70.0847 16.0166C70.0847 15.8232 70.0496 15.7031 69.9792 15.6562C69.7859 15.7676 69.5691 15.8906 69.3289 16.0254C69.0886 16.1543 68.7751 16.2686 68.3884 16.3682C68.0017 16.4678 67.5417 16.5176 67.0085 16.5176C66.4988 16.5176 66.0007 16.4238 65.5144 16.2363C65.0281 16.0488 64.6326 15.7822 64.3279 15.4365C64.0291 15.085 63.8796 14.6895 63.8796 14.25C63.8796 13.8398 64.0701 13.4121 64.4509 12.9668C64.8318 12.5156 65.3416 12.1436 65.9802 11.8506C66.6189 11.5518 67.3162 11.4023 68.072 11.4023C68.4822 11.4023 68.8718 11.4639 69.241 11.5869C69.6101 11.7041 69.8914 11.8359 70.0847 11.9824V11.1738C69.8562 10.8691 69.6277 10.6582 69.3992 10.541C69.1707 10.4238 68.8191 10.3652 68.3445 10.3652C67.7292 10.3887 67.2429 10.4414 66.8855 10.5234C66.5339 10.5996 66.1531 10.7227 65.7429 10.8926C65.3386 11.0566 64.9988 11.1855 64.7234 11.2793V10.6289C64.7644 10.5938 64.823 10.5439 64.8992 10.4795C64.9753 10.415 65.0251 10.3682 65.0486 10.3389C65.0779 10.3096 65.0955 10.292 65.1013 10.2861V8.01855H63.2996V6.96387H72.1062V8.01855ZM70.0847 13.582C70.0847 13.3125 69.783 13.0869 69.1794 12.9053C68.5759 12.7236 68.1482 12.6328 67.8962 12.6328C67.2576 12.6328 66.6746 12.7676 66.1472 13.0371C65.6257 13.3066 65.2156 13.6201 64.9167 13.9775C64.6179 14.3291 64.4685 14.6191 64.4685 14.8477C64.5505 15.0938 64.7322 15.2637 65.0134 15.3574C65.3005 15.4453 65.6052 15.4893 65.9275 15.4893C66.5251 15.4893 67.0789 15.4102 67.5886 15.252C68.1042 15.0938 68.5496 14.9004 68.9246 14.6719C69.2996 14.4375 69.5867 14.2148 69.7859 14.0039C69.9851 13.793 70.0847 13.6523 70.0847 13.582Z" fill="white"/>
<path d="M5.78076 21.8828H2.90186V24.1978H5.55518V25.2773H2.90186V28.5H1.62354V20.7979H5.78076V21.8828ZM10.3301 28.6289C9.22005 28.6289 8.33024 28.269 7.66064 27.5493C6.99463 26.8296 6.66162 25.8932 6.66162 24.7402C6.66162 23.5013 7.00179 22.513 7.68213 21.7754C8.36247 21.0378 9.2863 20.6689 10.4536 20.6689C11.535 20.6689 12.4051 21.027 13.064 21.7432C13.7264 22.4593 14.0576 23.3957 14.0576 24.5522C14.0576 25.8091 13.7192 26.8027 13.0425 27.5332C12.3657 28.2637 11.4616 28.6289 10.3301 28.6289ZM10.3892 21.7915C9.68376 21.7915 9.10905 22.0547 8.66504 22.5811C8.22461 23.1074 8.00439 23.8003 8.00439 24.6597C8.00439 25.5155 8.21924 26.2048 8.64893 26.7275C9.07861 27.2503 9.64079 27.5117 10.3354 27.5117C11.0731 27.5117 11.6549 27.2629 12.0811 26.7651C12.5072 26.2674 12.7202 25.571 12.7202 24.6758C12.7202 23.7555 12.5125 23.0448 12.0972 22.5435C11.6854 22.0422 11.116 21.7915 10.3892 21.7915ZM21.3945 25.3848C21.3945 27.5475 20.3704 28.6289 18.3223 28.6289C16.36 28.6289 15.3789 27.5887 15.3789 25.5083V20.7979H16.6572V25.2451C16.6572 26.7562 17.2445 27.5117 18.4189 27.5117C19.5505 27.5117 20.1162 26.783 20.1162 25.3257V20.7979H21.3945V25.3848ZM29.7358 28.5H28.3394L24.6602 22.8389C24.5671 22.6956 24.4901 22.547 24.4292 22.3931H24.397C24.4256 22.5578 24.4399 22.9105 24.4399 23.4512V28.5H23.2046V20.7979H24.6924L28.248 26.3247C28.3984 26.5539 28.4951 26.7114 28.5381 26.7974H28.5596C28.5238 26.5933 28.5059 26.2477 28.5059 25.7607V20.7979H29.7358V28.5ZM31.6479 28.5V20.7979H33.8716C36.7111 20.7979 38.1309 22.0493 38.1309 24.5522C38.1309 25.741 37.737 26.6971 36.9492 27.4204C36.1615 28.1401 35.1051 28.5 33.7803 28.5H31.6479ZM32.9209 21.8828V27.4204H33.9414C34.8402 27.4204 35.5384 27.1733 36.0361 26.6792C36.5374 26.1851 36.7881 25.4868 36.7881 24.5845C36.7881 22.7834 35.8553 21.8828 33.9897 21.8828H32.9209ZM45.6987 28.5H44.2969L43.604 26.5396H40.5747L39.9087 28.5H38.5122L41.3965 20.7979H42.8359L45.6987 28.5ZM43.2656 25.4976L42.1968 22.4253C42.1646 22.325 42.1305 22.1639 42.0947 21.9419H42.0732C42.041 22.146 42.0052 22.3071 41.9658 22.4253L40.9077 25.4976H43.2656ZM50.9194 21.8828H48.7065V28.5H47.4282V21.8828H45.2207V20.7979H50.9194V21.8828ZM53.3579 28.5H52.042V20.7979H53.3579V28.5ZM58.4336 28.6289C57.3236 28.6289 56.4338 28.269 55.7642 27.5493C55.0981 26.8296 54.7651 25.8932 54.7651 24.7402C54.7651 23.5013 55.1053 22.513 55.7856 21.7754C56.466 21.0378 57.3898 20.6689 58.5571 20.6689C59.6385 20.6689 60.5086 21.027 61.1675 21.7432C61.8299 22.4593 62.1611 23.3957 62.1611 24.5522C62.1611 25.8091 61.8228 26.8027 61.146 27.5332C60.4692 28.2637 59.5651 28.6289 58.4336 28.6289ZM58.4927 21.7915C57.7873 21.7915 57.2126 22.0547 56.7686 22.5811C56.3281 23.1074 56.1079 23.8003 56.1079 24.6597C56.1079 25.5155 56.3228 26.2048 56.7524 26.7275C57.1821 27.2503 57.7443 27.5117 58.439 27.5117C59.1766 27.5117 59.7585 27.2629 60.1846 26.7651C60.6107 26.2674 60.8237 25.571 60.8237 24.6758C60.8237 23.7555 60.616 23.0448 60.2007 22.5435C59.7889 22.0422 59.2196 21.7915 58.4927 21.7915ZM70.105 28.5H68.7085L65.0293 22.8389C64.9362 22.6956 64.8592 22.547 64.7983 22.3931H64.7661C64.7948 22.5578 64.8091 22.9105 64.8091 23.4512V28.5H63.5737V20.7979H65.0615L68.6172 26.3247C68.7676 26.5539 68.8643 26.7114 68.9072 26.7974H68.9287C68.8929 26.5933 68.875 26.2477 68.875 25.7607V20.7979H70.105V28.5Z" fill="white"/>
</svg>
