<svg width="155" height="50" viewBox="0 0 155 50" fill="none" xmlns="http://www.w3.org/2000/svg">
<g clip-path="url(#clip0_1369_870)">
<path d="M1.83351 4.9545C1.67302 6.5058 2.34988 8.18788 0.841091 9.32852C-0.667458 10.4692 0.185733 13.6108 0.838353 15.9161C0.992184 16.4595 0.979765 17.0373 0.802643 17.5735L0.211643 19.3629C-0.0739576 20.2276 0.14907 21.181 0.787684 21.8256C1.49264 22.5371 1.79499 24.5445 1.50355 25.5068C1.00373 27.1569 0.0830871 28.681 0.211643 31.0616C0.87942 34.5192 1.5764 33.9772 0.928938 37.2117C0.730391 38.2036 2.05602 39.7907 1.39337 42.3697C0.730747 44.9487 2.18061 46.3247 2.91303 47.131C3.81403 48.1229 5.88886 49.0601 7.27758 48.5197C8.66631 47.9789 9.41459 50.5567 11.5969 49.8885C13.2994 49.6969 14.6483 49.2731 16.0067 49.3132C17.0593 49.3442 18.1176 49.8096 19.3505 49.8885C20.5633 49.9659 22.6024 49.8504 24.1081 48.9387C25.5405 48.0713 27.0693 47.9245 27.9926 47.9789C28.6759 48.0189 29.2417 48.5181 29.7856 48.8839C30.6514 49.4664 31.7628 49.5009 32.7162 49.0807C34.2054 48.4248 36.1369 47.79 37.397 48.0443C38.5985 48.2872 39.525 49.0807 40.5197 49.0807C41.5144 49.0807 41.7132 48.7538 42.7079 48.3522C43.4348 48.0586 44.839 48.3677 45.7964 47.5329C45.8607 47.477 45.9087 47.4063 45.9631 47.3413C46.4035 46.8147 48.2374 45.6534 48.2374 44.4341C48.2374 43.1263 47.749 42.3697 47.749 41.3778C47.749 40.3858 48.5425 39.3939 48.2374 37.9497C47.618 36.0741 46.4424 32.6564 48.0279 31.0562C49.4452 29.6256 49.7995 27.1817 49.3567 26.1386C49.0365 25.4925 48.6354 24.8484 48.4084 24.1612L47.9489 22.7701C47.716 22.0645 47.77 21.2942 48.0997 20.6289L48.7802 19.255C49.146 18.5171 49.171 17.6542 48.8488 16.8959C48.5965 16.3015 47.8898 15.3154 48.2644 14.6539C48.2914 14.6055 48.3207 14.5575 48.3421 14.5063C49.4504 11.8517 48.3715 8.8558 47.6807 7.69393C47.084 6.6901 48.4314 5.07738 47.6807 3.08916C47.1256 1.6186 43.4872 2.15893 42.2679 2.29561C40.9863 2.43936 40.1634 1.66014 39.3345 0.823668C38.456 -0.0629186 37.0927 -0.23234 36.0274 0.412732C33.8701 1.71914 32.033 1.17489 29.7777 0.418564C25.331 -1.0727 24.3169 1.90015 21.5616 1.90015C20.1729 1.90015 18.5858 0.0969805 16.8003 0.823668C15.0148 1.55036 15.2491 1.55036 11.5969 0.545095C10.8216 0.331672 9.99131 0.466098 9.36499 0.974204C7.88799 2.17253 6.8566 1.39323 4.31536 1.55036C3.48296 1.60182 1.92108 2.494 1.83351 4.9545Z" fill="#A15236"/>
<path d="M25.885 25.9096C26.6409 25.1537 26.6409 23.9283 25.885 23.1725C25.1292 22.4166 23.9037 22.4166 23.1479 23.1725C22.392 23.9283 22.392 25.1537 23.1479 25.9096C23.9037 26.6654 25.1292 26.6654 25.885 25.9096Z" stroke="white" stroke-width="0.98292"/>
<path d="M19.6582 19.6841L22.8982 22.924" stroke="white" stroke-width="0.98292"/>
<path d="M25.9688 25.9973L29.4624 29.4907" stroke="white" stroke-width="0.98292"/>
<path d="M29.3788 19.6001L26.1387 22.84" stroke="white" stroke-width="0.98292"/>
<path d="M22.8161 26.1655L19.5762 29.4055" stroke="white" stroke-width="0.98292"/>
<path d="M19.5684 19.5959V23.177C19.5689 23.8585 21.1038 24.1995 20.7627 22.4942" stroke="white" stroke-width="0.98292" stroke-linecap="round"/>
<path d="M19.5693 19.5947H23.1502C23.8319 19.5953 24.1731 21.13 22.4678 20.789" stroke="white" stroke-width="0.98292" stroke-linecap="round"/>
<path d="M29.413 29.4405H25.8317C25.1504 29.44 24.8092 27.9052 26.5145 28.2462" stroke="white" stroke-width="0.98292" stroke-linecap="round"/>
<path d="M29.4127 29.4401V25.8591C29.412 25.1776 27.8772 24.8366 28.2184 26.5418" stroke="white" stroke-width="0.98292" stroke-linecap="round"/>
<path d="M29.3884 19.5825H25.8074C25.1258 19.5831 24.7849 21.1179 26.4899 20.7768" stroke="white" stroke-width="0.98292" stroke-linecap="round"/>
<path d="M29.3932 19.583V23.164C29.3928 23.8455 27.8577 24.1865 28.1989 22.4813" stroke="white" stroke-width="0.98292" stroke-linecap="round"/>
<path d="M19.5498 29.4213V25.8403C19.5504 25.1588 21.0853 24.8178 20.7441 26.523" stroke="white" stroke-width="0.98292" stroke-linecap="round"/>
<path d="M19.5508 29.4224H23.1317C23.8133 29.4219 24.1542 27.8871 22.4492 28.2282" stroke="white" stroke-width="0.98292" stroke-linecap="round"/>
<path d="M29.6562 33.3706L27.8957 31.6104C27.7409 31.4555 27.4898 31.4555 27.3346 31.6104L25.2293 33.7159C25.0746 33.8706 25.0746 34.1218 25.2293 34.2769L28.2397 37.2868C28.3944 37.442 28.646 37.442 28.8007 37.2868L37.3053 28.7825C37.4604 28.6275 37.4604 28.3763 37.3053 28.2214L34.2953 25.2112C34.1402 25.0562 33.889 25.0562 33.7339 25.2112L31.629 27.3164C31.4738 27.4714 31.4738 27.7226 31.629 27.8776L33.3891 29.6377" stroke="white" stroke-width="0.98292" stroke-linecap="round"/>
<path d="M15.6849 19.3968L17.4452 21.157C17.6001 21.3119 17.6001 21.5631 17.4452 21.7181L15.3399 23.8233C15.185 23.9783 14.9337 23.9783 14.7788 23.8233L11.7686 20.8132C11.6136 20.6582 11.6136 20.407 11.7686 20.252L20.2732 11.7476C20.4281 11.5926 20.6794 11.5926 20.8343 11.7476L23.8446 14.7577C23.9994 14.9127 23.9994 15.1639 23.8446 15.3189L21.7393 17.4241C21.5842 17.579 21.333 17.579 21.1783 17.4241L19.4179 15.6639" stroke="white" stroke-width="0.98292" stroke-linecap="round"/>
<path d="M15.6849 29.6358L17.4452 27.8756C17.6001 27.7207 17.6001 27.4694 17.4452 27.3145L15.3399 25.2093C15.185 25.0543 14.9337 25.0543 14.7788 25.2093L11.7686 28.2194C11.6136 28.3744 11.6136 28.6256 11.7686 28.7806L20.2732 37.2849C20.4281 37.4401 20.6794 37.4401 20.8343 37.2849L23.8446 34.275C23.9994 34.1199 23.9994 33.8687 23.8446 33.7136L21.7393 31.6085C21.5842 31.4535 21.333 31.4535 21.1783 31.6085L19.4179 33.3687" stroke="white" stroke-width="0.98292" stroke-linecap="round"/>
<path d="M29.6562 15.6634L27.8957 17.4236C27.7409 17.5785 27.4898 17.5785 27.3346 17.4236L25.2293 15.3184C25.0746 15.1634 25.0746 14.9122 25.2293 14.7573L28.2397 11.7471C28.3944 11.5921 28.646 11.5921 28.8007 11.7471L37.3053 20.2516C37.4604 20.4065 37.4604 20.6577 37.3053 20.8127L34.2953 23.8229C34.1402 23.9778 33.889 23.9778 33.7339 23.8229L31.629 21.7176C31.4738 21.5626 31.4738 21.3114 31.629 21.1565L33.3891 19.3963" stroke="white" stroke-width="0.98292" stroke-linecap="round"/>
<path d="M13.8223 13.8018V15.9995" stroke="white" stroke-width="0.98292" stroke-linecap="round"/>
<path d="M13.8223 13.8018H16.02" stroke="white" stroke-width="0.98292" stroke-linecap="round"/>
<path d="M11.3486 11.3293V18.472" stroke="white" stroke-width="0.98292" stroke-linecap="round"/>
<path d="M11.3564 11.3303H18.4992" stroke="white" stroke-width="0.98292" stroke-linecap="round"/>
<path d="M35.2505 35.2307H33.0527" stroke="white" stroke-width="0.98292" stroke-linecap="round"/>
<path d="M35.252 35.2305V33.0327" stroke="white" stroke-width="0.98292" stroke-linecap="round"/>
<path d="M37.7244 37.7026H30.582" stroke="white" stroke-width="0.98292" stroke-linecap="round"/>
<path d="M37.7256 37.703V30.5605" stroke="white" stroke-width="0.98292" stroke-linecap="round"/>
<path d="M35.2495 13.7988H33.0518" stroke="white" stroke-width="0.98292" stroke-linecap="round"/>
<path d="M35.248 13.7954V15.9931" stroke="white" stroke-width="0.98292" stroke-linecap="round"/>
<path d="M37.7196 11.3269H30.5771" stroke="white" stroke-width="0.98292" stroke-linecap="round"/>
<path d="M37.7227 11.3262V18.4688" stroke="white" stroke-width="0.98292" stroke-linecap="round"/>
<path d="M13.8203 35.2277V33.03" stroke="white" stroke-width="0.98292" stroke-linecap="round"/>
<path d="M13.8184 35.2246H16.0161" stroke="white" stroke-width="0.98292" stroke-linecap="round"/>
<path d="M11.3467 37.7003V30.5579" stroke="white" stroke-width="0.98292" stroke-linecap="round"/>
<path d="M11.3428 37.7002H18.4855" stroke="white" stroke-width="0.98292" stroke-linecap="round"/>
<path d="M29.4836 19.5718L28.3896 19.7141L29.3411 20.6657L29.4836 19.5718Z" fill="white"/>
<path d="M19.5898 29.4604L19.7321 28.3665L20.6838 29.3181L19.5898 29.4604Z" fill="white"/>
<path d="M29.4836 29.4628L29.3411 28.3689L28.3896 29.3206L29.4836 29.4628Z" fill="white"/>
<path d="M19.5898 19.5718L20.6838 19.7141L19.7321 20.6657L19.5898 19.5718Z" fill="white"/>
<path d="M25.1119 11.2481C24.8107 11.7501 24.6294 12.1798 24.5536 12.3747C24.5397 12.4103 24.5794 12.4415 24.6116 12.421C24.7417 12.3379 24.9901 12.186 25.3059 12.0251C25.7785 11.7843 27.2485 10.8595 26.8601 10.2768C26.4713 9.69402 25.5242 10.5613 25.1119 11.2481Z" fill="white" stroke="white" stroke-width="0.49146" stroke-linecap="round"/>
<path d="M23.9945 11.2544C24.2956 11.7564 24.4769 12.1861 24.5531 12.3811C24.5666 12.4167 24.5269 12.4479 24.4948 12.4273C24.3647 12.3443 24.1163 12.1923 23.8004 12.0314C23.3279 11.7907 21.8578 10.8659 22.2463 10.2831C22.6351 9.70039 23.5826 10.5676 23.9945 11.2544Z" fill="white" stroke="white" stroke-width="0.49146" stroke-linecap="round"/>
<path d="M24.5152 8.72641C24.9217 8.72641 25.2512 9.05589 25.2512 9.46233C25.2512 9.86876 24.9217 10.1982 24.5152 10.1982C24.1088 10.1982 23.7793 9.86876 23.7793 9.46233C23.7793 9.05589 24.1088 8.72641 24.5152 8.72641Z" fill="white" stroke="white" stroke-width="0.49146"/>
<path d="M11.2998 25.0749C11.8018 24.7737 12.2316 24.5923 12.4265 24.5165C12.4621 24.5026 12.4933 24.5426 12.4728 24.5747C12.3897 24.7047 12.2378 24.9531 12.0768 25.269C11.8362 25.7414 10.9113 27.2116 10.3286 26.823C9.74577 26.4343 10.613 25.487 11.2998 25.0749Z" fill="white" stroke="white" stroke-width="0.49146" stroke-linecap="round"/>
<path d="M11.2989 23.9544C11.8008 24.2555 12.2306 24.4369 12.4255 24.5128C12.4611 24.5266 12.4924 24.4867 12.4718 24.4545C12.3888 24.3246 12.2368 24.0762 12.0759 23.7603C11.8352 23.2878 10.9104 21.8176 10.3276 22.2063C9.74482 22.595 10.6121 23.5423 11.2989 23.9544Z" fill="white" stroke="white" stroke-width="0.49146" stroke-linecap="round"/>
<path d="M8.77326 24.4742C8.77326 24.8806 9.10275 25.2101 9.50919 25.2101C9.91563 25.2101 10.2451 24.8806 10.2451 24.4742C10.2451 24.0678 9.91563 23.7383 9.50919 23.7383C9.10275 23.7383 8.77326 24.0678 8.77326 24.4742Z" fill="white" stroke="white" stroke-width="0.49146"/>
<path d="M37.7908 23.9299C37.2889 24.2311 36.8591 24.4125 36.6643 24.4884C36.6286 24.5022 36.5973 24.4623 36.6179 24.4301C36.7008 24.3002 36.8528 24.0518 37.0139 23.7359C37.2547 23.2634 38.1796 21.7932 38.7621 22.1819C39.345 22.5706 38.4776 23.5179 37.7908 23.9299Z" fill="white" stroke="white" stroke-width="0.49146" stroke-linecap="round"/>
<path d="M37.7927 25.0505C37.2908 24.7493 36.8611 24.5679 36.6663 24.4921C36.6306 24.4782 36.5992 24.5182 36.6199 24.5503C36.7028 24.6803 36.8548 24.9287 37.0158 25.2446C37.2567 25.717 38.1812 27.1872 38.764 26.7986C39.3469 26.4099 38.4796 25.4625 37.7927 25.0505Z" fill="white" stroke="white" stroke-width="0.49146" stroke-linecap="round"/>
<path d="M40.3195 24.5302C40.3195 24.1238 39.99 23.7943 39.5836 23.7943C39.1771 23.7943 38.8477 24.1238 38.8477 24.5302C38.8477 24.9366 39.1771 25.2661 39.5836 25.2661C39.99 25.2661 40.3195 24.9366 40.3195 24.5302Z" fill="white" stroke="white" stroke-width="0.49146"/>
<path d="M23.9788 37.7537C24.28 37.2517 24.4617 36.822 24.5375 36.6272C24.551 36.5915 24.5113 36.5602 24.4792 36.5808C24.349 36.6637 24.1007 36.8157 23.7848 36.9768C23.3123 37.2176 21.8422 38.1421 22.2306 38.725C22.6195 39.3078 23.567 38.4405 23.9788 37.7537Z" fill="white" stroke="white" stroke-width="0.49146" stroke-linecap="round"/>
<path d="M25.0904 37.7475C24.7893 37.2452 24.6079 36.8155 24.5321 36.6207C24.5183 36.585 24.5579 36.5541 24.5901 36.5743C24.7202 36.6576 24.9686 36.8096 25.2844 36.9703C25.757 37.2111 27.2271 38.136 26.8386 38.7188C26.4498 39.3013 25.5027 38.4344 25.0904 37.7475Z" fill="white" stroke="white" stroke-width="0.49146" stroke-linecap="round"/>
<path d="M24.5727 40.2719C24.1662 40.2719 23.8367 39.9424 23.8367 39.536C23.8367 39.1295 24.1662 38.8 24.5727 38.8C24.9791 38.8 25.3086 39.1295 25.3086 39.536C25.3086 39.9424 24.9791 40.2719 24.5727 40.2719Z" fill="white" stroke="white" stroke-width="0.49146"/>
<path d="M75.2258 15.3982H67.9089V17.156C67.9456 17.156 67.9749 17.1707 67.9968 17.2C68.0188 17.2292 68.0444 17.2439 68.0737 17.2439C68.0591 17.2439 68.2092 17.2 68.5242 17.1121C68.8464 17.0242 69.2126 16.9473 69.6228 16.8813C70.033 16.8081 70.4285 16.7715 70.8093 16.7715C71.6882 16.7715 72.3804 16.8923 72.8857 17.134C73.3911 17.3757 73.7537 17.7163 73.9734 18.1558C74.2004 18.5952 74.3359 19.0896 74.3799 19.6389C74.4312 20.1809 74.4568 20.928 74.4568 21.8801V26.2197C74.054 26.0586 73.6914 25.9011 73.3691 25.7473C73.0469 25.5862 72.8235 25.469 72.699 25.3958C72.699 25.1541 72.655 25.0039 72.5671 24.9453C72.3254 25.0845 72.0544 25.2383 71.7542 25.4067C71.4539 25.5679 71.062 25.7107 70.5786 25.8352C70.0952 25.9597 69.5203 26.022 68.8538 26.022C68.2166 26.022 67.594 25.9048 66.9861 25.6704C66.3782 25.436 65.8838 25.1028 65.5029 24.6707C65.1294 24.2312 64.9426 23.7368 64.9426 23.1875C64.9426 22.6748 65.1807 22.1401 65.6567 21.5835C66.1328 21.0195 66.77 20.5544 67.5684 20.1882C68.3667 19.8147 69.2383 19.6279 70.1831 19.6279C70.6958 19.6279 71.1829 19.7048 71.6443 19.8586C72.1057 20.0051 72.4573 20.1699 72.699 20.353V19.3423C72.4133 18.9614 72.1277 18.6978 71.842 18.5513C71.5564 18.4048 71.1169 18.3315 70.5237 18.3315C69.7546 18.3608 69.1467 18.4268 68.7 18.5293C68.2605 18.6245 67.7844 18.7783 67.2717 18.9907C66.7664 19.1958 66.3416 19.3569 65.9973 19.4741V18.6611C66.0486 18.6172 66.1218 18.5549 66.217 18.4744C66.3123 18.3938 66.3745 18.3352 66.4038 18.2986C66.4404 18.262 66.4624 18.24 66.4697 18.2327V15.3982H64.2175V14.0798H75.2258V15.3982ZM72.699 22.3525C72.699 22.0156 72.3218 21.7336 71.5674 21.5066C70.813 21.2795 70.2783 21.166 69.9634 21.166C69.165 21.166 68.4363 21.3345 67.7771 21.6714C67.1252 22.0083 66.6125 22.4001 66.239 22.8469C65.8655 23.2864 65.6787 23.6489 65.6787 23.9346C65.7813 24.2422 66.0083 24.4546 66.3599 24.5718C66.7188 24.6816 67.0996 24.7366 67.5024 24.7366C68.2495 24.7366 68.9417 24.6377 69.5789 24.4399C70.2234 24.2422 70.78 24.0005 71.2488 23.7148C71.7175 23.4219 72.0764 23.1436 72.3254 22.8799C72.5745 22.6162 72.699 22.4404 72.699 22.3525ZM89.1895 14.0798L89.1675 15.3982H88.0469V17.4966C88.0469 17.5186 87.7356 18.0789 87.113 19.1775C86.4978 20.2688 85.7837 21.5286 84.9707 22.9568C84.1577 24.3777 83.5754 25.3994 83.2239 26.022C82.9822 26.022 82.6196 25.8901 82.1362 25.6265C81.6602 25.3555 81.1694 24.9746 80.6641 24.4839C80.1587 23.9858 79.7412 23.4182 79.4116 22.781C79.0894 22.1365 78.9282 21.448 78.9282 20.7156C78.9282 20.2395 78.9905 19.8623 79.115 19.584C79.2395 19.3057 79.4043 19.031 79.6094 18.76C79.8145 18.4817 79.917 18.2693 79.917 18.1228C79.917 17.8665 79.7009 17.7383 79.2688 17.7383C78.9978 17.7383 78.7634 17.8079 78.5657 17.947C78.3752 18.0862 78.0603 18.4084 77.6209 18.9138L76.2036 17.6284C76.4746 17.4014 76.7236 17.2292 76.9507 17.1121C77.1851 16.9949 77.4048 16.918 77.6099 16.8813C77.8223 16.8374 78.1189 16.8081 78.4998 16.7935C79.679 16.7935 80.47 17.0937 80.8728 17.6943C81.2756 18.2876 81.4771 19.0457 81.4771 19.9685C81.4771 20.0417 81.4441 20.3787 81.3782 20.9792C81.3196 21.5725 81.2903 22.0925 81.2903 22.5393C81.2903 23.6965 81.4917 24.3264 81.8945 24.429C82.1143 24.429 82.3853 24.1506 82.7075 23.594L86.0584 17.5405V15.3982H74.9292V14.0798H89.1895ZM99.7913 15.3982H92.4744V17.156C92.511 17.156 92.5403 17.1707 92.5623 17.2C92.5842 17.2292 92.6099 17.2439 92.6392 17.2439C92.6245 17.2439 92.7747 17.2 93.0896 17.1121C93.4119 17.0242 93.7781 16.9473 94.1882 16.8813C94.5984 16.8081 94.9939 16.7715 95.3748 16.7715C96.2537 16.7715 96.9458 16.8923 97.4512 17.134C97.9565 17.3757 98.3191 17.7163 98.5388 18.1558C98.7659 18.5952 98.9014 19.0896 98.9453 19.6389C98.9966 20.1809 99.0222 20.928 99.0222 21.8801V26.2197C98.6194 26.0586 98.2568 25.9011 97.9346 25.7473C97.6123 25.5862 97.3889 25.469 97.2644 25.3958C97.2644 25.1541 97.2205 25.0039 97.1326 24.9453C96.8909 25.0845 96.6199 25.2383 96.3196 25.4067C96.0193 25.5679 95.6274 25.7107 95.144 25.8352C94.6606 25.9597 94.0857 26.022 93.4192 26.022C92.782 26.022 92.1594 25.9048 91.5515 25.6704C90.9436 25.436 90.4492 25.1028 90.0684 24.6707C89.6948 24.2312 89.5081 23.7368 89.5081 23.1875C89.5081 22.6748 89.7461 22.1401 90.2222 21.5835C90.6982 21.0195 91.3355 20.5544 92.1338 20.1882C92.9321 19.8147 93.8037 19.6279 94.7485 19.6279C95.2612 19.6279 95.7483 19.7048 96.2097 19.8586C96.6711 20.0051 97.0227 20.1699 97.2644 20.353V19.3423C96.9788 18.9614 96.6931 18.6978 96.4075 18.5513C96.1218 18.4048 95.6824 18.3315 95.0891 18.3315C94.3201 18.3608 93.7122 18.4268 93.2654 18.5293C92.8259 18.6245 92.3499 18.7783 91.8372 18.9907C91.3318 19.1958 90.907 19.3569 90.5627 19.4741V18.6611C90.614 18.6172 90.6873 18.5549 90.7825 18.4744C90.8777 18.3938 90.9399 18.3352 90.9692 18.2986C91.0059 18.262 91.0278 18.24 91.0352 18.2327V15.3982H88.783V14.0798H99.7913V15.3982ZM97.2644 22.3525C97.2644 22.0156 96.8872 21.7336 96.1328 21.5066C95.3784 21.2795 94.8438 21.166 94.5288 21.166C93.7305 21.166 93.0017 21.3345 92.3425 21.6714C91.6907 22.0083 91.178 22.4001 90.8044 22.8469C90.4309 23.2864 90.2441 23.6489 90.2441 23.9346C90.3467 24.2422 90.5737 24.4546 90.9253 24.5718C91.2842 24.6816 91.665 24.7366 92.0679 24.7366C92.8149 24.7366 93.5071 24.6377 94.1443 24.4399C94.7888 24.2422 95.3455 24.0005 95.8142 23.7148C96.283 23.4219 96.6418 23.1436 96.8909 22.8799C97.1399 22.6162 97.2644 22.4404 97.2644 22.3525ZM104.526 15.3982H103.362V14.0798H104.526V15.3982ZM100.769 15.3982H99.5166V14.0798H100.769V15.3982ZM102.999 12.7505V26.2747C102.97 26.2747 102.871 26.2307 102.703 26.1428C102.542 26.0623 102.355 25.967 102.142 25.8572C101.93 25.7473 101.71 25.6375 101.483 25.5276C101.256 25.4104 101.132 25.3518 101.11 25.3518V12.7725C101.073 11.9009 100.923 11.0842 100.659 10.3225C100.396 9.56079 100.099 8.92724 99.7693 8.42187C99.447 7.9165 99.0991 7.45141 98.7256 7.02661C98.3447 6.6018 98.1104 6.3418 98.0225 6.24658H100.363C100.985 6.86914 101.498 7.58325 101.901 8.38891C102.303 9.18725 102.585 9.96728 102.747 10.729C102.915 11.4834 102.999 12.1572 102.999 12.7505ZM115.04 15.3982H107.723V17.156C107.76 17.156 107.789 17.1707 107.811 17.2C107.833 17.2292 107.859 17.2439 107.888 17.2439C107.874 17.2439 108.024 17.2 108.339 17.1121C108.661 17.0242 109.027 16.9473 109.437 16.8813C109.847 16.8081 110.243 16.7715 110.624 16.7715C111.503 16.7715 112.195 16.8923 112.7 17.134C113.206 17.3757 113.568 17.7163 113.788 18.1558C114.015 18.5952 114.15 19.0896 114.194 19.6389C114.246 20.1809 114.271 20.928 114.271 21.8801V26.2197C113.868 26.0586 113.506 25.9011 113.184 25.7473C112.861 25.5862 112.638 25.469 112.513 25.3958C112.513 25.1541 112.469 25.0039 112.382 24.9453C112.14 25.0845 111.869 25.2383 111.569 25.4067C111.268 25.5679 110.876 25.7107 110.393 25.8352C109.91 25.9597 109.335 26.022 108.668 26.022C108.031 26.022 107.408 25.9048 106.801 25.6704C106.193 25.436 105.698 25.1028 105.317 24.6707C104.944 24.2312 104.757 23.7368 104.757 23.1875C104.757 22.6748 104.995 22.1401 105.471 21.5835C105.947 21.0195 106.584 20.5544 107.383 20.1882C108.181 19.8147 109.053 19.6279 109.998 19.6279C110.51 19.6279 110.997 19.7048 111.459 19.8586C111.92 20.0051 112.272 20.1699 112.513 20.353V19.3423C112.228 18.9614 111.942 18.6978 111.656 18.5513C111.371 18.4048 110.931 18.3315 110.338 18.3315C109.569 18.3608 108.961 18.4268 108.514 18.5293C108.075 18.6245 107.599 18.7783 107.086 18.9907C106.581 19.1958 106.156 19.3569 105.812 19.4741V18.6611C105.863 18.6172 105.936 18.5549 106.031 18.4744C106.127 18.3938 106.189 18.3352 106.218 18.2986C106.255 18.262 106.277 18.24 106.284 18.2327V15.3982H104.032V14.0798H115.04V15.3982ZM112.513 22.3525C112.513 22.0156 112.136 21.7336 111.382 21.5066C110.627 21.2795 110.093 21.166 109.778 21.166C108.979 21.166 108.251 21.3345 107.592 21.6714C106.94 22.0083 106.427 22.4001 106.053 22.8469C105.68 23.2864 105.493 23.6489 105.493 23.9346C105.596 24.2422 105.823 24.4546 106.174 24.5718C106.533 24.6816 106.914 24.7366 107.317 24.7366C108.064 24.7366 108.756 24.6377 109.393 24.4399C110.038 24.2422 110.594 24.0005 111.063 23.7148C111.532 23.4219 111.891 23.1436 112.14 22.8799C112.389 22.6162 112.513 22.4404 112.513 22.3525ZM131.663 15.3982H128.037L128.059 16.9363C129.033 17.2952 129.747 17.7712 130.201 18.3645C130.663 18.9504 130.894 19.7854 130.894 20.8694C130.894 21.6824 130.71 22.4258 130.344 23.0996C129.985 23.7734 129.561 24.3301 129.07 24.7695C128.586 25.2017 128.125 25.5459 127.686 25.8022C127.246 26.0513 126.997 26.1758 126.938 26.1758C126.829 26.1758 126.525 25.9341 126.027 25.4507C125.536 24.9673 125.133 24.5645 124.818 24.2422C125.507 24.2056 126.272 23.9785 127.114 23.561C127.957 23.1436 128.678 22.6052 129.279 21.946C129.879 21.2795 130.179 20.5764 130.179 19.8367C130.179 19.4558 130.066 19.1409 129.839 18.8918C129.612 18.6355 129.315 18.4451 128.949 18.3206C128.59 18.1887 128.202 18.1228 127.784 18.1228C126.517 18.196 125.532 18.6062 124.829 19.3533C124.133 20.093 123.665 21.0635 123.423 22.2646C123.372 22.25 123.068 22.1292 122.511 21.9021C121.954 21.6677 121.508 21.481 121.171 21.3418C121.171 20.9829 121.24 20.624 121.379 20.2651C121.526 19.9062 121.691 19.5767 121.874 19.2764C122.064 18.9761 122.159 18.8186 122.159 18.804C122.159 18.6062 121.98 18.4707 121.621 18.3975C121.262 18.3242 120.947 18.2876 120.676 18.2876C120.076 18.2876 119.508 18.4451 118.973 18.76C118.446 19.075 118.029 19.4778 117.721 19.9685C117.413 20.4519 117.26 20.939 117.26 21.4297C117.26 21.979 117.41 22.51 117.71 23.0227C118.01 23.5354 118.333 23.9785 118.677 24.3521C119.021 24.7183 119.446 25.1284 119.951 25.5825C120.464 26.0293 120.735 26.2893 120.764 26.3625C120.295 26.2014 119.742 25.9634 119.105 25.6484C118.475 25.3335 117.845 24.938 117.216 24.4619C116.586 23.9785 116.062 23.4329 115.645 22.825C115.234 22.217 115.029 21.5652 115.029 20.8694C115.029 20.071 115.256 19.3606 115.71 18.738C116.165 18.1082 116.747 17.6211 117.457 17.2769C118.175 16.9253 118.911 16.7495 119.666 16.7495C120.266 16.7495 120.801 16.8374 121.27 17.0132C121.738 17.1816 122.167 17.3831 122.555 17.6174C122.95 17.8518 123.167 17.969 123.203 17.969C123.21 17.969 123.412 17.8774 123.807 17.6943C124.203 17.5112 124.609 17.3428 125.027 17.189C125.452 17.0352 125.811 16.9363 126.104 16.8923L126.125 15.3982H114.7V14.0798H131.663V15.3982ZM143.572 15.3982H135.222V19.4961C135.369 19.313 135.621 19.0347 135.98 18.6611C136.346 18.2876 136.815 17.9141 137.386 17.5405C137.965 17.167 138.54 16.9802 139.111 16.9802C139.705 16.9802 140.25 17.1047 140.748 17.3538C141.246 17.5955 141.671 17.9177 142.023 18.3206C142.382 18.7161 142.653 19.1482 142.836 19.6169C143.026 20.0857 143.121 20.5325 143.121 20.9573C143.121 21.5872 142.957 22.2097 142.627 22.825C142.297 23.4329 141.873 23.9749 141.353 24.4509C140.84 24.9197 140.302 25.2969 139.738 25.5825C139.181 25.8608 138.701 26 138.298 26C137.793 26 137.335 25.8499 136.925 25.5496C136.522 25.2419 135.925 24.6853 135.134 23.8796V26.1318L133.223 25.3079V15.3982H131.421V14.0798H133.223C133.223 13.135 133.076 12.2158 132.783 11.3223C132.498 10.4214 132.157 9.63037 131.761 8.94922C131.366 8.26806 130.959 7.66382 130.542 7.13647C130.117 6.60913 129.788 6.24292 129.553 6.03784H131.959C132.245 6.27954 132.538 6.56518 132.838 6.89477C133.138 7.21704 133.479 7.71142 133.86 8.37793C134.241 9.04443 134.563 9.85376 134.827 10.8059C135.09 11.7581 135.222 12.8494 135.222 14.0798H143.572V15.3982ZM141.902 22.0889C141.902 21.7886 141.799 21.4407 141.594 21.0452C141.396 20.6423 141.118 20.2541 140.759 19.8806C140.4 19.5071 139.961 19.1921 139.441 18.9358C138.928 18.6794 138.383 18.5513 137.804 18.5513C137.452 18.5513 137.094 18.6575 136.727 18.8699C136.368 19.0823 136.068 19.3276 135.826 19.606C135.585 19.877 135.464 20.082 135.464 20.2212C135.464 20.7266 135.684 21.3528 136.123 22.0999C136.57 22.8396 137.134 23.4841 137.815 24.0334C138.496 24.5828 139.163 24.8574 139.814 24.8574C140.188 24.8574 140.532 24.7183 140.847 24.4399C141.169 24.1616 141.426 23.8064 141.616 23.3743C141.807 22.9421 141.902 22.5137 141.902 22.0889ZM154.174 15.3982H146.857V17.156C146.893 17.156 146.923 17.1707 146.945 17.2C146.967 17.2292 146.992 17.2439 147.021 17.2439C147.007 17.2439 147.157 17.2 147.472 17.1121C147.794 17.0242 148.16 16.9473 148.571 16.8813C148.981 16.8081 149.376 16.7715 149.757 16.7715C150.636 16.7715 151.328 16.8923 151.834 17.134C152.339 17.3757 152.701 17.7163 152.921 18.1558C153.148 18.5952 153.284 19.0896 153.328 19.6389C153.379 20.1809 153.405 20.928 153.405 21.8801V26.2197C153.002 26.0586 152.639 25.9011 152.317 25.7473C151.995 25.5862 151.771 25.469 151.647 25.3958C151.647 25.1541 151.603 25.0039 151.515 24.9453C151.273 25.0845 151.002 25.2383 150.702 25.4067C150.402 25.5679 150.01 25.7107 149.526 25.8352C149.043 25.9597 148.468 26.022 147.802 26.022C147.164 26.022 146.542 25.9048 145.934 25.6704C145.326 25.436 144.832 25.1028 144.451 24.6707C144.077 24.2312 143.89 23.7368 143.89 23.1875C143.89 22.6748 144.128 22.1401 144.604 21.5835C145.081 21.0195 145.718 20.5544 146.516 20.1882C147.314 19.8147 148.186 19.6279 149.131 19.6279C149.644 19.6279 150.131 19.7048 150.592 19.8586C151.053 20.0051 151.405 20.1699 151.647 20.353V19.3423C151.361 18.9614 151.075 18.6978 150.79 18.5513C150.504 18.4048 150.065 18.3315 149.471 18.3315C148.702 18.3608 148.094 18.4268 147.648 18.5293C147.208 18.6245 146.732 18.7783 146.219 18.9907C145.714 19.1958 145.289 19.3569 144.945 19.4741V18.6611C144.996 18.6172 145.07 18.5549 145.165 18.4744C145.26 18.3938 145.322 18.3352 145.352 18.2986C145.388 18.262 145.41 18.24 145.417 18.2327V15.3982H143.165V14.0798H154.174V15.3982ZM151.647 22.3525C151.647 22.0156 151.27 21.7336 150.515 21.5066C149.761 21.2795 149.226 21.166 148.911 21.166C148.113 21.166 147.384 21.3345 146.725 21.6714C146.073 22.0083 145.56 22.4001 145.187 22.8469C144.813 23.2864 144.626 23.6489 144.626 23.9346C144.729 24.2422 144.956 24.4546 145.308 24.5718C145.667 24.6816 146.047 24.7366 146.45 24.7366C147.197 24.7366 147.889 24.6377 148.527 24.4399C149.171 24.2422 149.728 24.0005 150.197 23.7148C150.665 23.4219 151.024 23.1436 151.273 22.8799C151.522 22.6162 151.647 22.4404 151.647 22.3525Z" fill="#A15236"/>
<path d="M71.2667 32.7285H67.6681V35.6222H70.9847V36.9717H67.6681V41H66.0702V31.3723H71.2667V32.7285ZM76.9534 41.1611C75.5658 41.1611 74.4536 40.7113 73.6166 39.8116C72.7841 38.912 72.3678 37.7415 72.3678 36.3003C72.3678 34.7516 72.793 33.5163 73.6434 32.5942C74.4939 31.6722 75.6486 31.2112 77.1078 31.2112C78.4595 31.2112 79.5472 31.6588 80.3707 32.554C81.1988 33.4491 81.6128 34.6196 81.6128 36.0653C81.6128 37.6364 81.1898 38.8784 80.3439 39.7915C79.4979 40.7046 78.3678 41.1611 76.9534 41.1611ZM77.0272 32.6144C76.1455 32.6144 75.4271 32.9434 74.8721 33.6013C74.3215 34.2593 74.0463 35.1254 74.0463 36.1996C74.0463 37.2693 74.3148 38.1309 74.8519 38.7844C75.389 39.4379 76.0918 39.7646 76.9601 39.7646C77.8821 39.7646 78.6095 39.4536 79.1421 38.8314C79.6747 38.2093 79.941 37.3387 79.941 36.2197C79.941 35.0694 79.6814 34.1809 79.1622 33.5543C78.6475 32.9277 77.9358 32.6144 77.0272 32.6144ZM90.7839 37.106C90.7839 39.8094 89.5038 41.1611 86.9436 41.1611C84.4908 41.1611 83.2644 39.8609 83.2644 37.2604V31.3723H84.8623V36.9314C84.8623 38.8202 85.5964 39.7646 87.0645 39.7646C88.4788 39.7646 89.186 38.8538 89.186 37.0321V31.3723H90.7839V37.106ZM101.211 41H99.465L94.866 33.9236C94.7496 33.7445 94.6534 33.5588 94.5773 33.3663H94.537C94.5728 33.5722 94.5907 34.0131 94.5907 34.689V41H93.0465V31.3723H94.9062L99.3508 38.2809C99.5388 38.5673 99.6597 38.7643 99.7134 38.8717H99.7402C99.6955 38.6166 99.6731 38.1847 99.6731 37.5759V31.3723H101.211V41ZM103.601 41V31.3723H106.38C109.93 31.3723 111.704 32.9366 111.704 36.0653C111.704 37.5513 111.212 38.7464 110.227 39.6505C109.243 40.5502 107.922 41 106.266 41H103.601ZM105.192 32.7285V39.6505H106.468C107.591 39.6505 108.464 39.3417 109.086 38.724C109.713 38.1063 110.026 37.2335 110.026 36.1056C110.026 33.8542 108.86 32.7285 106.528 32.7285H105.192ZM121.164 41H119.412L118.546 38.5494H114.759L113.927 41H112.181L115.786 31.3723H117.586L121.164 41ZM118.123 37.2469L116.787 33.4066C116.746 33.2813 116.704 33.0799 116.659 32.8024H116.632C116.592 33.0575 116.547 33.2589 116.498 33.4066L115.175 37.2469H118.123ZM127.69 32.7285H124.924V41H123.326V32.7285H120.567V31.3723H127.69V32.7285ZM130.738 41H129.093V31.3723H130.738V41ZM137.083 41.1611C135.695 41.1611 134.583 40.7113 133.746 39.8116C132.913 38.912 132.497 37.7415 132.497 36.3003C132.497 34.7516 132.922 33.5163 133.773 32.5942C134.623 31.6722 135.778 31.2112 137.237 31.2112C138.589 31.2112 139.677 31.6588 140.5 32.554C141.328 33.4491 141.742 34.6196 141.742 36.0653C141.742 37.6364 141.319 38.8784 140.473 39.7915C139.627 40.7046 138.497 41.1611 137.083 41.1611ZM137.157 32.6144C136.275 32.6144 135.556 32.9434 135.001 33.6013C134.451 34.2593 134.176 35.1254 134.176 36.1996C134.176 37.2693 134.444 38.1309 134.981 38.7844C135.518 39.4379 136.221 39.7646 137.089 39.7646C138.012 39.7646 138.739 39.4536 139.271 38.8314C139.804 38.2093 140.07 37.3387 140.07 36.2197C140.07 35.0694 139.811 34.1809 139.292 33.5543C138.777 32.9277 138.065 32.6144 137.157 32.6144ZM151.672 41H149.926L145.327 33.9236C145.211 33.7445 145.115 33.5588 145.039 33.3663H144.998C145.034 33.5722 145.052 34.0131 145.052 34.689V41H143.508V31.3723H145.368L149.812 38.2809C150 38.5673 150.121 38.7643 150.175 38.8717H150.202C150.157 38.6166 150.135 38.1847 150.135 37.5759V31.3723H151.672V41Z" fill="#A15236"/>
</g>
<defs>
<clipPath id="clip0_1369_870">
<rect width="154.536" height="50" fill="white"/>
</clipPath>
</defs>
</svg>
