<svg width="43" height="42" viewBox="0 0 43 42" fill="none" xmlns="http://www.w3.org/2000/svg">
<g id="Group 2">
<path id="Vector" d="M2.26527 4.16178C2.13067 5.46487 2.69834 6.87782 1.43295 7.83595C0.167754 8.79409 0.88331 11.4331 1.43065 13.3695C1.55966 13.826 1.54925 14.3113 1.4007 14.7618L0.90504 16.2648C0.665512 16.9912 0.852561 17.792 1.38815 18.3335C1.97939 18.9311 2.23296 20.6174 1.98854 21.4257C1.56935 22.8118 0.797223 24.092 0.90504 26.0917C1.46509 28.9961 2.04964 28.5408 1.50662 31.2578C1.3401 32.091 2.45189 33.4242 1.89613 35.5906C1.3404 37.7569 2.55638 38.9128 3.17064 39.59C3.92629 40.4232 5.66641 41.2105 6.83111 40.7565C7.9958 40.3022 8.62338 42.4676 10.4536 41.9064C11.8815 41.7454 13.0128 41.3894 14.1521 41.4231C15.0348 41.4491 15.9224 41.84 16.9565 41.9064C17.9736 41.9714 19.6837 41.8744 20.9466 41.1085C22.1479 40.3799 23.43 40.2566 24.2044 40.3023C24.7774 40.3359 25.252 40.7552 25.7082 41.0625C26.4343 41.5518 27.3664 41.5807 28.166 41.2278C29.4149 40.6769 31.0348 40.1436 32.0917 40.3572C33.0993 40.5612 33.8764 41.2278 34.7106 41.2278C35.5449 41.2278 35.7116 40.9532 36.5458 40.6159C37.1555 40.3692 38.3331 40.6289 39.1361 39.9276C39.19 39.8806 39.2303 39.8213 39.2759 39.7667C39.6453 39.3244 41.1833 38.3488 41.1833 37.3247C41.1833 36.2261 40.7737 35.5906 40.7737 34.7573C40.7737 33.9241 41.4392 33.0909 41.1833 31.8777C40.6639 30.3023 39.6779 27.4314 41.0076 26.0872C42.1963 24.8855 42.4934 22.8326 42.1221 21.9564C41.8535 21.4137 41.5171 20.8726 41.3268 20.2954L40.9414 19.1269C40.7461 18.5341 40.7913 17.8871 41.0679 17.3283L41.6386 16.1742C41.9454 15.5544 41.9663 14.8295 41.6961 14.1925C41.4845 13.6933 40.8918 12.865 41.206 12.3093C41.2286 12.2687 41.2532 12.2283 41.2712 12.1853C42.2006 9.95547 41.2958 7.43887 40.7165 6.4629C40.216 5.61968 41.3461 4.265 40.7165 2.59489C40.2509 1.35963 37.1994 1.8135 36.1768 1.92832C35.102 2.04907 34.4118 1.39452 33.7166 0.691881C32.9799 -0.0528516 31.8365 -0.195166 30.943 0.346695C29.1337 1.44408 27.593 0.986908 25.7015 0.351594C21.9722 -0.901071 21.1216 1.59613 18.8109 1.59613C17.6462 1.59613 16.3151 0.0814636 14.8176 0.691881C13.3202 1.3023 13.5167 1.3023 10.4536 0.45788C9.80341 0.278604 9.10706 0.391522 8.58178 0.818331C7.34304 1.82493 6.47804 1.17032 4.34675 1.3023C3.64863 1.34553 2.33871 2.09496 2.26527 4.16178Z" fill="#A15236"/>
<path id="Vector_2" d="M22.4376 21.7638C23.0715 21.1289 23.0715 20.0996 22.4376 19.4647C21.8036 18.8298 20.7759 18.8298 20.1419 19.4647C19.508 20.0996 19.508 21.1289 20.1419 21.7638C20.7759 22.3988 21.8036 22.3988 22.4376 21.7638Z" stroke="white" stroke-width="0.825005"/>
<path id="Vector_3" d="M17.2148 16.5347L19.9321 19.2562" stroke="white" stroke-width="0.825004"/>
<path id="Vector_4" d="M22.5088 21.8376L25.4388 24.7721" stroke="white" stroke-width="0.825004"/>
<path id="Vector_5" d="M25.3668 16.4644L22.6494 19.1859" stroke="white" stroke-width="0.825004"/>
<path id="Vector_6" d="M19.8628 21.9788L17.1455 24.7003" stroke="white" stroke-width="0.825004"/>
<path id="Vector_7" d="M17.1377 16.4604V19.4685C17.1382 20.041 18.4255 20.3274 18.1393 18.895" stroke="white" stroke-width="0.825004" stroke-linecap="round"/>
<path id="Vector_8" d="M17.1396 16.4595H20.1429C20.7146 16.4599 21.0007 17.7491 19.5705 17.4627" stroke="white" stroke-width="0.825004" stroke-linecap="round"/>
<path id="Vector_9" d="M25.3956 24.73H22.392C21.8206 24.7296 21.5344 23.4404 22.9647 23.7268" stroke="white" stroke-width="0.825004" stroke-linecap="round"/>
<path id="Vector_10" d="M25.3957 24.73V21.722C25.395 21.1494 24.1079 20.863 24.3941 22.2954" stroke="white" stroke-width="0.825004" stroke-linecap="round"/>
<path id="Vector_11" d="M25.3749 16.4492H22.3717C21.8 16.4497 21.5141 17.7389 22.944 17.4524" stroke="white" stroke-width="0.825004" stroke-linecap="round"/>
<path id="Vector_12" d="M25.3791 16.45V19.458C25.3787 20.0305 24.0913 20.3169 24.3774 18.8845" stroke="white" stroke-width="0.825004" stroke-linecap="round"/>
<path id="Vector_13" d="M17.123 24.7139V21.7058C17.1235 21.1333 18.4108 20.8469 18.1247 22.2793" stroke="white" stroke-width="0.825004" stroke-linecap="round"/>
<path id="Vector_14" d="M17.124 24.7147H20.1272C20.6989 24.7142 20.9848 23.425 19.5549 23.7115" stroke="white" stroke-width="0.825004" stroke-linecap="round"/>
<path id="Vector_15" d="M25.5991 28.0314L24.1226 26.5528C23.9928 26.4227 23.7822 26.4227 23.6521 26.5528L21.8864 28.3214C21.7566 28.4514 21.7566 28.6623 21.8864 28.7927L24.4111 31.321C24.5409 31.4513 24.7519 31.4513 24.8817 31.321L32.0143 24.1773C32.1444 24.0472 32.1444 23.8362 32.0143 23.706L29.4899 21.1774C29.3598 21.0473 29.1491 21.0473 29.019 21.1774L27.2537 22.9458C27.1235 23.076 27.1235 23.287 27.2537 23.4172L28.7298 24.8957" stroke="white" stroke-width="0.825004" stroke-linecap="round"/>
<path id="Vector_16" d="M13.884 16.2937L15.3603 17.7723C15.4902 17.9024 15.4902 18.1135 15.3603 18.2436L13.5946 20.012C13.4647 20.1422 13.254 20.1422 13.124 20.012L10.5994 17.4835C10.4695 17.3533 10.4695 17.1423 10.5994 17.0121L17.7321 9.86836C17.862 9.73821 18.0727 9.73821 18.2027 9.86836L20.7274 12.3969C20.8572 12.5271 20.8572 12.7381 20.7274 12.8683L18.9617 14.6367C18.8316 14.7668 18.621 14.7668 18.4912 14.6367L17.0148 13.1581" stroke="white" stroke-width="0.825004" stroke-linecap="round"/>
<path id="Vector_17" d="M13.884 24.894L15.3603 23.4155C15.4902 23.2853 15.4902 23.0743 15.3603 22.9442L13.5946 21.1758C13.4647 21.0456 13.254 21.0456 13.124 21.1758L10.5994 23.7043C10.4695 23.8345 10.4695 24.0455 10.5994 24.1757L17.7321 31.3193C17.862 31.4496 18.0727 31.4496 18.2027 31.3193L20.7274 28.791C20.8572 28.6607 20.8572 28.4497 20.7274 28.3194L18.9617 26.5511C18.8316 26.421 18.621 26.421 18.4912 26.5511L17.0148 28.0297" stroke="white" stroke-width="0.825004" stroke-linecap="round"/>
<path id="Vector_18" d="M25.5991 13.1574L24.1226 14.6359C23.9928 14.7661 23.7822 14.7661 23.6521 14.6359L21.8864 12.8675C21.7566 12.7374 21.7566 12.5263 21.8864 12.3962L24.4111 9.86763C24.5409 9.73748 24.7519 9.73748 24.8817 9.86763L32.0143 17.0114C32.1444 17.1416 32.1444 17.3526 32.0143 17.4827L29.4899 20.0113C29.3598 20.1414 29.1491 20.1414 29.019 20.0113L27.2537 18.2429C27.1235 18.1127 27.1235 17.9017 27.2537 17.7715L28.7298 16.293" stroke="white" stroke-width="0.825004" stroke-linecap="round"/>
<path id="Vector_19" d="M12.3193 11.5938V13.4398" stroke="white" stroke-width="0.825004" stroke-linecap="round"/>
<path id="Vector_20" d="M12.3193 11.5938H14.1625" stroke="white" stroke-width="0.825004" stroke-linecap="round"/>
<path id="Vector_21" d="M10.2451 9.5166V15.5164" stroke="white" stroke-width="0.825004" stroke-linecap="round"/>
<path id="Vector_22" d="M10.252 9.51733H16.2424" stroke="white" stroke-width="0.825004" stroke-linecap="round"/>
<path id="Vector_23" d="M30.2915 29.5938H28.4482" stroke="white" stroke-width="0.825004" stroke-linecap="round"/>
<path id="Vector_24" d="M30.291 29.5939V27.7478" stroke="white" stroke-width="0.825004" stroke-linecap="round"/>
<path id="Vector_25" d="M32.3662 31.6702H26.376" stroke="white" stroke-width="0.825004" stroke-linecap="round"/>
<path id="Vector_26" d="M32.3672 31.6706V25.6709" stroke="white" stroke-width="0.825004" stroke-linecap="round"/>
<path id="Vector_27" d="M30.2905 11.5908H28.4473" stroke="white" stroke-width="0.825004" stroke-linecap="round"/>
<path id="Vector_28" d="M30.2891 11.5881V13.4342" stroke="white" stroke-width="0.825004" stroke-linecap="round"/>
<path id="Vector_29" d="M32.3623 9.51465H26.3721" stroke="white" stroke-width="0.825004" stroke-linecap="round"/>
<path id="Vector_30" d="M32.3633 9.5144V15.5142" stroke="white" stroke-width="0.825004" stroke-linecap="round"/>
<path id="Vector_31" d="M12.3193 29.5914V27.7454" stroke="white" stroke-width="0.825004" stroke-linecap="round"/>
<path id="Vector_32" d="M12.3164 29.5886H14.1596" stroke="white" stroke-width="0.825004" stroke-linecap="round"/>
<path id="Vector_33" d="M10.2432 31.6681V25.6685" stroke="white" stroke-width="0.825004" stroke-linecap="round"/>
<path id="Vector_34" d="M10.2402 31.668H16.2307" stroke="white" stroke-width="0.825004" stroke-linecap="round"/>
<path id="Vector_35" d="M25.4546 16.4402L24.5371 16.5597L25.3351 17.3591L25.4546 16.4402Z" fill="white"/>
<path id="Vector_36" d="M17.1572 24.7468L17.2766 23.8279L18.0747 24.6273L17.1572 24.7468Z" fill="white"/>
<path id="Vector_37" d="M25.4546 24.7487L25.3351 23.8298L24.5371 24.6292L25.4546 24.7487Z" fill="white"/>
<path id="Vector_38" d="M17.1572 16.4402L18.0747 16.5597L17.2766 17.3591L17.1572 16.4402Z" fill="white"/>
<path id="Vector_39" d="M21.788 9.44844C21.5354 9.87011 21.3833 10.2311 21.3198 10.3948C21.3081 10.4247 21.3414 10.451 21.3684 10.4337C21.4775 10.3639 21.6858 10.2363 21.9507 10.1011C22.347 9.89891 23.5799 9.12208 23.2542 8.63258C22.9281 8.14304 22.1337 8.87155 21.788 9.44844Z" fill="white" stroke="white" stroke-width="0.412502" stroke-linecap="round"/>
<path id="Vector_40" d="M20.8505 9.45355C21.103 9.87522 21.2551 10.2362 21.319 10.4C21.3303 10.4298 21.297 10.4561 21.2701 10.4388C21.1609 10.3691 20.9526 10.2414 20.6877 10.1063C20.2914 9.90405 19.0585 9.12723 19.3843 8.63769C19.7104 8.14819 20.505 8.87666 20.8505 9.45355Z" fill="white" stroke="white" stroke-width="0.412502" stroke-linecap="round"/>
<path id="Vector_41" d="M21.2881 7.33031C21.629 7.33031 21.9053 7.60707 21.9053 7.94848C21.9053 8.28989 21.629 8.56665 21.2881 8.56665C20.9472 8.56665 20.6709 8.28989 20.6709 7.94848C20.6709 7.60707 20.9472 7.33031 21.2881 7.33031Z" fill="white" stroke="white" stroke-width="0.412502"/>
<path id="Vector_42" d="M10.205 21.063C10.626 20.81 10.9864 20.6576 11.1499 20.5939C11.1798 20.5823 11.2059 20.6158 11.1887 20.6429C11.1191 20.752 10.9916 20.9607 10.8566 21.226C10.6548 21.6229 9.87912 22.8579 9.39038 22.5314C8.90161 22.2049 9.62898 21.4091 10.205 21.063Z" fill="white" stroke="white" stroke-width="0.412502" stroke-linecap="round"/>
<path id="Vector_43" d="M10.204 20.1221C10.625 20.3751 10.9854 20.5275 11.1489 20.5911C11.1788 20.6028 11.205 20.5693 11.1877 20.5422C11.1181 20.4331 10.9906 20.2244 10.8557 19.9591C10.6538 19.5622 9.87817 18.3272 9.38939 18.6537C8.90065 18.9802 9.62799 19.776 10.204 20.1221Z" fill="white" stroke="white" stroke-width="0.412502" stroke-linecap="round"/>
<path id="Vector_44" d="M8.0859 20.5586C8.0859 20.9 8.36223 21.1768 8.7031 21.1768C9.04398 21.1768 9.32031 20.9 9.32031 20.5586C9.32031 20.2172 9.04398 19.9404 8.7031 19.9404C8.36223 19.9404 8.0859 20.2172 8.0859 20.5586Z" fill="white" stroke="white" stroke-width="0.412502"/>
<path id="Vector_45" d="M32.4218 20.1016C32.0008 20.3546 31.6405 20.5069 31.4771 20.5706C31.4471 20.5823 31.4208 20.5487 31.4381 20.5217C31.5077 20.4126 31.6351 20.2039 31.7702 19.9386C31.9722 19.5417 32.7479 18.3067 33.2364 18.6332C33.7253 18.9597 32.9978 19.7555 32.4218 20.1016Z" fill="white" stroke="white" stroke-width="0.412502" stroke-linecap="round"/>
<path id="Vector_46" d="M32.4247 21.0425C32.0038 20.7895 31.6434 20.6371 31.48 20.5734C31.45 20.5618 31.4238 20.5953 31.4411 20.6223C31.5106 20.7315 31.6381 20.9402 31.7732 21.2055C31.9752 21.6024 32.7505 22.8373 33.2394 22.5109C33.7282 22.1844 33.0008 21.3886 32.4247 21.0425Z" fill="white" stroke="white" stroke-width="0.412502" stroke-linecap="round"/>
<path id="Vector_47" d="M34.543 20.6055C34.543 20.2641 34.2667 19.9873 33.9258 19.9873C33.5849 19.9873 33.3086 20.2641 33.3086 20.6055C33.3086 20.9469 33.5849 21.2236 33.9258 21.2236C34.2667 21.2236 34.543 20.9469 34.543 20.6055Z" fill="white" stroke="white" stroke-width="0.412502"/>
<path id="Vector_48" d="M20.8368 31.7131C21.0894 31.2915 21.2418 30.9306 21.3053 30.7669C21.3166 30.7369 21.2834 30.7106 21.2564 30.7279C21.1473 30.7976 20.9389 30.9252 20.6741 31.0606C20.2777 31.2629 19.0448 32.0394 19.3706 32.529C19.6967 33.0186 20.4914 32.2901 20.8368 31.7131Z" fill="white" stroke="white" stroke-width="0.412502" stroke-linecap="round"/>
<path id="Vector_49" d="M21.7685 31.7082C21.5159 31.2863 21.3638 30.9253 21.3002 30.7617C21.2886 30.7317 21.3219 30.7057 21.3488 30.7227C21.458 30.7927 21.6663 30.9203 21.9312 31.0553C22.3275 31.2576 23.5604 32.0345 23.2346 32.5241C22.9085 33.0134 22.1142 32.2851 21.7685 31.7082Z" fill="white" stroke="white" stroke-width="0.412502" stroke-linecap="round"/>
<path id="Vector_50" d="M21.3359 33.8281C20.995 33.8281 20.7187 33.5514 20.7187 33.21C20.7187 32.8686 20.995 32.5918 21.3359 32.5918C21.6768 32.5918 21.9531 32.8686 21.9531 33.21C21.9531 33.5514 21.6768 33.8281 21.3359 33.8281Z" fill="white" stroke="white" stroke-width="0.412502"/>
</g>
</svg>
