<svg width="738" height="850" viewBox="0 0 738 850" fill="none" xmlns="http://www.w3.org/2000/svg">
<path d="M736.994 212.5C701.658 189.96 661.287 176.53 619.49 173.41C577.694 170.291 535.776 177.579 497.486 194.624C459.195 211.669 425.727 237.938 400.073 271.083C374.419 304.227 357.38 343.213 350.48 384.554C357.572 381.292 365.401 379.964 373.172 380.704C380.942 381.445 388.379 384.227 394.728 388.769C429.761 375.613 467.277 370.392 504.571 373.481C541.866 376.569 578.011 387.891 610.403 406.631C619.951 412.155 629.131 418.291 637.887 425C670.286 400.165 696.218 367.882 713.482 330.889C730.745 293.896 738.831 253.284 737.053 212.5H736.994Z" fill="#C26848"/>
<path d="M368.956 0C331.771 19.3313 299.956 47.5772 276.358 82.2116C252.759 116.846 238.112 156.789 233.726 198.469C229.341 240.149 235.353 282.266 251.226 321.054C267.099 359.841 292.338 394.091 324.685 420.738C325.432 412.973 328.209 405.54 332.737 399.187C337.264 392.833 343.384 387.783 350.481 384.542C357.546 342.124 375.293 302.202 402.05 268.536C428.807 234.871 463.693 208.57 503.422 192.112C498.115 151.635 483.121 113.036 459.712 79.5916C436.303 46.147 405.17 18.8439 368.956 0Z" fill="#A15236"/>
<path d="M324.473 425C324.473 423.572 324.556 422.155 324.686 420.762C291.485 393.432 265.786 358.102 250.007 318.099C234.228 278.096 228.889 234.736 234.491 192.1C196.787 176.47 155.869 170.163 115.208 173.714C74.5474 177.266 35.3425 190.57 0.918542 212.5C-0.936876 254.372 7.61555 296.052 25.8108 333.81C44.006 371.568 71.2766 404.227 105.183 428.866C139.09 453.505 178.575 469.356 220.106 474.999C261.638 480.643 303.921 475.905 343.173 461.208C337.391 457.105 332.675 451.677 329.421 445.377C326.168 439.078 324.471 432.09 324.473 425Z" fill="#C26848"/>
<path d="M368.957 469.483C359.714 469.489 350.701 466.599 343.185 461.219C302.91 476.306 259.459 480.896 216.921 474.56C174.383 468.224 134.156 451.169 100.026 425C67.6371 449.841 41.7169 482.127 24.4639 519.12C7.21085 556.113 -0.865947 596.721 0.91846 637.5C36.2544 660.04 76.626 673.47 118.422 676.59C160.219 679.709 202.137 672.421 240.427 655.376C278.717 638.331 312.186 612.062 337.84 578.917C363.494 545.773 380.532 506.787 387.432 465.446C381.636 468.105 375.334 469.482 368.957 469.483Z" fill="#C97A5F"/>
<path d="M413.228 429.238C412.481 437.004 409.705 444.437 405.177 450.79C400.649 457.143 394.53 462.194 387.433 465.434C381.311 502.351 367.077 537.451 345.757 568.205C324.436 598.959 296.56 624.602 264.136 643.285C254.579 648.789 244.678 653.671 234.492 657.9C239.801 698.375 254.796 736.971 278.205 770.414C301.614 803.856 332.745 831.157 368.957 850C406.143 830.669 437.957 802.423 461.556 767.788C485.155 733.154 499.802 693.211 504.187 651.531C508.573 609.851 502.56 567.734 486.687 528.946C470.814 490.159 445.576 455.909 413.228 429.262V429.238Z" fill="#A15236"/>
<path d="M610.404 406.642C578.014 387.902 541.87 376.58 504.577 373.494C467.284 370.407 429.77 375.632 394.74 388.792C400.523 392.895 405.239 398.323 408.492 404.623C411.746 410.922 413.442 417.91 413.44 425C413.44 426.429 413.358 427.833 413.228 429.226C446.429 456.558 472.129 491.89 487.908 531.895C503.687 571.9 509.026 615.262 503.422 657.9C541.127 673.53 582.044 679.837 622.705 676.286C663.366 672.735 702.571 659.43 736.995 637.5C739.052 591.118 728.335 545.062 706.012 504.353C683.689 463.644 650.618 429.845 610.404 406.642Z" fill="#C97A5F"/>
<path d="M417.359 326.943C417.373 325.641 417.215 324.343 416.886 323.083C416.613 322.006 416.158 320.984 415.54 320.06C415.013 319.267 414.315 318.602 413.498 318.113C412.708 317.659 411.812 317.423 410.901 317.428C409.97 317.416 409.053 317.652 408.245 318.113C407.424 318.601 406.722 319.267 406.19 320.06C405.577 320.984 405.126 322.007 404.856 323.083C404.528 324.343 404.369 325.641 404.384 326.943C404.369 328.237 404.528 329.528 404.856 330.78C405.132 331.843 405.583 332.852 406.19 333.767C406.722 334.56 407.424 335.226 408.245 335.715C409.053 336.175 409.97 336.412 410.901 336.399C411.812 336.404 412.708 336.168 413.498 335.715C414.315 335.225 415.013 334.56 415.54 333.767C416.152 332.853 416.606 331.843 416.886 330.78C417.215 329.528 417.373 328.237 417.359 326.943ZM424.442 326.943C424.466 329.111 424.118 331.267 423.415 333.318C422.787 335.161 421.827 336.874 420.581 338.371C419.396 339.766 417.927 340.892 416.272 341.676C414.577 342.452 412.735 342.853 410.871 342.853C409.007 342.853 407.165 342.452 405.47 341.676C403.828 340.888 402.372 339.762 401.197 338.371C399.944 336.877 398.979 335.164 398.352 333.318C396.982 329.174 396.982 324.7 398.352 320.556C398.979 318.714 399.944 317.004 401.197 315.515C402.377 314.12 403.832 312.983 405.47 312.174C407.16 311.381 409.004 310.97 410.871 310.97C412.738 310.97 414.582 311.381 416.272 312.174C417.923 312.979 419.39 314.117 420.581 315.515C421.826 317.008 422.787 318.717 423.415 320.556C424.117 322.611 424.465 324.771 424.442 326.943Z" fill="white"/>
<path d="M442.222 325.574C443.89 325.563 445.546 325.855 447.109 326.435C448.557 326.976 449.879 327.808 450.993 328.879C452.095 329.953 452.964 331.243 453.543 332.669C454.807 335.902 454.769 339.498 453.437 342.703C452.775 344.212 451.801 345.564 450.58 346.67C449.303 347.801 447.82 348.674 446.212 349.244C444.463 349.87 442.616 350.182 440.758 350.165C438.207 350.21 435.686 349.613 433.427 348.429C431.366 347.365 429.66 345.724 428.516 343.707L432.553 339.504C433.518 340.855 434.778 341.97 436.236 342.763C437.635 343.536 439.207 343.942 440.805 343.943C442.519 344.008 444.189 343.398 445.457 342.243C446.378 341.408 447.023 340.311 447.304 339.1C447.585 337.888 447.489 336.62 447.03 335.464C446.57 334.309 445.768 333.321 444.732 332.634C443.695 331.946 442.474 331.592 441.23 331.618C440.103 331.609 438.991 331.881 437.995 332.409C437.039 332.913 436.226 333.653 435.634 334.558H429.496C429.545 334.161 429.616 333.767 429.708 333.377C429.85 332.692 430.015 331.819 430.227 330.744C430.44 329.67 430.664 328.49 430.912 327.203C431.16 325.916 431.42 324.546 431.703 323.177C432.325 319.95 433.025 316.346 433.804 312.363H452.186V318.75H438.857L437.334 327.097C437.857 326.584 438.498 326.207 439.2 325.999C440.177 325.693 441.198 325.549 442.222 325.574Z" fill="white"/>
<path d="M254.915 423.949C254.928 422.647 254.77 421.349 254.443 420.089C254.174 419.013 253.723 417.991 253.109 417.067C252.581 416.273 251.878 415.611 251.055 415.131C250.267 414.671 249.369 414.434 248.457 414.446C247.527 414.431 246.609 414.668 245.801 415.131C244.984 415.615 244.286 416.277 243.759 417.067C243.146 417.992 242.691 419.014 242.413 420.089C242.086 421.349 241.927 422.647 241.941 423.949C241.925 425.244 242.084 426.534 242.413 427.786C242.709 428.858 243.184 429.872 243.818 430.785C244.348 431.576 245.045 432.24 245.86 432.733C246.671 433.186 247.587 433.419 248.516 433.406C249.427 433.415 250.323 433.183 251.114 432.733C251.935 432.244 252.636 431.579 253.168 430.785C253.782 429.87 254.233 428.855 254.502 427.786C254.831 426.534 254.99 425.244 254.974 423.949H254.915ZM261.998 423.949C262.021 426.121 261.674 428.281 260.971 430.336C260.346 432.177 259.386 433.886 258.138 435.377C256.955 436.778 255.486 437.909 253.829 438.694C252.137 439.473 250.296 439.875 248.434 439.875C246.571 439.875 244.731 439.473 243.039 438.694C241.391 437.905 239.93 436.775 238.753 435.377C237.506 433.886 236.545 432.177 235.92 430.336C234.55 426.193 234.55 421.718 235.92 417.574C236.548 415.731 237.508 414.019 238.753 412.522C239.933 411.124 241.393 409.99 243.039 409.192C244.727 408.4 246.569 407.989 248.434 407.989C250.299 407.989 252.141 408.4 253.829 409.192C255.484 409.985 256.953 411.12 258.138 412.522C259.383 414.019 260.343 415.731 260.971 417.574C261.675 419.625 262.022 421.781 261.998 423.949Z" fill="white"/>
<path d="M289.282 432.992V439.344H267.949V432.992H275.41V417.067C274.987 417.581 274.48 418.02 273.911 418.365C273.188 418.797 272.443 419.191 271.68 419.546C270.874 419.932 270.037 420.248 269.177 420.49C268.438 420.718 267.671 420.841 266.898 420.856V414.375C267.718 414.337 268.522 414.132 269.26 413.773C270.186 413.358 271.082 412.877 271.939 412.333C272.732 411.824 273.493 411.268 274.218 410.668C274.677 410.304 275.075 409.87 275.398 409.381H282.588V432.992H289.282Z" fill="white"/>
<path d="M297.426 515.749C297.44 514.447 297.281 513.149 296.954 511.889C296.688 510.812 296.236 509.789 295.62 508.867C295.088 508.073 294.387 507.407 293.566 506.919C292.775 506.468 291.879 506.236 290.969 506.246C290.039 506.233 289.123 506.465 288.312 506.919C287.519 507.403 286.839 508.051 286.317 508.819C285.701 509.742 285.249 510.764 284.983 511.842C284.652 513.101 284.49 514.399 284.499 515.702C284.487 516.997 284.65 518.287 284.983 519.539C285.254 520.607 285.705 521.621 286.317 522.537C286.845 523.327 287.543 523.989 288.36 524.474C289.167 524.936 290.085 525.173 291.016 525.158C291.928 525.17 292.825 524.933 293.613 524.474C294.436 523.993 295.139 523.331 295.667 522.537C296.279 521.621 296.73 520.607 297.001 519.539C297.33 518.287 297.489 516.996 297.473 515.702L297.426 515.749ZM304.51 515.749C304.532 517.921 304.185 520.081 303.482 522.136C302.859 523.978 301.898 525.687 300.649 527.177C299.469 528.578 297.999 529.705 296.34 530.483C294.648 531.261 292.807 531.663 290.945 531.663C289.082 531.663 287.242 531.261 285.55 530.483C283.902 529.699 282.441 528.572 281.264 527.177C280.019 525.684 279.059 523.976 278.431 522.136C277.062 517.988 277.062 513.51 278.431 509.362C279.062 507.524 280.022 505.816 281.264 504.321C282.446 502.926 283.906 501.793 285.55 500.992C287.236 500.191 289.079 499.776 290.945 499.776C292.811 499.776 294.654 500.191 296.34 500.992C297.996 501.785 299.464 502.92 300.649 504.321C301.896 505.813 302.857 507.522 303.482 509.362C304.185 511.418 304.532 513.577 304.51 515.749Z" fill="white"/>
<path d="M309.091 531.144C309.079 529.706 309.206 528.271 309.468 526.858C309.697 525.614 310.132 524.417 310.755 523.317C311.416 522.167 312.266 521.138 313.27 520.271C314.525 519.2 315.89 518.266 317.343 517.485L321.156 515.466C322.101 514.98 323.019 514.444 323.907 513.86C324.547 513.456 325.117 512.949 325.595 512.361C325.976 511.854 326.179 511.236 326.173 510.602C326.172 510.087 326.058 509.578 325.84 509.111C325.622 508.644 325.305 508.23 324.91 507.899C323.892 507.065 322.599 506.644 321.286 506.718C320.485 506.705 319.688 506.821 318.925 507.06C318.231 507.282 317.569 507.592 316.953 507.981C316.356 508.358 315.795 508.788 315.277 509.268C314.773 509.73 314.307 510.231 313.884 510.767L309.362 505.561C309.954 504.963 310.607 504.429 311.31 503.967C312.246 503.336 313.238 502.79 314.273 502.338C315.494 501.799 316.763 501.376 318.063 501.075C319.518 500.736 321.008 500.569 322.502 500.579C324.099 500.56 325.691 500.779 327.224 501.228C328.512 501.61 329.714 502.235 330.766 503.07C331.706 503.836 332.461 504.804 332.973 505.903C333.476 507.016 333.733 508.224 333.729 509.445C333.753 510.569 333.519 511.684 333.044 512.703C332.604 513.63 332.023 514.482 331.32 515.23C330.63 515.95 329.862 516.591 329.03 517.142C328.204 517.685 327.413 518.169 326.669 518.583L324.52 519.763C323.718 520.212 322.915 520.719 322.159 521.262C321.397 521.774 320.667 522.334 319.975 522.939C319.384 523.429 318.871 524.006 318.452 524.651H334.366V531.002L309.091 531.144Z" fill="white"/>
<path d="M417.358 523.411C417.372 522.109 417.213 520.811 416.886 519.551C416.609 518.477 416.158 517.456 415.552 516.529C415.023 515.735 414.321 515.073 413.497 514.592C412.709 514.134 411.812 513.897 410.9 513.908C409.969 513.893 409.052 514.13 408.244 514.592C407.421 515.073 406.718 515.735 406.19 516.529C405.578 517.454 405.127 518.476 404.856 519.551C404.528 520.811 404.37 522.109 404.384 523.411C404.368 524.705 404.527 525.996 404.856 527.248C405.132 528.314 405.582 529.328 406.19 530.247C406.718 531.04 407.421 531.702 408.244 532.183C409.052 532.645 409.969 532.882 410.9 532.867C411.812 532.878 412.709 532.641 413.497 532.183C414.321 531.702 415.023 531.04 415.552 530.247C416.154 529.325 416.605 528.313 416.886 527.248C417.215 525.996 417.373 524.705 417.358 523.411ZM424.441 523.411C424.464 525.583 424.117 527.743 423.414 529.798C422.786 531.638 421.826 533.346 420.581 534.839C419.395 536.234 417.926 537.361 416.272 538.145C414.577 538.92 412.735 539.321 410.871 539.321C409.007 539.321 407.165 538.92 405.47 538.145C403.828 537.357 402.371 536.23 401.196 534.839C399.943 533.35 398.978 531.64 398.351 529.798C396.998 525.648 396.998 521.175 398.351 517.024C398.981 515.183 399.946 513.474 401.196 511.983C402.374 510.589 403.829 509.455 405.47 508.654C407.158 507.854 409.003 507.439 410.871 507.439C412.739 507.439 414.584 507.854 416.272 508.654C417.925 509.451 419.392 510.585 420.581 511.983C421.823 513.478 422.784 515.186 423.414 517.024C424.117 519.08 424.464 521.239 424.441 523.411Z" fill="white"/>
<path d="M447.002 526.41C449.092 526.749 450.977 527.867 452.279 529.538C453.663 531.31 454.381 533.512 454.309 535.76C454.327 537.301 453.996 538.827 453.341 540.222C452.702 541.548 451.765 542.708 450.602 543.61C449.325 544.598 447.871 545.332 446.317 545.771C444.475 546.299 442.566 546.554 440.65 546.526C438.227 546.575 435.818 546.138 433.567 545.239C431.581 544.42 429.823 543.132 428.443 541.485L432.445 536.492C433.316 537.619 434.429 538.535 435.704 539.171C437.184 539.846 438.8 540.17 440.426 540.116C442.149 540.234 443.864 539.791 445.313 538.853C445.888 538.391 446.342 537.796 446.634 537.119C446.926 536.442 447.048 535.704 446.99 534.969C447.031 534.164 446.877 533.361 446.539 532.629C446.202 531.897 445.692 531.258 445.054 530.766C443.293 529.66 441.224 529.147 439.151 529.302H437.687V524.049H439.304C441.106 524.164 442.892 523.65 444.357 522.596C444.926 522.163 445.383 521.601 445.693 520.957C446.003 520.313 446.156 519.604 446.14 518.89C446.183 518.276 446.072 517.662 445.816 517.103C445.56 516.544 445.168 516.058 444.676 515.69C443.538 514.949 442.196 514.581 440.839 514.639C439.323 514.614 437.828 514.993 436.507 515.737C435.213 516.485 434.136 517.555 433.378 518.842L428.963 513.908C429.53 513.063 430.242 512.323 431.064 511.724C431.983 511.051 432.978 510.489 434.027 510.047C435.188 509.56 436.394 509.188 437.628 508.937C438.946 508.676 440.287 508.545 441.63 508.548C443.281 508.527 444.925 508.758 446.506 509.233C447.877 509.635 449.168 510.274 450.319 511.121C451.373 511.895 452.226 512.909 452.808 514.08C453.389 515.251 453.681 516.544 453.66 517.851C453.663 518.866 453.499 519.875 453.176 520.837C452.874 521.767 452.415 522.637 451.818 523.411C451.227 524.17 450.513 524.824 449.705 525.347C448.881 525.871 447.963 526.228 447.002 526.398V526.41Z" fill="white"/>
<path d="M469.551 424.197C469.565 422.891 469.406 421.589 469.079 420.325C468.804 419.253 468.349 418.235 467.733 417.315C467.206 416.521 466.508 415.856 465.691 415.367C464.888 414.918 463.984 414.682 463.064 414.682C462.145 414.682 461.24 414.918 460.437 415.367C459.614 415.852 458.911 416.518 458.383 417.315C457.772 418.236 457.321 419.253 457.049 420.325C456.722 421.589 456.563 422.891 456.577 424.197C456.562 425.492 456.721 426.782 457.049 428.034C457.325 429.097 457.776 430.106 458.383 431.021C458.915 431.815 459.617 432.48 460.437 432.969C461.24 433.418 462.145 433.653 463.064 433.653C463.984 433.653 464.888 433.418 465.691 432.969C466.506 432.477 467.203 431.812 467.733 431.021C468.344 430.107 468.799 429.097 469.079 428.034C469.407 426.782 469.566 425.492 469.551 424.197ZM476.635 424.197C476.658 426.365 476.311 428.521 475.608 430.572C475.005 432.412 474.069 434.125 472.845 435.625C471.659 437.023 470.19 438.153 468.536 438.942C466.841 439.718 464.999 440.119 463.135 440.119C461.271 440.119 459.429 439.718 457.734 438.942C456.092 438.149 454.636 437.019 453.46 435.625C452.205 434.138 451.24 432.428 450.615 430.584C449.261 426.438 449.261 421.968 450.615 417.822C451.24 415.979 452.205 414.269 453.46 412.781C454.641 411.387 456.095 410.249 457.734 409.44C459.424 408.647 461.268 408.236 463.135 408.236C465.002 408.236 466.846 408.647 468.536 409.44C470.187 410.246 471.654 411.383 472.845 412.781C474.093 414.272 475.053 415.982 475.678 417.822C476.381 419.877 476.728 422.037 476.706 424.209L476.635 424.197Z" fill="white"/>
<path d="M487.306 432.083H496.455V420.278L487.365 432.083H487.306ZM495.57 446.25V438.423H480.223V432.166L497.813 409.57H502.535V432.083H507.163V438.399H502.535V446.25H495.57Z" fill="white"/>
<path d="M370.609 153.472C370.579 153.757 370.439 154.019 370.218 154.203C369.998 154.386 369.714 154.475 369.429 154.452C369.143 154.475 368.859 154.386 368.639 154.203C368.418 154.019 368.278 153.757 368.248 153.472V146.448C368.278 146.163 368.418 145.901 368.639 145.717C368.859 145.534 369.143 145.445 369.429 145.468C369.714 145.445 369.998 145.534 370.218 145.717C370.439 145.901 370.579 146.163 370.609 146.448V153.472Z" fill="white"/>
<path d="M346.089 164.274C346.289 164.479 346.401 164.755 346.401 165.042C346.401 165.328 346.289 165.604 346.089 165.809C345.915 166.035 345.661 166.185 345.379 166.227C345.097 166.269 344.809 166.2 344.578 166.033L339.36 161.311C339.159 161.106 339.047 160.831 339.047 160.544C339.047 160.257 339.159 159.982 339.36 159.776C339.533 159.549 339.789 159.4 340.072 159.36C340.354 159.32 340.641 159.394 340.871 159.564L346.089 164.286V164.274Z" fill="white"/>
<path d="M337.707 189.715C337.995 189.715 338.272 189.827 338.479 190.028C338.686 190.228 338.807 190.501 338.816 190.789C338.869 191.073 338.808 191.365 338.646 191.603C338.485 191.842 338.237 192.007 337.955 192.065L330.978 192.796C330.691 192.797 330.415 192.684 330.21 192.483C330.004 192.282 329.886 192.009 329.88 191.722C329.828 191.442 329.887 191.153 330.046 190.917C330.205 190.68 330.451 190.516 330.73 190.459L337.707 189.715Z" fill="white"/>
<path d="M403.192 189.975C402.911 189.921 402.663 189.757 402.501 189.521C402.34 189.284 402.279 188.993 402.33 188.712C402.337 188.423 402.457 188.148 402.664 187.947C402.872 187.745 403.151 187.634 403.44 187.638L410.417 188.369C410.697 188.429 410.943 188.596 411.102 188.834C411.26 189.072 411.32 189.363 411.267 189.644C411.258 189.931 411.139 190.202 410.934 190.402C410.73 190.602 410.456 190.716 410.169 190.719L403.192 189.975Z" fill="white"/>
<path d="M395.035 164.475C394.801 164.642 394.512 164.712 394.228 164.67C393.944 164.628 393.687 164.478 393.512 164.251C393.311 164.045 393.199 163.77 393.199 163.483C393.199 163.196 393.311 162.921 393.512 162.716L398.718 157.994C398.949 157.823 399.238 157.749 399.523 157.789C399.808 157.829 400.066 157.978 400.241 158.206C400.439 158.413 400.549 158.688 400.549 158.974C400.549 159.259 400.439 159.534 400.241 159.741L395.023 164.463L395.035 164.475Z" fill="white"/>
<path d="M377.221 217.919C377.228 218.275 377.15 218.627 376.994 218.947C376.838 219.268 376.608 219.546 376.324 219.76C376.027 219.983 375.668 220.107 375.297 220.115H363.255C362.88 220.111 362.515 219.987 362.216 219.76C361.935 219.544 361.708 219.265 361.554 218.945C361.4 218.625 361.324 218.274 361.331 217.919V211.154H377.221V217.919ZM359.95 170.697C358.061 172.103 356.516 173.919 355.43 176.008C354.344 178.097 353.745 180.405 353.678 182.758C353.611 185.112 354.078 187.45 355.043 189.598C356.009 191.745 357.448 193.646 359.253 195.158C359.464 195.348 359.599 195.608 359.634 195.89C359.668 196.172 359.6 196.457 359.442 196.692C359.348 196.826 359.227 196.938 359.087 197.023C358.947 197.107 358.791 197.162 358.629 197.183C358.467 197.204 358.303 197.191 358.146 197.145C357.989 197.1 357.843 197.022 357.718 196.917C355.646 195.177 353.994 192.992 352.886 190.523C351.779 188.054 351.245 185.367 351.325 182.662C351.404 179.958 352.095 177.306 353.346 174.907C354.596 172.507 356.373 170.422 358.545 168.808C358.67 168.716 358.812 168.65 358.964 168.613C359.115 168.577 359.271 168.57 359.425 168.594C359.579 168.618 359.726 168.673 359.858 168.754C359.991 168.835 360.106 168.942 360.197 169.067C360.363 169.314 360.429 169.614 360.383 169.907C360.337 170.2 360.182 170.465 359.95 170.649V170.697ZM394.292 183.21C394.295 178.711 393.084 174.293 390.788 170.423C388.492 166.554 385.195 163.374 381.245 161.22C377.294 159.066 372.835 158.017 368.339 158.184C363.842 158.35 359.473 159.726 355.693 162.166C351.912 164.606 348.859 168.02 346.855 172.049C344.851 176.078 343.971 180.573 344.306 185.06C344.641 189.547 346.18 193.861 348.761 197.547C351.342 201.234 354.868 204.156 358.97 206.007V211.178V217.942C358.942 218.985 359.282 220.004 359.929 220.822C360.576 221.64 361.49 222.204 362.511 222.417C362.667 223.032 362.876 223.633 363.137 224.211C364.223 226.631 366.065 228.036 367.541 228.036H370.917C372.393 228.036 374.234 226.631 375.32 224.211C375.581 223.633 375.791 223.032 375.946 222.417C376.966 222.202 377.879 221.637 378.526 220.82C379.172 220.002 379.513 218.984 379.488 217.942V208.793V206.007C383.873 204.026 387.594 200.821 390.203 196.777C392.812 192.734 394.199 188.023 394.197 183.21H394.292Z" fill="white"/>
<path d="M312.715 110.875C311.074 111.82 309.035 112.293 306.598 112.293C303.895 112.293 301.762 111.547 300.199 110.055C298.645 108.555 297.867 106.492 297.867 103.867C297.867 101.227 298.719 99.0742 300.422 97.4102C302.125 95.7461 304.391 94.9141 307.219 94.9141C309 94.9141 310.57 95.1602 311.93 95.6523V99.2031C310.633 98.4531 309.047 98.0781 307.172 98.0781C305.602 98.0781 304.32 98.5898 303.328 99.6133C302.344 100.629 301.852 101.988 301.852 103.691C301.852 105.418 302.293 106.754 303.176 107.699C304.066 108.645 305.266 109.117 306.773 109.117C307.68 109.117 308.398 108.988 308.93 108.73V105.449H305.566V102.426H312.715V110.875ZM326.402 107.055H318.574C318.699 108.797 319.797 109.668 321.867 109.668C323.188 109.668 324.348 109.355 325.348 108.73V111.402C324.238 111.996 322.797 112.293 321.023 112.293C319.086 112.293 317.582 111.758 316.512 110.688C315.441 109.609 314.906 108.109 314.906 106.188C314.906 104.195 315.484 102.617 316.641 101.453C317.797 100.289 319.219 99.707 320.906 99.707C322.656 99.707 324.008 100.227 324.961 101.266C325.922 102.305 326.402 103.715 326.402 105.496V107.055ZM322.969 104.781C322.969 103.062 322.273 102.203 320.883 102.203C320.289 102.203 319.773 102.449 319.336 102.941C318.906 103.434 318.645 104.047 318.551 104.781H322.969ZM335.859 111.859C335.312 112.148 334.488 112.293 333.387 112.293C330.777 112.293 329.473 110.938 329.473 108.227V102.73H327.527V100H329.473V97.4102L333.164 96.3555V100H335.859V102.73H333.164V107.582C333.164 108.832 333.66 109.457 334.652 109.457C335.043 109.457 335.445 109.344 335.859 109.117V111.859ZM348.738 112H344.953V95.1953H348.738V112ZM363.797 112H360.105V105.332C360.105 103.473 359.441 102.543 358.113 102.543C357.473 102.543 356.945 102.789 356.531 103.281C356.117 103.773 355.91 104.398 355.91 105.156V112H352.207V100H355.91V101.898H355.957C356.84 100.438 358.125 99.707 359.812 99.707C362.469 99.707 363.797 101.355 363.797 104.652V112ZM378.164 100L373.699 112H369.48L365.227 100H369.188L371.273 107.395C371.508 108.23 371.645 108.941 371.684 109.527H371.73C371.785 108.973 371.93 108.285 372.164 107.465L374.297 100H378.164ZM385.23 112.293C383.23 112.293 381.656 111.734 380.508 110.617C379.367 109.492 378.797 107.969 378.797 106.047C378.797 104.062 379.391 102.512 380.578 101.395C381.766 100.27 383.371 99.707 385.395 99.707C387.387 99.707 388.949 100.27 390.082 101.395C391.215 102.512 391.781 103.992 391.781 105.836C391.781 107.828 391.195 109.402 390.023 110.559C388.859 111.715 387.262 112.293 385.23 112.293ZM385.324 102.543C384.449 102.543 383.77 102.844 383.285 103.445C382.801 104.047 382.559 104.898 382.559 106C382.559 108.305 383.488 109.457 385.348 109.457C387.121 109.457 388.008 108.273 388.008 105.906C388.008 103.664 387.113 102.543 385.324 102.543ZM397.887 112H394.184V94.2344H397.887V112ZM412.43 100L407.965 112H403.746L399.492 100H403.453L405.539 107.395C405.773 108.23 405.91 108.941 405.949 109.527H405.996C406.051 108.973 406.195 108.285 406.43 107.465L408.562 100H412.43ZM424.559 107.055H416.73C416.855 108.797 417.953 109.668 420.023 109.668C421.344 109.668 422.504 109.355 423.504 108.73V111.402C422.395 111.996 420.953 112.293 419.18 112.293C417.242 112.293 415.738 111.758 414.668 110.688C413.598 109.609 413.062 108.109 413.062 106.188C413.062 104.195 413.641 102.617 414.797 101.453C415.953 100.289 417.375 99.707 419.062 99.707C420.812 99.707 422.164 100.227 423.117 101.266C424.078 102.305 424.559 103.715 424.559 105.496V107.055ZM421.125 104.781C421.125 103.062 420.43 102.203 419.039 102.203C418.445 102.203 417.93 102.449 417.492 102.941C417.062 103.434 416.801 104.047 416.707 104.781H421.125ZM438.504 112H434.801V110.348H434.754C433.91 111.645 432.672 112.293 431.039 112.293C429.539 112.293 428.332 111.766 427.418 110.711C426.504 109.648 426.047 108.168 426.047 106.27C426.047 104.285 426.551 102.695 427.559 101.5C428.566 100.305 429.887 99.707 431.52 99.707C433.066 99.707 434.145 100.262 434.754 101.371H434.801V94.2344H438.504V112ZM434.871 106.164V105.262C434.871 104.48 434.645 103.832 434.191 103.316C433.738 102.801 433.148 102.543 432.422 102.543C431.602 102.543 430.961 102.867 430.5 103.516C430.039 104.156 429.809 105.039 429.809 106.164C429.809 107.219 430.031 108.031 430.477 108.602C430.922 109.172 431.539 109.457 432.328 109.457C433.078 109.457 433.688 109.156 434.156 108.555C434.633 107.953 434.871 107.156 434.871 106.164Z" fill="white"/>
<path d="M508.922 263V246.195H515.039C516.914 246.195 518.355 246.539 519.363 247.227C520.371 247.914 520.875 248.883 520.875 250.133C520.875 251.039 520.566 251.832 519.949 252.512C519.34 253.191 518.559 253.664 517.605 253.93V253.977C518.801 254.125 519.754 254.566 520.465 255.301C521.184 256.035 521.543 256.93 521.543 257.984C521.543 259.523 520.992 260.746 519.891 261.652C518.789 262.551 517.285 263 515.379 263H508.922ZM512.707 248.984V252.969H514.371C515.152 252.969 515.766 252.781 516.211 252.406C516.664 252.023 516.891 251.5 516.891 250.836C516.891 249.602 515.969 248.984 514.125 248.984H512.707ZM512.707 255.781V260.211H514.758C515.633 260.211 516.316 260.008 516.809 259.602C517.309 259.195 517.559 258.641 517.559 257.938C517.559 257.266 517.312 256.738 516.82 256.355C516.336 255.973 515.656 255.781 514.781 255.781H512.707ZM534.738 258.055H526.91C527.035 259.797 528.133 260.668 530.203 260.668C531.523 260.668 532.684 260.355 533.684 259.73V262.402C532.574 262.996 531.133 263.293 529.359 263.293C527.422 263.293 525.918 262.758 524.848 261.688C523.777 260.609 523.242 259.109 523.242 257.188C523.242 255.195 523.82 253.617 524.977 252.453C526.133 251.289 527.555 250.707 529.242 250.707C530.992 250.707 532.344 251.227 533.297 252.266C534.258 253.305 534.738 254.715 534.738 256.496V258.055ZM531.305 255.781C531.305 254.062 530.609 253.203 529.219 253.203C528.625 253.203 528.109 253.449 527.672 253.941C527.242 254.434 526.98 255.047 526.887 255.781H531.305ZM553.559 263H550.055V261.277H550.008C549.203 262.621 548.012 263.293 546.434 263.293C545.27 263.293 544.352 262.965 543.68 262.309C543.016 261.645 542.684 260.762 542.684 259.66C542.684 257.332 544.062 255.988 546.82 255.629L550.078 255.195C550.078 253.883 549.367 253.227 547.945 253.227C546.516 253.227 545.156 253.652 543.867 254.504V251.715C544.383 251.449 545.086 251.215 545.977 251.012C546.875 250.809 547.691 250.707 548.426 250.707C551.848 250.707 553.559 252.414 553.559 255.828V263ZM550.078 258.125V257.316L547.898 257.598C546.695 257.754 546.094 258.297 546.094 259.227C546.094 259.648 546.238 259.996 546.527 260.27C546.824 260.535 547.223 260.668 547.723 260.668C548.418 260.668 548.984 260.43 549.422 259.953C549.859 259.469 550.078 258.859 550.078 258.125ZM572.215 262.566C571.379 263.051 570.172 263.293 568.594 263.293C566.75 263.293 565.258 262.734 564.117 261.617C562.977 260.5 562.406 259.059 562.406 257.293C562.406 255.254 563.016 253.648 564.234 252.477C565.461 251.297 567.098 250.707 569.145 250.707C570.559 250.707 571.582 250.895 572.215 251.27V254.41C571.441 253.832 570.578 253.543 569.625 253.543C568.562 253.543 567.719 253.855 567.094 254.48C566.477 255.098 566.168 255.953 566.168 257.047C566.168 258.109 566.465 258.945 567.059 259.555C567.652 260.156 568.469 260.457 569.508 260.457C570.43 260.457 571.332 260.168 572.215 259.59V262.566ZM584.637 263H581.133V261.277H581.086C580.281 262.621 579.09 263.293 577.512 263.293C576.348 263.293 575.43 262.965 574.758 262.309C574.094 261.645 573.762 260.762 573.762 259.66C573.762 257.332 575.141 255.988 577.898 255.629L581.156 255.195C581.156 253.883 580.445 253.227 579.023 253.227C577.594 253.227 576.234 253.652 574.945 254.504V251.715C575.461 251.449 576.164 251.215 577.055 251.012C577.953 250.809 578.77 250.707 579.504 250.707C582.926 250.707 584.637 252.414 584.637 255.828V263ZM581.156 258.125V257.316L578.977 257.598C577.773 257.754 577.172 258.297 577.172 259.227C577.172 259.648 577.316 259.996 577.605 260.27C577.902 260.535 578.301 260.668 578.801 260.668C579.496 260.668 580.062 260.43 580.5 259.953C580.938 259.469 581.156 258.859 581.156 258.125ZM606.621 263H602.93V256.156C602.93 254.414 602.289 253.543 601.008 253.543C600.398 253.543 599.902 253.805 599.52 254.328C599.137 254.852 598.945 255.504 598.945 256.285V263H595.242V256.086C595.242 254.391 594.613 253.543 593.355 253.543C592.723 253.543 592.215 253.793 591.832 254.293C591.457 254.793 591.27 255.473 591.27 256.332V263H587.566V251H591.27V252.875H591.316C591.699 252.234 592.234 251.715 592.922 251.316C593.617 250.91 594.375 250.707 595.195 250.707C596.891 250.707 598.051 251.453 598.676 252.945C599.59 251.453 600.934 250.707 602.707 250.707C605.316 250.707 606.621 252.316 606.621 255.535V263ZM613.301 261.605H613.254V268.52H609.551V251H613.254V252.805H613.301C614.215 251.406 615.5 250.707 617.156 250.707C618.711 250.707 619.91 251.242 620.754 252.312C621.605 253.375 622.031 254.824 622.031 256.66C622.031 258.66 621.535 260.266 620.543 261.477C619.559 262.688 618.246 263.293 616.605 263.293C615.16 263.293 614.059 262.73 613.301 261.605ZM613.195 256.684V257.645C613.195 258.473 613.414 259.148 613.852 259.672C614.289 260.195 614.863 260.457 615.574 260.457C616.418 260.457 617.07 260.133 617.531 259.484C618 258.828 618.234 257.902 618.234 256.707C618.234 254.598 617.414 253.543 615.773 253.543C615.016 253.543 614.395 253.832 613.91 254.41C613.434 254.98 613.195 255.738 613.195 256.684ZM634.184 263H630.68V261.277H630.633C629.828 262.621 628.637 263.293 627.059 263.293C625.895 263.293 624.977 262.965 624.305 262.309C623.641 261.645 623.309 260.762 623.309 259.66C623.309 257.332 624.688 255.988 627.445 255.629L630.703 255.195C630.703 253.883 629.992 253.227 628.57 253.227C627.141 253.227 625.781 253.652 624.492 254.504V251.715C625.008 251.449 625.711 251.215 626.602 251.012C627.5 250.809 628.316 250.707 629.051 250.707C632.473 250.707 634.184 252.414 634.184 255.828V263ZM630.703 258.125V257.316L628.523 257.598C627.32 257.754 626.719 258.297 626.719 259.227C626.719 259.648 626.863 259.996 627.152 260.27C627.449 260.535 627.848 260.668 628.348 260.668C629.043 260.668 629.609 260.43 630.047 259.953C630.484 259.469 630.703 258.859 630.703 258.125ZM638.988 249.102C638.363 249.102 637.852 248.918 637.453 248.551C637.055 248.176 636.855 247.719 636.855 247.18C636.855 246.625 637.055 246.172 637.453 245.82C637.852 245.469 638.363 245.293 638.988 245.293C639.621 245.293 640.133 245.469 640.523 245.82C640.922 246.172 641.121 246.625 641.121 247.18C641.121 247.742 640.922 248.203 640.523 248.562C640.133 248.922 639.621 249.102 638.988 249.102ZM640.816 263H637.113V251H640.816V263ZM655.699 261.629C655.699 263.855 655.055 265.578 653.766 266.797C652.477 268.023 650.609 268.637 648.164 268.637C646.547 268.637 645.266 268.406 644.32 267.945V264.828C645.555 265.547 646.801 265.906 648.059 265.906C649.309 265.906 650.277 265.574 650.965 264.91C651.652 264.254 651.996 263.359 651.996 262.227V261.277H651.949C651.105 262.621 649.859 263.293 648.211 263.293C646.68 263.293 645.465 262.754 644.566 261.676C643.668 260.598 643.219 259.152 643.219 257.34C643.219 255.309 643.719 253.695 644.719 252.5C645.719 251.305 647.035 250.707 648.668 250.707C650.129 250.707 651.223 251.27 651.949 252.395H651.996V251H655.699V261.629ZM652.043 257.234V256.285C652.043 255.527 651.816 254.883 651.363 254.352C650.918 253.812 650.336 253.543 649.617 253.543C648.797 253.543 648.152 253.863 647.684 254.504C647.215 255.145 646.98 256.047 646.98 257.211C646.98 258.211 647.203 259.004 647.648 259.59C648.094 260.168 648.703 260.457 649.477 260.457C650.242 260.457 650.859 260.164 651.328 259.578C651.805 258.984 652.043 258.203 652.043 257.234ZM670.383 263H666.691V256.332C666.691 254.473 666.027 253.543 664.699 253.543C664.059 253.543 663.531 253.789 663.117 254.281C662.703 254.773 662.496 255.398 662.496 256.156V263H658.793V251H662.496V252.898H662.543C663.426 251.438 664.711 250.707 666.398 250.707C669.055 250.707 670.383 252.355 670.383 255.652V263ZM684.105 258.055H676.277C676.402 259.797 677.5 260.668 679.57 260.668C680.891 260.668 682.051 260.355 683.051 259.73V262.402C681.941 262.996 680.5 263.293 678.727 263.293C676.789 263.293 675.285 262.758 674.215 261.688C673.145 260.609 672.609 259.109 672.609 257.188C672.609 255.195 673.188 253.617 674.344 252.453C675.5 251.289 676.922 250.707 678.609 250.707C680.359 250.707 681.711 251.227 682.664 252.266C683.625 253.305 684.105 254.715 684.105 256.496V258.055ZM680.672 255.781C680.672 254.062 679.977 253.203 678.586 253.203C677.992 253.203 677.477 253.449 677.039 253.941C676.609 254.434 676.348 255.047 676.254 255.781H680.672ZM694.137 254.34C693.691 254.098 693.172 253.977 692.578 253.977C691.773 253.977 691.145 254.273 690.691 254.867C690.238 255.453 690.012 256.254 690.012 257.27V263H686.309V251H690.012V253.227H690.059C690.645 251.602 691.699 250.789 693.223 250.789C693.613 250.789 693.918 250.836 694.137 250.93V254.34ZM514.277 295.293C512.277 295.293 510.703 294.734 509.555 293.617C508.414 292.492 507.844 290.969 507.844 289.047C507.844 287.062 508.438 285.512 509.625 284.395C510.812 283.27 512.418 282.707 514.441 282.707C516.434 282.707 517.996 283.27 519.129 284.395C520.262 285.512 520.828 286.992 520.828 288.836C520.828 290.828 520.242 292.402 519.07 293.559C517.906 294.715 516.309 295.293 514.277 295.293ZM514.371 285.543C513.496 285.543 512.816 285.844 512.332 286.445C511.848 287.047 511.605 287.898 511.605 289C511.605 291.305 512.535 292.457 514.395 292.457C516.168 292.457 517.055 291.273 517.055 288.906C517.055 286.664 516.16 285.543 514.371 285.543ZM534.82 295H531.129V288.332C531.129 286.473 530.465 285.543 529.137 285.543C528.496 285.543 527.969 285.789 527.555 286.281C527.141 286.773 526.934 287.398 526.934 288.156V295H523.23V283H526.934V284.898H526.98C527.863 283.438 529.148 282.707 530.836 282.707C533.492 282.707 534.82 284.355 534.82 287.652V295ZM543.609 294.684V291.684C544.219 292.051 544.824 292.324 545.426 292.504C546.035 292.684 546.609 292.773 547.148 292.773C547.805 292.773 548.32 292.684 548.695 292.504C549.078 292.324 549.27 292.051 549.27 291.684C549.27 291.449 549.184 291.254 549.012 291.098C548.84 290.941 548.617 290.805 548.344 290.688C548.078 290.57 547.785 290.465 547.465 290.371C547.145 290.277 546.836 290.172 546.539 290.055C546.062 289.875 545.641 289.684 545.273 289.48C544.914 289.27 544.609 289.027 544.359 288.754C544.117 288.48 543.93 288.164 543.797 287.805C543.672 287.445 543.609 287.02 543.609 286.527C543.609 285.855 543.754 285.277 544.043 284.793C544.34 284.309 544.73 283.914 545.215 283.609C545.707 283.297 546.266 283.07 546.891 282.93C547.523 282.781 548.18 282.707 548.859 282.707C549.391 282.707 549.93 282.75 550.477 282.836C551.023 282.914 551.562 283.031 552.094 283.188V286.047C551.625 285.773 551.121 285.57 550.582 285.438C550.051 285.297 549.527 285.227 549.012 285.227C548.77 285.227 548.539 285.25 548.32 285.297C548.109 285.336 547.922 285.398 547.758 285.484C547.594 285.562 547.465 285.668 547.371 285.801C547.277 285.926 547.23 286.07 547.23 286.234C547.23 286.453 547.301 286.641 547.441 286.797C547.582 286.953 547.766 287.09 547.992 287.207C548.219 287.316 548.469 287.418 548.742 287.512C549.023 287.598 549.301 287.688 549.574 287.781C550.066 287.953 550.512 288.141 550.91 288.344C551.309 288.547 551.648 288.785 551.93 289.059C552.219 289.332 552.438 289.652 552.586 290.02C552.742 290.387 552.82 290.824 552.82 291.332C552.82 292.043 552.664 292.652 552.352 293.16C552.047 293.66 551.637 294.07 551.121 294.391C550.613 294.703 550.023 294.93 549.352 295.07C548.688 295.219 547.996 295.293 547.277 295.293C545.957 295.293 544.734 295.09 543.609 294.684ZM560.684 295.293C558.684 295.293 557.109 294.734 555.961 293.617C554.82 292.492 554.25 290.969 554.25 289.047C554.25 287.062 554.844 285.512 556.031 284.395C557.219 283.27 558.824 282.707 560.848 282.707C562.84 282.707 564.402 283.27 565.535 284.395C566.668 285.512 567.234 286.992 567.234 288.836C567.234 290.828 566.648 292.402 565.477 293.559C564.312 294.715 562.715 295.293 560.684 295.293ZM560.777 285.543C559.902 285.543 559.223 285.844 558.738 286.445C558.254 287.047 558.012 287.898 558.012 289C558.012 291.305 558.941 292.457 560.801 292.457C562.574 292.457 563.461 291.273 563.461 288.906C563.461 286.664 562.566 285.543 560.777 285.543ZM578.73 294.566C577.895 295.051 576.688 295.293 575.109 295.293C573.266 295.293 571.773 294.734 570.633 293.617C569.492 292.5 568.922 291.059 568.922 289.293C568.922 287.254 569.531 285.648 570.75 284.477C571.977 283.297 573.613 282.707 575.66 282.707C577.074 282.707 578.098 282.895 578.73 283.27V286.41C577.957 285.832 577.094 285.543 576.141 285.543C575.078 285.543 574.234 285.855 573.609 286.48C572.992 287.098 572.684 287.953 572.684 289.047C572.684 290.109 572.98 290.945 573.574 291.555C574.168 292.156 574.984 292.457 576.023 292.457C576.945 292.457 577.848 292.168 578.73 291.59V294.566ZM583.043 281.102C582.418 281.102 581.906 280.918 581.508 280.551C581.109 280.176 580.91 279.719 580.91 279.18C580.91 278.625 581.109 278.172 581.508 277.82C581.906 277.469 582.418 277.293 583.043 277.293C583.676 277.293 584.188 277.469 584.578 277.82C584.977 278.172 585.176 278.625 585.176 279.18C585.176 279.742 584.977 280.203 584.578 280.562C584.188 280.922 583.676 281.102 583.043 281.102ZM584.871 295H581.168V283H584.871V295ZM597.973 295H594.469V293.277H594.422C593.617 294.621 592.426 295.293 590.848 295.293C589.684 295.293 588.766 294.965 588.094 294.309C587.43 293.645 587.098 292.762 587.098 291.66C587.098 289.332 588.477 287.988 591.234 287.629L594.492 287.195C594.492 285.883 593.781 285.227 592.359 285.227C590.93 285.227 589.57 285.652 588.281 286.504V283.715C588.797 283.449 589.5 283.215 590.391 283.012C591.289 282.809 592.105 282.707 592.84 282.707C596.262 282.707 597.973 284.414 597.973 287.828V295ZM594.492 290.125V289.316L592.312 289.598C591.109 289.754 590.508 290.297 590.508 291.227C590.508 291.648 590.652 291.996 590.941 292.27C591.238 292.535 591.637 292.668 592.137 292.668C592.832 292.668 593.398 292.43 593.836 291.953C594.273 291.469 594.492 290.859 594.492 290.125ZM604.605 295H600.902V277.234H604.605V295ZM633.41 295H629.719V288.156C629.719 286.414 629.078 285.543 627.797 285.543C627.188 285.543 626.691 285.805 626.309 286.328C625.926 286.852 625.734 287.504 625.734 288.285V295H622.031V288.086C622.031 286.391 621.402 285.543 620.145 285.543C619.512 285.543 619.004 285.793 618.621 286.293C618.246 286.793 618.059 287.473 618.059 288.332V295H614.355V283H618.059V284.875H618.105C618.488 284.234 619.023 283.715 619.711 283.316C620.406 282.91 621.164 282.707 621.984 282.707C623.68 282.707 624.84 283.453 625.465 284.945C626.379 283.453 627.723 282.707 629.496 282.707C632.105 282.707 633.41 284.316 633.41 287.535V295ZM647.121 290.055H639.293C639.418 291.797 640.516 292.668 642.586 292.668C643.906 292.668 645.066 292.355 646.066 291.73V294.402C644.957 294.996 643.516 295.293 641.742 295.293C639.805 295.293 638.301 294.758 637.23 293.688C636.16 292.609 635.625 291.109 635.625 289.188C635.625 287.195 636.203 285.617 637.359 284.453C638.516 283.289 639.938 282.707 641.625 282.707C643.375 282.707 644.727 283.227 645.68 284.266C646.641 285.305 647.121 286.715 647.121 288.496V290.055ZM643.688 287.781C643.688 286.062 642.992 285.203 641.602 285.203C641.008 285.203 640.492 285.449 640.055 285.941C639.625 286.434 639.363 287.047 639.27 287.781H643.688ZM661.066 295H657.363V293.348H657.316C656.473 294.645 655.234 295.293 653.602 295.293C652.102 295.293 650.895 294.766 649.98 293.711C649.066 292.648 648.609 291.168 648.609 289.27C648.609 287.285 649.113 285.695 650.121 284.5C651.129 283.305 652.449 282.707 654.082 282.707C655.629 282.707 656.707 283.262 657.316 284.371H657.363V277.234H661.066V295ZM657.434 289.164V288.262C657.434 287.48 657.207 286.832 656.754 286.316C656.301 285.801 655.711 285.543 654.984 285.543C654.164 285.543 653.523 285.867 653.062 286.516C652.602 287.156 652.371 288.039 652.371 289.164C652.371 290.219 652.594 291.031 653.039 291.602C653.484 292.172 654.102 292.457 654.891 292.457C655.641 292.457 656.25 292.156 656.719 291.555C657.195 290.953 657.434 290.156 657.434 289.164ZM666.059 281.102C665.434 281.102 664.922 280.918 664.523 280.551C664.125 280.176 663.926 279.719 663.926 279.18C663.926 278.625 664.125 278.172 664.523 277.82C664.922 277.469 665.434 277.293 666.059 277.293C666.691 277.293 667.203 277.469 667.594 277.82C667.992 278.172 668.191 278.625 668.191 279.18C668.191 279.742 667.992 280.203 667.594 280.562C667.203 280.922 666.691 281.102 666.059 281.102ZM667.887 295H664.184V283H667.887V295ZM680.988 295H677.484V293.277H677.438C676.633 294.621 675.441 295.293 673.863 295.293C672.699 295.293 671.781 294.965 671.109 294.309C670.445 293.645 670.113 292.762 670.113 291.66C670.113 289.332 671.492 287.988 674.25 287.629L677.508 287.195C677.508 285.883 676.797 285.227 675.375 285.227C673.945 285.227 672.586 285.652 671.297 286.504V283.715C671.812 283.449 672.516 283.215 673.406 283.012C674.305 282.809 675.121 282.707 675.855 282.707C679.277 282.707 680.988 284.414 680.988 287.828V295ZM677.508 290.125V289.316L675.328 289.598C674.125 289.754 673.523 290.297 673.523 291.227C673.523 291.648 673.668 291.996 673.957 292.27C674.254 292.535 674.652 292.668 675.152 292.668C675.848 292.668 676.414 292.43 676.852 291.953C677.289 291.469 677.508 290.859 677.508 290.125ZM512.309 325.605H512.262V332.52H508.559V315H512.262V316.805H512.309C513.223 315.406 514.508 314.707 516.164 314.707C517.719 314.707 518.918 315.242 519.762 316.312C520.613 317.375 521.039 318.824 521.039 320.66C521.039 322.66 520.543 324.266 519.551 325.477C518.566 326.688 517.254 327.293 515.613 327.293C514.168 327.293 513.066 326.73 512.309 325.605ZM512.203 320.684V321.645C512.203 322.473 512.422 323.148 512.859 323.672C513.297 324.195 513.871 324.457 514.582 324.457C515.426 324.457 516.078 324.133 516.539 323.484C517.008 322.828 517.242 321.902 517.242 320.707C517.242 318.598 516.422 317.543 514.781 317.543C514.023 317.543 513.402 317.832 512.918 318.41C512.441 318.98 512.203 319.738 512.203 320.684ZM527.145 327H523.441V309.234H527.145V327ZM540.246 327H536.742V325.277H536.695C535.891 326.621 534.699 327.293 533.121 327.293C531.957 327.293 531.039 326.965 530.367 326.309C529.703 325.645 529.371 324.762 529.371 323.66C529.371 321.332 530.75 319.988 533.508 319.629L536.766 319.195C536.766 317.883 536.055 317.227 534.633 317.227C533.203 317.227 531.844 317.652 530.555 318.504V315.715C531.07 315.449 531.773 315.215 532.664 315.012C533.562 314.809 534.379 314.707 535.113 314.707C538.535 314.707 540.246 316.414 540.246 319.828V327ZM536.766 322.125V321.316L534.586 321.598C533.383 321.754 532.781 322.297 532.781 323.227C532.781 323.648 532.926 323.996 533.215 324.27C533.512 324.535 533.91 324.668 534.41 324.668C535.105 324.668 535.672 324.43 536.109 323.953C536.547 323.469 536.766 322.859 536.766 322.125ZM550.43 326.859C549.883 327.148 549.059 327.293 547.957 327.293C545.348 327.293 544.043 325.938 544.043 323.227V317.73H542.098V315H544.043V312.41L547.734 311.355V315H550.43V317.73H547.734V322.582C547.734 323.832 548.23 324.457 549.223 324.457C549.613 324.457 550.016 324.344 550.43 324.117V326.859ZM560.355 312.07C559.879 311.883 559.422 311.789 558.984 311.789C557.797 311.789 557.203 312.434 557.203 313.723V315H559.945V317.73H557.203V327H553.512V317.73H551.496V315H553.512V313.512C553.512 312.145 553.957 311.043 554.848 310.207C555.738 309.371 556.949 308.953 558.48 308.953C559.23 308.953 559.855 309.031 560.355 309.188V312.07ZM567.457 327.293C565.457 327.293 563.883 326.734 562.734 325.617C561.594 324.492 561.023 322.969 561.023 321.047C561.023 319.062 561.617 317.512 562.805 316.395C563.992 315.27 565.598 314.707 567.621 314.707C569.613 314.707 571.176 315.27 572.309 316.395C573.441 317.512 574.008 318.992 574.008 320.836C574.008 322.828 573.422 324.402 572.25 325.559C571.086 326.715 569.488 327.293 567.457 327.293ZM567.551 317.543C566.676 317.543 565.996 317.844 565.512 318.445C565.027 319.047 564.785 319.898 564.785 321C564.785 323.305 565.715 324.457 567.574 324.457C569.348 324.457 570.234 323.273 570.234 320.906C570.234 318.664 569.34 317.543 567.551 317.543ZM584.238 318.34C583.793 318.098 583.273 317.977 582.68 317.977C581.875 317.977 581.246 318.273 580.793 318.867C580.34 319.453 580.113 320.254 580.113 321.27V327H576.41V315H580.113V317.227H580.16C580.746 315.602 581.801 314.789 583.324 314.789C583.715 314.789 584.02 314.836 584.238 314.93V318.34ZM605.098 327H601.406V320.156C601.406 318.414 600.766 317.543 599.484 317.543C598.875 317.543 598.379 317.805 597.996 318.328C597.613 318.852 597.422 319.504 597.422 320.285V327H593.719V320.086C593.719 318.391 593.09 317.543 591.832 317.543C591.199 317.543 590.691 317.793 590.309 318.293C589.934 318.793 589.746 319.473 589.746 320.332V327H586.043V315H589.746V316.875H589.793C590.176 316.234 590.711 315.715 591.398 315.316C592.094 314.91 592.852 314.707 593.672 314.707C595.367 314.707 596.527 315.453 597.152 316.945C598.066 315.453 599.41 314.707 601.184 314.707C603.793 314.707 605.098 316.316 605.098 319.535V327ZM607.242 326.684V323.684C607.852 324.051 608.457 324.324 609.059 324.504C609.668 324.684 610.242 324.773 610.781 324.773C611.438 324.773 611.953 324.684 612.328 324.504C612.711 324.324 612.902 324.051 612.902 323.684C612.902 323.449 612.816 323.254 612.645 323.098C612.473 322.941 612.25 322.805 611.977 322.688C611.711 322.57 611.418 322.465 611.098 322.371C610.777 322.277 610.469 322.172 610.172 322.055C609.695 321.875 609.273 321.684 608.906 321.48C608.547 321.27 608.242 321.027 607.992 320.754C607.75 320.48 607.562 320.164 607.43 319.805C607.305 319.445 607.242 319.02 607.242 318.527C607.242 317.855 607.387 317.277 607.676 316.793C607.973 316.309 608.363 315.914 608.848 315.609C609.34 315.297 609.898 315.07 610.523 314.93C611.156 314.781 611.812 314.707 612.492 314.707C613.023 314.707 613.562 314.75 614.109 314.836C614.656 314.914 615.195 315.031 615.727 315.188V318.047C615.258 317.773 614.754 317.57 614.215 317.438C613.684 317.297 613.16 317.227 612.645 317.227C612.402 317.227 612.172 317.25 611.953 317.297C611.742 317.336 611.555 317.398 611.391 317.484C611.227 317.562 611.098 317.668 611.004 317.801C610.91 317.926 610.863 318.07 610.863 318.234C610.863 318.453 610.934 318.641 611.074 318.797C611.215 318.953 611.398 319.09 611.625 319.207C611.852 319.316 612.102 319.418 612.375 319.512C612.656 319.598 612.934 319.688 613.207 319.781C613.699 319.953 614.145 320.141 614.543 320.344C614.941 320.547 615.281 320.785 615.562 321.059C615.852 321.332 616.07 321.652 616.219 322.02C616.375 322.387 616.453 322.824 616.453 323.332C616.453 324.043 616.297 324.652 615.984 325.16C615.68 325.66 615.27 326.07 614.754 326.391C614.246 326.703 613.656 326.93 612.984 327.07C612.32 327.219 611.629 327.293 610.91 327.293C609.59 327.293 608.367 327.09 607.242 326.684Z" fill="white"/>
<path d="M545.914 519.195L540.125 536H535.836L530.117 519.195H534.195L537.699 530.891C537.887 531.523 538 532.082 538.039 532.566H538.109C538.164 532.043 538.285 531.469 538.473 530.844L541.953 519.195H545.914ZM551.715 536.293C549.715 536.293 548.141 535.734 546.992 534.617C545.852 533.492 545.281 531.969 545.281 530.047C545.281 528.062 545.875 526.512 547.062 525.395C548.25 524.27 549.855 523.707 551.879 523.707C553.871 523.707 555.434 524.27 556.566 525.395C557.699 526.512 558.266 527.992 558.266 529.836C558.266 531.828 557.68 533.402 556.508 534.559C555.344 535.715 553.746 536.293 551.715 536.293ZM551.809 526.543C550.934 526.543 550.254 526.844 549.77 527.445C549.285 528.047 549.043 528.898 549.043 530C549.043 532.305 549.973 533.457 551.832 533.457C553.605 533.457 554.492 532.273 554.492 529.906C554.492 527.664 553.598 526.543 551.809 526.543ZM564.371 536H560.668V518.234H564.371V536ZM578.891 536H575.199V534.172H575.141C574.227 535.586 573.004 536.293 571.473 536.293C568.691 536.293 567.301 534.609 567.301 531.242V524H570.992V530.914C570.992 532.609 571.664 533.457 573.008 533.457C573.672 533.457 574.203 533.227 574.602 532.766C575 532.297 575.199 531.664 575.199 530.867V524H578.891V536ZM593.609 536H589.918V529.332C589.918 527.473 589.254 526.543 587.926 526.543C587.285 526.543 586.758 526.789 586.344 527.281C585.93 527.773 585.723 528.398 585.723 529.156V536H582.02V524H585.723V525.898H585.77C586.652 524.438 587.938 523.707 589.625 523.707C592.281 523.707 593.609 525.355 593.609 528.652V536ZM603.805 535.859C603.258 536.148 602.434 536.293 601.332 536.293C598.723 536.293 597.418 534.938 597.418 532.227V526.73H595.473V524H597.418V521.41L601.109 520.355V524H603.805V526.73H601.109V531.582C601.109 532.832 601.605 533.457 602.598 533.457C602.988 533.457 603.391 533.344 603.805 533.117V535.859ZM616.59 531.055H608.762C608.887 532.797 609.984 533.668 612.055 533.668C613.375 533.668 614.535 533.355 615.535 532.73V535.402C614.426 535.996 612.984 536.293 611.211 536.293C609.273 536.293 607.77 535.758 606.699 534.688C605.629 533.609 605.094 532.109 605.094 530.188C605.094 528.195 605.672 526.617 606.828 525.453C607.984 524.289 609.406 523.707 611.094 523.707C612.844 523.707 614.195 524.227 615.148 525.266C616.109 526.305 616.59 527.715 616.59 529.496V531.055ZM613.156 528.781C613.156 527.062 612.461 526.203 611.07 526.203C610.477 526.203 609.961 526.449 609.523 526.941C609.094 527.434 608.832 528.047 608.738 528.781H613.156ZM629.574 531.055H621.746C621.871 532.797 622.969 533.668 625.039 533.668C626.359 533.668 627.52 533.355 628.52 532.73V535.402C627.41 535.996 625.969 536.293 624.195 536.293C622.258 536.293 620.754 535.758 619.684 534.688C618.613 533.609 618.078 532.109 618.078 530.188C618.078 528.195 618.656 526.617 619.812 525.453C620.969 524.289 622.391 523.707 624.078 523.707C625.828 523.707 627.18 524.227 628.133 525.266C629.094 526.305 629.574 527.715 629.574 529.496V531.055ZM626.141 528.781C626.141 527.062 625.445 526.203 624.055 526.203C623.461 526.203 622.945 526.449 622.508 526.941C622.078 527.434 621.816 528.047 621.723 528.781H626.141ZM639.605 527.34C639.16 527.098 638.641 526.977 638.047 526.977C637.242 526.977 636.613 527.273 636.16 527.867C635.707 528.453 635.48 529.254 635.48 530.27V536H631.777V524H635.48V526.227H635.527C636.113 524.602 637.168 523.789 638.691 523.789C639.082 523.789 639.387 523.836 639.605 523.93V527.34ZM653.691 536.293C651.691 536.293 650.117 535.734 648.969 534.617C647.828 533.492 647.258 531.969 647.258 530.047C647.258 528.062 647.852 526.512 649.039 525.395C650.227 524.27 651.832 523.707 653.855 523.707C655.848 523.707 657.41 524.27 658.543 525.395C659.676 526.512 660.242 527.992 660.242 529.836C660.242 531.828 659.656 533.402 658.484 534.559C657.32 535.715 655.723 536.293 653.691 536.293ZM653.785 526.543C652.91 526.543 652.23 526.844 651.746 527.445C651.262 528.047 651.02 528.898 651.02 530C651.02 532.305 651.949 533.457 653.809 533.457C655.582 533.457 656.469 532.273 656.469 529.906C656.469 527.664 655.574 526.543 653.785 526.543ZM674.234 536H670.543V529.332C670.543 527.473 669.879 526.543 668.551 526.543C667.91 526.543 667.383 526.789 666.969 527.281C666.555 527.773 666.348 528.398 666.348 529.156V536H662.645V524H666.348V525.898H666.395C667.277 524.438 668.562 523.707 670.25 523.707C672.906 523.707 674.234 525.355 674.234 528.652V536ZM545.715 566.875C544.074 567.82 542.035 568.293 539.598 568.293C536.895 568.293 534.762 567.547 533.199 566.055C531.645 564.555 530.867 562.492 530.867 559.867C530.867 557.227 531.719 555.074 533.422 553.41C535.125 551.746 537.391 550.914 540.219 550.914C542 550.914 543.57 551.16 544.93 551.652V555.203C543.633 554.453 542.047 554.078 540.172 554.078C538.602 554.078 537.32 554.59 536.328 555.613C535.344 556.629 534.852 557.988 534.852 559.691C534.852 561.418 535.293 562.754 536.176 563.699C537.066 564.645 538.266 565.117 539.773 565.117C540.68 565.117 541.398 564.988 541.93 564.73V561.449H538.566V558.426H545.715V566.875ZM556.449 559.34C556.004 559.098 555.484 558.977 554.891 558.977C554.086 558.977 553.457 559.273 553.004 559.867C552.551 560.453 552.324 561.254 552.324 562.27V568H548.621V556H552.324V558.227H552.371C552.957 556.602 554.012 555.789 555.535 555.789C555.926 555.789 556.23 555.836 556.449 555.93V559.34ZM563.809 568.293C561.809 568.293 560.234 567.734 559.086 566.617C557.945 565.492 557.375 563.969 557.375 562.047C557.375 560.062 557.969 558.512 559.156 557.395C560.344 556.27 561.949 555.707 563.973 555.707C565.965 555.707 567.527 556.27 568.66 557.395C569.793 558.512 570.359 559.992 570.359 561.836C570.359 563.828 569.773 565.402 568.602 566.559C567.438 567.715 565.84 568.293 563.809 568.293ZM563.902 558.543C563.027 558.543 562.348 558.844 561.863 559.445C561.379 560.047 561.137 560.898 561.137 562C561.137 564.305 562.066 565.457 563.926 565.457C565.699 565.457 566.586 564.273 566.586 561.906C566.586 559.664 565.691 558.543 563.902 558.543ZM584.164 568H580.473V566.172H580.414C579.5 567.586 578.277 568.293 576.746 568.293C573.965 568.293 572.574 566.609 572.574 563.242V556H576.266V562.914C576.266 564.609 576.938 565.457 578.281 565.457C578.945 565.457 579.477 565.227 579.875 564.766C580.273 564.297 580.473 563.664 580.473 562.867V556H584.164V568ZM598.883 568H595.191V561.332C595.191 559.473 594.527 558.543 593.199 558.543C592.559 558.543 592.031 558.789 591.617 559.281C591.203 559.773 590.996 560.398 590.996 561.156V568H587.293V556H590.996V557.898H591.043C591.926 556.438 593.211 555.707 594.898 555.707C597.555 555.707 598.883 557.355 598.883 560.652V568ZM613.566 568H609.863V566.348H609.816C608.973 567.645 607.734 568.293 606.102 568.293C604.602 568.293 603.395 567.766 602.48 566.711C601.566 565.648 601.109 564.168 601.109 562.27C601.109 560.285 601.613 558.695 602.621 557.5C603.629 556.305 604.949 555.707 606.582 555.707C608.129 555.707 609.207 556.262 609.816 557.371H609.863V550.234H613.566V568ZM609.934 562.164V561.262C609.934 560.48 609.707 559.832 609.254 559.316C608.801 558.801 608.211 558.543 607.484 558.543C606.664 558.543 606.023 558.867 605.562 559.516C605.102 560.156 604.871 561.039 604.871 562.164C604.871 563.219 605.094 564.031 605.539 564.602C605.984 565.172 606.602 565.457 607.391 565.457C608.141 565.457 608.75 565.156 609.219 564.555C609.695 563.953 609.934 563.156 609.934 562.164Z" fill="white"/>
<path d="M68.707 568H64.9219V551.195H68.707V568ZM83.7656 568H80.0742V561.332C80.0742 559.473 79.4102 558.543 78.082 558.543C77.4414 558.543 76.9141 558.789 76.5 559.281C76.0859 559.773 75.8789 560.398 75.8789 561.156V568H72.1758V556H75.8789V557.898H75.9258C76.8086 556.438 78.0938 555.707 79.7812 555.707C82.4375 555.707 83.7656 557.355 83.7656 560.652V568ZM93.9609 567.859C93.4141 568.148 92.5898 568.293 91.4883 568.293C88.8789 568.293 87.5742 566.938 87.5742 564.227V558.73H85.6289V556H87.5742V553.41L91.2656 552.355V556H93.9609V558.73H91.2656V563.582C91.2656 564.832 91.7617 565.457 92.7539 565.457C93.1445 565.457 93.5469 565.344 93.9609 565.117V567.859ZM106.746 563.055H98.918C99.043 564.797 100.141 565.668 102.211 565.668C103.531 565.668 104.691 565.355 105.691 564.73V567.402C104.582 567.996 103.141 568.293 101.367 568.293C99.4297 568.293 97.9258 567.758 96.8555 566.688C95.7852 565.609 95.25 564.109 95.25 562.188C95.25 560.195 95.8281 558.617 96.9844 557.453C98.1406 556.289 99.5625 555.707 101.25 555.707C103 555.707 104.352 556.227 105.305 557.266C106.266 558.305 106.746 559.715 106.746 561.496V563.055ZM103.312 560.781C103.312 559.062 102.617 558.203 101.227 558.203C100.633 558.203 100.117 558.449 99.6797 558.941C99.25 559.434 98.9883 560.047 98.8945 560.781H103.312ZM116.777 559.34C116.332 559.098 115.812 558.977 115.219 558.977C114.414 558.977 113.785 559.273 113.332 559.867C112.879 560.453 112.652 561.254 112.652 562.27V568H108.949V556H112.652V558.227H112.699C113.285 556.602 114.34 555.789 115.863 555.789C116.254 555.789 116.559 555.836 116.777 555.93V559.34ZM130.172 568H126.48V561.332C126.48 559.473 125.816 558.543 124.488 558.543C123.848 558.543 123.32 558.789 122.906 559.281C122.492 559.773 122.285 560.398 122.285 561.156V568H118.582V556H122.285V557.898H122.332C123.215 556.438 124.5 555.707 126.188 555.707C128.844 555.707 130.172 557.355 130.172 560.652V568ZM157.125 556L153.668 568H149.777L148.008 560.969C147.891 560.5 147.824 559.988 147.809 559.434H147.738C147.684 560.043 147.605 560.539 147.504 560.922L145.605 568H141.762L138.375 556H142.148L143.801 563.828C143.879 564.195 143.938 564.641 143.977 565.164H144.047C144.086 564.617 144.156 564.156 144.258 563.781L146.32 556H149.848L151.699 563.828C151.746 564.023 151.801 564.477 151.863 565.188H151.945C151.984 564.734 152.047 564.281 152.133 563.828L153.691 556H157.125ZM160.77 554.102C160.145 554.102 159.633 553.918 159.234 553.551C158.836 553.176 158.637 552.719 158.637 552.18C158.637 551.625 158.836 551.172 159.234 550.82C159.633 550.469 160.145 550.293 160.77 550.293C161.402 550.293 161.914 550.469 162.305 550.82C162.703 551.172 162.902 551.625 162.902 552.18C162.902 552.742 162.703 553.203 162.305 553.562C161.914 553.922 161.402 554.102 160.77 554.102ZM162.598 568H158.895V556H162.598V568ZM172.969 567.859C172.422 568.148 171.598 568.293 170.496 568.293C167.887 568.293 166.582 566.938 166.582 564.227V558.73H164.637V556H166.582V553.41L170.273 552.355V556H172.969V558.73H170.273V563.582C170.273 564.832 170.77 565.457 171.762 565.457C172.152 565.457 172.555 565.344 172.969 565.117V567.859ZM186.586 568H182.895V561.18C182.895 559.422 182.254 558.543 180.973 558.543C180.316 558.543 179.785 558.789 179.379 559.281C178.973 559.773 178.77 560.398 178.77 561.156V568H175.066V550.234H178.77V557.781H178.816C179.723 556.398 180.953 555.707 182.508 555.707C185.227 555.707 186.586 557.348 186.586 560.629V568ZM207.562 568H203.871V566.172H203.812C202.898 567.586 201.676 568.293 200.145 568.293C197.363 568.293 195.973 566.609 195.973 563.242V556H199.664V562.914C199.664 564.609 200.336 565.457 201.68 565.457C202.344 565.457 202.875 565.227 203.273 564.766C203.672 564.297 203.871 563.664 203.871 562.867V556H207.562V568ZM209.906 567.684V564.684C210.516 565.051 211.121 565.324 211.723 565.504C212.332 565.684 212.906 565.773 213.445 565.773C214.102 565.773 214.617 565.684 214.992 565.504C215.375 565.324 215.566 565.051 215.566 564.684C215.566 564.449 215.48 564.254 215.309 564.098C215.137 563.941 214.914 563.805 214.641 563.688C214.375 563.57 214.082 563.465 213.762 563.371C213.441 563.277 213.133 563.172 212.836 563.055C212.359 562.875 211.938 562.684 211.57 562.48C211.211 562.27 210.906 562.027 210.656 561.754C210.414 561.48 210.227 561.164 210.094 560.805C209.969 560.445 209.906 560.02 209.906 559.527C209.906 558.855 210.051 558.277 210.34 557.793C210.637 557.309 211.027 556.914 211.512 556.609C212.004 556.297 212.562 556.07 213.188 555.93C213.82 555.781 214.477 555.707 215.156 555.707C215.688 555.707 216.227 555.75 216.773 555.836C217.32 555.914 217.859 556.031 218.391 556.188V559.047C217.922 558.773 217.418 558.57 216.879 558.438C216.348 558.297 215.824 558.227 215.309 558.227C215.066 558.227 214.836 558.25 214.617 558.297C214.406 558.336 214.219 558.398 214.055 558.484C213.891 558.562 213.762 558.668 213.668 558.801C213.574 558.926 213.527 559.07 213.527 559.234C213.527 559.453 213.598 559.641 213.738 559.797C213.879 559.953 214.062 560.09 214.289 560.207C214.516 560.316 214.766 560.418 215.039 560.512C215.32 560.598 215.598 560.688 215.871 560.781C216.363 560.953 216.809 561.141 217.207 561.344C217.605 561.547 217.945 561.785 218.227 562.059C218.516 562.332 218.734 562.652 218.883 563.02C219.039 563.387 219.117 563.824 219.117 564.332C219.117 565.043 218.961 565.652 218.648 566.16C218.344 566.66 217.934 567.07 217.418 567.391C216.91 567.703 216.32 567.93 215.648 568.07C214.984 568.219 214.293 568.293 213.574 568.293C212.254 568.293 211.031 568.09 209.906 567.684Z" fill="white"/>
<path d="M79.9688 292.402C78.7422 292.996 77.1406 293.293 75.1641 293.293C72.5859 293.293 70.5586 292.535 69.082 291.02C67.6055 289.504 66.8672 287.484 66.8672 284.961C66.8672 282.273 67.6953 280.094 69.3516 278.422C71.0156 276.75 73.1719 275.914 75.8203 275.914C77.4609 275.914 78.8438 276.121 79.9688 276.535V280.18C78.8438 279.508 77.5625 279.172 76.125 279.172C74.5469 279.172 73.2734 279.668 72.3047 280.66C71.3359 281.652 70.8516 282.996 70.8516 284.691C70.8516 286.316 71.3086 287.613 72.2227 288.582C73.1367 289.543 74.3672 290.023 75.9141 290.023C77.3906 290.023 78.7422 289.664 79.9688 288.945V292.402ZM88.2539 293.293C86.2539 293.293 84.6797 292.734 83.5312 291.617C82.3906 290.492 81.8203 288.969 81.8203 287.047C81.8203 285.062 82.4141 283.512 83.6016 282.395C84.7891 281.27 86.3945 280.707 88.418 280.707C90.4102 280.707 91.9727 281.27 93.1055 282.395C94.2383 283.512 94.8047 284.992 94.8047 286.836C94.8047 288.828 94.2188 290.402 93.0469 291.559C91.8828 292.715 90.2852 293.293 88.2539 293.293ZM88.3477 283.543C87.4727 283.543 86.793 283.844 86.3086 284.445C85.8242 285.047 85.582 285.898 85.582 287C85.582 289.305 86.5117 290.457 88.3711 290.457C90.1445 290.457 91.0312 289.273 91.0312 286.906C91.0312 284.664 90.1367 283.543 88.3477 283.543ZM108.797 293H105.105V286.332C105.105 284.473 104.441 283.543 103.113 283.543C102.473 283.543 101.945 283.789 101.531 284.281C101.117 284.773 100.91 285.398 100.91 286.156V293H97.207V281H100.91V282.898H100.957C101.84 281.438 103.125 280.707 104.812 280.707C107.469 280.707 108.797 282.355 108.797 285.652V293ZM118.992 292.859C118.445 293.148 117.621 293.293 116.52 293.293C113.91 293.293 112.605 291.938 112.605 289.227V283.73H110.66V281H112.605V278.41L116.297 277.355V281H118.992V283.73H116.297V288.582C116.297 289.832 116.793 290.457 117.785 290.457C118.176 290.457 118.578 290.344 118.992 290.117V292.859ZM128.918 284.34C128.473 284.098 127.953 283.977 127.359 283.977C126.555 283.977 125.926 284.273 125.473 284.867C125.02 285.453 124.793 286.254 124.793 287.27V293H121.09V281H124.793V283.227H124.84C125.426 281.602 126.48 280.789 128.004 280.789C128.395 280.789 128.699 280.836 128.918 280.93V284.34ZM132.621 279.102C131.996 279.102 131.484 278.918 131.086 278.551C130.688 278.176 130.488 277.719 130.488 277.18C130.488 276.625 130.688 276.172 131.086 275.82C131.484 275.469 131.996 275.293 132.621 275.293C133.254 275.293 133.766 275.469 134.156 275.82C134.555 276.172 134.754 276.625 134.754 277.18C134.754 277.742 134.555 278.203 134.156 278.562C133.766 278.922 133.254 279.102 132.621 279.102ZM134.449 293H130.746V281H134.449V293ZM141.316 291.605H141.27V293H137.566V275.234H141.27V282.805H141.316C142.23 281.406 143.531 280.707 145.219 280.707C146.766 280.707 147.957 281.238 148.793 282.301C149.629 283.363 150.047 284.816 150.047 286.66C150.047 288.66 149.559 290.266 148.582 291.477C147.605 292.688 146.301 293.293 144.668 293.293C143.191 293.293 142.074 292.73 141.316 291.605ZM141.211 286.543V287.773C141.211 288.547 141.434 289.188 141.879 289.695C142.324 290.203 142.895 290.457 143.59 290.457C144.434 290.457 145.086 290.133 145.547 289.484C146.016 288.828 146.25 287.902 146.25 286.707C146.25 285.715 146.035 284.941 145.605 284.387C145.184 283.824 144.578 283.543 143.789 283.543C143.047 283.543 142.43 283.82 141.938 284.375C141.453 284.93 141.211 285.652 141.211 286.543ZM163.852 293H160.16V291.172H160.102C159.188 292.586 157.965 293.293 156.434 293.293C153.652 293.293 152.262 291.609 152.262 288.242V281H155.953V287.914C155.953 289.609 156.625 290.457 157.969 290.457C158.633 290.457 159.164 290.227 159.562 289.766C159.961 289.297 160.16 288.664 160.16 287.867V281H163.852V293ZM174.234 292.859C173.688 293.148 172.863 293.293 171.762 293.293C169.152 293.293 167.848 291.938 167.848 289.227V283.73H165.902V281H167.848V278.41L171.539 277.355V281H174.234V283.73H171.539V288.582C171.539 289.832 172.035 290.457 173.027 290.457C173.418 290.457 173.82 290.344 174.234 290.117V292.859ZM187.02 288.055H179.191C179.316 289.797 180.414 290.668 182.484 290.668C183.805 290.668 184.965 290.355 185.965 289.73V292.402C184.855 292.996 183.414 293.293 181.641 293.293C179.703 293.293 178.199 292.758 177.129 291.688C176.059 290.609 175.523 289.109 175.523 287.188C175.523 285.195 176.102 283.617 177.258 282.453C178.414 281.289 179.836 280.707 181.523 280.707C183.273 280.707 184.625 281.227 185.578 282.266C186.539 283.305 187.02 284.715 187.02 286.496V288.055ZM183.586 285.781C183.586 284.062 182.891 283.203 181.5 283.203C180.906 283.203 180.391 283.449 179.953 283.941C179.523 284.434 179.262 285.047 179.168 285.781H183.586ZM77.6367 311.277H71.707V315.402H77.1562V318.473H71.707V325H67.9219V308.195H77.6367V311.277ZM81.9258 311.102C81.3008 311.102 80.7891 310.918 80.3906 310.551C79.9922 310.176 79.793 309.719 79.793 309.18C79.793 308.625 79.9922 308.172 80.3906 307.82C80.7891 307.469 81.3008 307.293 81.9258 307.293C82.5586 307.293 83.0703 307.469 83.4609 307.82C83.8594 308.172 84.0586 308.625 84.0586 309.18C84.0586 309.742 83.8594 310.203 83.4609 310.562C83.0703 310.922 82.5586 311.102 81.9258 311.102ZM83.7539 325H80.0508V313H83.7539V325ZM98.4609 325H94.7695V318.332C94.7695 316.473 94.1055 315.543 92.7773 315.543C92.1367 315.543 91.6094 315.789 91.1953 316.281C90.7812 316.773 90.5742 317.398 90.5742 318.156V325H86.8711V313H90.5742V314.898H90.6211C91.5039 313.438 92.7891 312.707 94.4766 312.707C97.1328 312.707 98.4609 314.355 98.4609 317.652V325ZM111.387 325H107.883V323.277H107.836C107.031 324.621 105.84 325.293 104.262 325.293C103.098 325.293 102.18 324.965 101.508 324.309C100.844 323.645 100.512 322.762 100.512 321.66C100.512 319.332 101.891 317.988 104.648 317.629L107.906 317.195C107.906 315.883 107.195 315.227 105.773 315.227C104.344 315.227 102.984 315.652 101.695 316.504V313.715C102.211 313.449 102.914 313.215 103.805 313.012C104.703 312.809 105.52 312.707 106.254 312.707C109.676 312.707 111.387 314.414 111.387 317.828V325ZM107.906 320.125V319.316L105.727 319.598C104.523 319.754 103.922 320.297 103.922 321.227C103.922 321.648 104.066 321.996 104.355 322.27C104.652 322.535 105.051 322.668 105.551 322.668C106.246 322.668 106.812 322.43 107.25 321.953C107.688 321.469 107.906 320.859 107.906 320.125ZM125.906 325H122.215V318.332C122.215 316.473 121.551 315.543 120.223 315.543C119.582 315.543 119.055 315.789 118.641 316.281C118.227 316.773 118.02 317.398 118.02 318.156V325H114.316V313H118.02V314.898H118.066C118.949 313.438 120.234 312.707 121.922 312.707C124.578 312.707 125.906 314.355 125.906 317.652V325ZM137.941 324.566C137.105 325.051 135.898 325.293 134.32 325.293C132.477 325.293 130.984 324.734 129.844 323.617C128.703 322.5 128.133 321.059 128.133 319.293C128.133 317.254 128.742 315.648 129.961 314.477C131.188 313.297 132.824 312.707 134.871 312.707C136.285 312.707 137.309 312.895 137.941 313.27V316.41C137.168 315.832 136.305 315.543 135.352 315.543C134.289 315.543 133.445 315.855 132.82 316.48C132.203 317.098 131.895 317.953 131.895 319.047C131.895 320.109 132.191 320.945 132.785 321.555C133.379 322.156 134.195 322.457 135.234 322.457C136.156 322.457 137.059 322.168 137.941 321.59V324.566ZM142.254 311.102C141.629 311.102 141.117 310.918 140.719 310.551C140.32 310.176 140.121 309.719 140.121 309.18C140.121 308.625 140.32 308.172 140.719 307.82C141.117 307.469 141.629 307.293 142.254 307.293C142.887 307.293 143.398 307.469 143.789 307.82C144.188 308.172 144.387 308.625 144.387 309.18C144.387 309.742 144.188 310.203 143.789 310.562C143.398 310.922 142.887 311.102 142.254 311.102ZM144.082 325H140.379V313H144.082V325ZM157.184 325H153.68V323.277H153.633C152.828 324.621 151.637 325.293 150.059 325.293C148.895 325.293 147.977 324.965 147.305 324.309C146.641 323.645 146.309 322.762 146.309 321.66C146.309 319.332 147.688 317.988 150.445 317.629L153.703 317.195C153.703 315.883 152.992 315.227 151.57 315.227C150.141 315.227 148.781 315.652 147.492 316.504V313.715C148.008 313.449 148.711 313.215 149.602 313.012C150.5 312.809 151.316 312.707 152.051 312.707C155.473 312.707 157.184 314.414 157.184 317.828V325ZM153.703 320.125V319.316L151.523 319.598C150.32 319.754 149.719 320.297 149.719 321.227C149.719 321.648 149.863 321.996 150.152 322.27C150.449 322.535 150.848 322.668 151.348 322.668C152.043 322.668 152.609 322.43 153.047 321.953C153.484 321.469 153.703 320.859 153.703 320.125ZM163.816 325H160.113V307.234H163.816V325ZM170.637 325H166.934V307.234H170.637V325ZM185.18 313L180.305 325.961C179.133 329.078 177.367 330.637 175.008 330.637C174.109 330.637 173.371 330.535 172.793 330.332V327.379C173.285 327.668 173.82 327.812 174.398 327.812C175.352 327.812 176.016 327.363 176.391 326.465L177.023 324.977L172.148 313H176.25L178.488 320.301C178.629 320.754 178.738 321.289 178.816 321.906H178.863C178.934 321.453 179.062 320.926 179.25 320.324L181.512 313H185.18Z" fill="white"/>
<path d="M322.664 668.195L318.223 685H314.027L311.238 674.219C311.09 673.656 311 673.027 310.969 672.332H310.922C310.852 673.098 310.75 673.727 310.617 674.219L307.758 685H303.387L298.969 668.195H303.105L305.473 679.387C305.574 679.863 305.648 680.504 305.695 681.309H305.766C305.797 680.707 305.91 680.051 306.105 679.34L309.152 668.195H313.207L315.961 679.48C316.062 679.895 316.152 680.496 316.23 681.285H316.277C316.309 680.668 316.391 680.043 316.523 679.41L318.844 668.195H322.664ZM332.262 676.34C331.816 676.098 331.297 675.977 330.703 675.977C329.898 675.977 329.27 676.273 328.816 676.867C328.363 677.453 328.137 678.254 328.137 679.27V685H324.434V673H328.137V675.227H328.184C328.77 673.602 329.824 672.789 331.348 672.789C331.738 672.789 332.043 672.836 332.262 672.93V676.34ZM335.965 671.102C335.34 671.102 334.828 670.918 334.43 670.551C334.031 670.176 333.832 669.719 333.832 669.18C333.832 668.625 334.031 668.172 334.43 667.82C334.828 667.469 335.34 667.293 335.965 667.293C336.598 667.293 337.109 667.469 337.5 667.82C337.898 668.172 338.098 668.625 338.098 669.18C338.098 669.742 337.898 670.203 337.5 670.562C337.109 670.922 336.598 671.102 335.965 671.102ZM337.793 685H334.09V673H337.793V685ZM348.164 684.859C347.617 685.148 346.793 685.293 345.691 685.293C343.082 685.293 341.777 683.938 341.777 681.227V675.73H339.832V673H341.777V670.41L345.469 669.355V673H348.164V675.73H345.469V680.582C345.469 681.832 345.965 682.457 346.957 682.457C347.348 682.457 347.75 682.344 348.164 682.117V684.859ZM360.949 680.055H353.121C353.246 681.797 354.344 682.668 356.414 682.668C357.734 682.668 358.895 682.355 359.895 681.73V684.402C358.785 684.996 357.344 685.293 355.57 685.293C353.633 685.293 352.129 684.758 351.059 683.688C349.988 682.609 349.453 681.109 349.453 679.188C349.453 677.195 350.031 675.617 351.188 674.453C352.344 673.289 353.766 672.707 355.453 672.707C357.203 672.707 358.555 673.227 359.508 674.266C360.469 675.305 360.949 676.715 360.949 678.496V680.055ZM357.516 677.781C357.516 676.062 356.82 675.203 355.43 675.203C354.836 675.203 354.32 675.449 353.883 675.941C353.453 676.434 353.191 677.047 353.098 677.781H357.516ZM377.613 670.07C377.137 669.883 376.68 669.789 376.242 669.789C375.055 669.789 374.461 670.434 374.461 671.723V673H377.203V675.73H374.461V685H370.77V675.73H368.754V673H370.77V671.512C370.77 670.145 371.215 669.043 372.105 668.207C372.996 667.371 374.207 666.953 375.738 666.953C376.488 666.953 377.113 667.031 377.613 667.188V670.07ZM384.715 685.293C382.715 685.293 381.141 684.734 379.992 683.617C378.852 682.492 378.281 680.969 378.281 679.047C378.281 677.062 378.875 675.512 380.062 674.395C381.25 673.27 382.855 672.707 384.879 672.707C386.871 672.707 388.434 673.27 389.566 674.395C390.699 675.512 391.266 676.992 391.266 678.836C391.266 680.828 390.68 682.402 389.508 683.559C388.344 684.715 386.746 685.293 384.715 685.293ZM384.809 675.543C383.934 675.543 383.254 675.844 382.77 676.445C382.285 677.047 382.043 677.898 382.043 679C382.043 681.305 382.973 682.457 384.832 682.457C386.605 682.457 387.492 681.273 387.492 678.906C387.492 676.664 386.598 675.543 384.809 675.543ZM401.496 676.34C401.051 676.098 400.531 675.977 399.938 675.977C399.133 675.977 398.504 676.273 398.051 676.867C397.598 677.453 397.371 678.254 397.371 679.27V685H393.668V673H397.371V675.227H397.418C398.004 673.602 399.059 672.789 400.582 672.789C400.973 672.789 401.277 672.836 401.496 672.93V676.34ZM423.926 677.723C423.926 682.77 421.574 685.293 416.871 685.293C412.309 685.293 410.027 682.828 410.027 677.898V668.195H413.824V677.945C413.824 680.664 414.887 682.023 417.012 682.023C419.098 682.023 420.141 680.711 420.141 678.086V668.195H423.926V677.723ZM426.445 684.684V681.684C427.055 682.051 427.66 682.324 428.262 682.504C428.871 682.684 429.445 682.773 429.984 682.773C430.641 682.773 431.156 682.684 431.531 682.504C431.914 682.324 432.105 682.051 432.105 681.684C432.105 681.449 432.02 681.254 431.848 681.098C431.676 680.941 431.453 680.805 431.18 680.688C430.914 680.57 430.621 680.465 430.301 680.371C429.98 680.277 429.672 680.172 429.375 680.055C428.898 679.875 428.477 679.684 428.109 679.48C427.75 679.27 427.445 679.027 427.195 678.754C426.953 678.48 426.766 678.164 426.633 677.805C426.508 677.445 426.445 677.02 426.445 676.527C426.445 675.855 426.59 675.277 426.879 674.793C427.176 674.309 427.566 673.914 428.051 673.609C428.543 673.297 429.102 673.07 429.727 672.93C430.359 672.781 431.016 672.707 431.695 672.707C432.227 672.707 432.766 672.75 433.312 672.836C433.859 672.914 434.398 673.031 434.93 673.188V676.047C434.461 675.773 433.957 675.57 433.418 675.438C432.887 675.297 432.363 675.227 431.848 675.227C431.605 675.227 431.375 675.25 431.156 675.297C430.945 675.336 430.758 675.398 430.594 675.484C430.43 675.562 430.301 675.668 430.207 675.801C430.113 675.926 430.066 676.07 430.066 676.234C430.066 676.453 430.137 676.641 430.277 676.797C430.418 676.953 430.602 677.09 430.828 677.207C431.055 677.316 431.305 677.418 431.578 677.512C431.859 677.598 432.137 677.688 432.41 677.781C432.902 677.953 433.348 678.141 433.746 678.344C434.145 678.547 434.484 678.785 434.766 679.059C435.055 679.332 435.273 679.652 435.422 680.02C435.578 680.387 435.656 680.824 435.656 681.332C435.656 682.043 435.5 682.652 435.188 683.16C434.883 683.66 434.473 684.07 433.957 684.391C433.449 684.703 432.859 684.93 432.188 685.07C431.523 685.219 430.832 685.293 430.113 685.293C428.793 685.293 427.57 685.09 426.445 684.684Z" fill="white"/>
</svg>
