<svg width="56" height="56" viewBox="0 0 56 56" fill="none" xmlns="http://www.w3.org/2000/svg">
<path d="M31.2348 21.4379C31.235 21.561 31.2107 21.683 31.1635 21.7967C31.1163 21.9104 31.0471 22.0136 30.9598 22.1004L26.1648 26.8961C26.0197 27.0411 25.9045 27.2134 25.826 27.403C25.7474 27.5926 25.707 27.7958 25.707 28.001C25.707 28.2063 25.7474 28.4095 25.826 28.5991C25.9045 28.7887 26.0197 28.961 26.1648 29.1061L30.9535 33.8942C31.0431 33.9807 31.1145 34.0841 31.1636 34.1985C31.2128 34.3129 31.2386 34.4359 31.2397 34.5604C31.2408 34.6848 31.2171 34.8083 31.1699 34.9235C31.1228 35.0387 31.0532 35.1434 30.9652 35.2314C30.8771 35.3194 30.7725 35.3891 30.6572 35.4362C30.542 35.4833 30.4186 35.5071 30.2941 35.506C30.1696 35.5049 30.0466 35.479 29.9322 35.4299C29.8178 35.3808 29.7144 35.3093 29.6279 35.2198L24.8392 30.4317C24.1953 29.7866 23.8337 28.9125 23.8337 28.001C23.8337 27.0896 24.1953 26.2155 24.8392 25.5704L29.6342 20.7748C29.7653 20.6436 29.9324 20.5542 30.1143 20.518C30.2962 20.4818 30.4848 20.5004 30.6561 20.5714C30.8275 20.6424 30.9739 20.7626 31.0769 20.9169C31.1799 21.0711 31.2349 21.2524 31.2348 21.4379Z" fill="#A15236"/>
<rect x="0.5" y="0.5" width="55" height="55" rx="27.5" stroke="#A15236"/>
</svg>
