<svg width="56" height="56" viewBox="0 0 56 56" fill="none" xmlns="http://www.w3.org/2000/svg">
<path d="M24.7652 21.4379C24.765 21.561 24.7893 21.683 24.8365 21.7967C24.8837 21.9104 24.9529 22.0136 25.0402 22.1004L29.8352 26.8961C29.9803 27.0411 30.0955 27.2134 30.174 27.403C30.2526 27.5926 30.293 27.7958 30.293 28.001C30.293 28.2063 30.2526 28.4095 30.174 28.5991C30.0955 28.7887 29.9803 28.961 29.8352 29.1061L25.0465 33.8942C24.9569 33.9807 24.8855 34.0841 24.8364 34.1985C24.7872 34.3129 24.7614 34.4359 24.7603 34.5604C24.7592 34.6848 24.7829 34.8083 24.8301 34.9235C24.8772 35.0387 24.9468 35.1434 25.0348 35.2314C25.1229 35.3194 25.2275 35.3891 25.3428 35.4362C25.458 35.4833 25.5814 35.5071 25.7059 35.506C25.8304 35.5049 25.9534 35.479 26.0678 35.4299C26.1822 35.3808 26.2856 35.3093 26.3721 35.2198L31.1608 30.4317C31.8047 29.7866 32.1663 28.9125 32.1663 28.001C32.1663 27.0896 31.8047 26.2155 31.1608 25.5704L26.3658 20.7748C26.2347 20.6436 26.0676 20.5542 25.8857 20.518C25.7038 20.4818 25.5152 20.5004 25.3439 20.5714C25.1725 20.6424 25.0261 20.7626 24.9231 20.9169C24.8201 21.0711 24.7651 21.2524 24.7652 21.4379Z" fill="#A15236"/>
<rect x="0.5" y="0.5" width="55" height="55" rx="27.5" stroke="#A15236"/>
</svg>
