<svg width="24" height="25" viewBox="0 0 24 25" fill="none" xmlns="http://www.w3.org/2000/svg">
<g clip-path="url(#clip0_244_1032)">
<path d="M17 4.36919C17 4.23659 16.9473 4.10941 16.8535 4.01564C16.7598 3.92187 16.6326 3.86919 16.5 3.86919H14C12.7411 3.80648 11.5086 4.24459 10.5717 5.08777C9.63482 5.93096 9.06976 7.11069 8.99998 8.36919V11.0692H6.49998C6.36737 11.0692 6.24019 11.1219 6.14642 11.2156C6.05266 11.3094 5.99998 11.4366 5.99998 11.5692V14.1692C5.99998 14.3018 6.05266 14.429 6.14642 14.5227C6.24019 14.6165 6.36737 14.6692 6.49998 14.6692H8.99998V21.3692C8.99998 21.5018 9.05265 21.629 9.14642 21.7227C9.24019 21.8165 9.36737 21.8692 9.49998 21.8692H12.5C12.6326 21.8692 12.7598 21.8165 12.8535 21.7227C12.9473 21.629 13 21.5018 13 21.3692V14.6692H15.62C15.7312 14.6708 15.8397 14.6353 15.9285 14.5683C16.0172 14.5013 16.0811 14.4066 16.11 14.2992L16.83 11.6992C16.8499 11.6253 16.8525 11.5479 16.8378 11.4728C16.823 11.3977 16.7913 11.327 16.7449 11.2662C16.6985 11.2053 16.6388 11.1559 16.5703 11.1218C16.5019 11.0876 16.4265 11.0696 16.35 11.0692H13V8.36919C13.0249 8.12167 13.1411 7.89231 13.326 7.72589C13.5109 7.55947 13.7512 7.46795 14 7.46919H16.5C16.6326 7.46919 16.7598 7.41652 16.8535 7.32275C16.9473 7.22898 17 7.1018 17 6.96919V4.36919Z" fill="white"/>
</g>
<defs>
<clipPath id="clip0_244_1032">
<rect width="24" height="24" fill="white" transform="translate(0 0.869141)"/>
</clipPath>
</defs>
</svg>
