<svg width="18" height="18" viewBox="0 0 18 18" fill="none" xmlns="http://www.w3.org/2000/svg">
<path fill-rule="evenodd" clip-rule="evenodd" d="M9 0C6.55575 0 6.249 0.0105 5.289 0.054C3.89775 0.11775 2.51625 0.50475 1.5105 1.5105C0.501 2.52 0.11775 3.8985 0.054 5.289C0.0105 6.249 0 6.55575 0 9C0 11.4443 0.0105 11.751 0.054 12.711C0.11775 14.1007 0.50625 15.486 1.5105 16.4895C2.51925 17.4983 3.9 17.8822 5.289 17.946C6.249 17.9895 6.55575 18 9 18C11.4443 18 11.751 17.9895 12.711 17.946C14.1015 17.8822 15.4845 17.4945 16.4895 16.4895C17.4998 15.4792 17.8822 14.1015 17.946 12.711C17.9895 11.751 18 11.4443 18 9C18 6.55575 17.9895 6.249 17.946 5.289C17.8822 3.89775 17.4945 2.5155 16.4895 1.5105C15.4823 0.50325 14.0977 0.117 12.711 0.054C11.751 0.0105 11.4443 0 9 0ZM13.8045 5.27551C14.401 5.27551 14.8845 4.79197 14.8845 4.19551C14.8845 3.59904 14.401 3.11551 13.8045 3.11551C13.208 3.11551 12.7245 3.59904 12.7245 4.19551C12.7245 4.79197 13.208 5.27551 13.8045 5.27551ZM9.00001 4.3785C6.44776 4.3785 4.37851 6.44775 4.37851 9C4.37851 11.5522 6.44776 13.6215 9.00001 13.6215C11.5523 13.6215 13.6215 11.5522 13.6215 9C13.6215 6.44775 11.5523 4.3785 9.00001 4.3785ZM9.00001 12C7.34326 12 6.00001 10.6567 6.00001 9C6.00001 7.34325 7.34326 6 9.00001 6C10.6568 6 12 7.34325 12 9C12 10.6567 10.6568 12 9.00001 12Z" fill="#ffffff"/>
</svg>
