<svg width="61" height="60" viewBox="0 0 61 60" fill="none" xmlns="http://www.w3.org/2000/svg">
<rect x="1" y="0.5" width="59" height="59" rx="15.5" fill="white"/>
<g clip-path="url(#clip0_535_1092)">
<path d="M30.5 46C39.3366 46 46.5 38.8366 46.5 30C46.5 21.1634 39.3366 14 30.5 14C21.6634 14 14.5 21.1634 14.5 30C14.5 38.8366 21.6634 46 30.5 46Z" fill="#03A9F4"/>
<path d="M40.8642 23.5726C40.0846 23.9131 39.26 24.1393 38.4158 24.2442C39.3057 23.7165 39.9709 22.8805 40.2852 21.8947C39.4523 22.3891 38.5409 22.7373 37.5905 22.9242C37.0081 22.3014 36.2518 21.8682 35.4199 21.681C34.5879 21.4939 33.719 21.5614 32.9259 21.8748C32.1329 22.1882 31.4525 22.7329 30.9733 23.4383C30.4941 24.1436 30.2382 24.9768 30.2389 25.8295C30.2359 26.1549 30.2691 26.4797 30.3379 26.7979C28.6473 26.7149 26.9932 26.2761 25.4838 25.5103C23.9743 24.7445 22.6434 23.6689 21.5779 22.3537C21.0302 23.2893 20.8605 24.3987 21.1035 25.4552C21.3465 26.5118 21.9839 27.4356 22.8852 28.0379C22.2125 28.0198 21.5539 27.84 20.9652 27.5137V27.56C20.9671 28.5407 21.3066 29.4908 21.9265 30.2507C22.5465 31.0106 23.4091 31.5339 24.3695 31.7326C24.006 31.8281 23.6315 31.8748 23.2558 31.8716C22.9852 31.8766 22.7149 31.8526 22.4495 31.8C22.7246 32.6434 23.2543 33.3809 23.9657 33.9109C24.6771 34.441 25.5352 34.7376 26.4221 34.76C24.9192 35.9347 23.0665 36.5728 21.1589 36.5726C20.8191 36.5755 20.4794 36.5558 20.1421 36.5137C22.0871 37.7677 24.3542 38.4303 26.6684 38.4211C34.4895 38.4211 38.7652 31.9432 38.7652 26.3284C38.7652 26.1411 38.7652 25.96 38.7505 25.7789C39.5832 25.178 40.2995 24.4303 40.8642 23.5726Z" fill="white"/>
</g>
<rect x="1" y="0.5" width="59" height="59" rx="15.5" stroke="#EEEFF2"/>
<defs>
<clipPath id="clip0_535_1092">
<rect width="32" height="32" fill="white" transform="translate(14.5 14)"/>
</clipPath>
</defs>
</svg>
