<svg width="24" height="25" viewBox="0 0 24 25" fill="none" xmlns="http://www.w3.org/2000/svg">
<g id="twitter" clip-path="url(#clip0_818_477)">
<g id="Layer 2">
<g id="twitter_2">
<path id="Vector" d="M8.08 20.8694C9.5587 20.9189 11.0323 20.6715 12.4137 20.1417C13.7952 19.612 15.0564 18.8107 16.1229 17.7852C17.1894 16.7598 18.0395 15.5309 18.623 14.1713C19.2065 12.8117 19.5115 11.3489 19.52 9.86943C20.1977 9.03084 20.7008 8.06526 21 7.02943C21.0223 6.94759 21.0205 6.86104 20.9948 6.7802C20.9691 6.69936 20.9206 6.62768 20.855 6.57379C20.7895 6.5199 20.7098 6.4861 20.6256 6.47646C20.5413 6.46681 20.456 6.48173 20.38 6.51943C20.0255 6.69008 19.6264 6.74521 19.2389 6.67703C18.8513 6.60886 18.495 6.42083 18.22 6.13943C17.869 5.75501 17.4443 5.44496 16.9712 5.22766C16.4982 5.01035 15.9863 4.89022 15.466 4.87436C14.9456 4.85851 14.4274 4.94726 13.9419 5.13537C13.4565 5.32347 13.0138 5.60709 12.64 5.96943C12.1282 6.46509 11.7533 7.08472 11.5518 7.7681C11.3503 8.45149 11.329 9.17538 11.49 9.86943C8.14 10.0694 5.84 8.47943 4 6.29943C3.94473 6.23683 3.87242 6.19168 3.79191 6.1695C3.7114 6.14731 3.62617 6.14906 3.54663 6.17451C3.46709 6.19996 3.39669 6.24802 3.34401 6.31283C3.29134 6.37763 3.25867 6.45637 3.25001 6.53943C2.89947 8.48385 3.15233 10.489 3.97462 12.2855C4.79691 14.082 6.14925 15.5839 7.85 16.5894C6.70964 17.8973 5.10821 18.7141 3.38001 18.8694C3.28742 18.8848 3.20195 18.9287 3.13556 18.995C3.06917 19.0614 3.02518 19.1468 3.00975 19.2394C2.99432 19.332 3.00822 19.427 3.04951 19.5113C3.0908 19.5956 3.1574 19.6649 3.24001 19.7094C4.74353 20.4608 6.39924 20.8576 8.08 20.8694Z" fill="white"/>
</g>
</g>
</g>
<defs>
<clipPath id="clip0_818_477">
<rect width="24" height="24" fill="white" transform="translate(0 0.869141)"/>
</clipPath>
</defs>
</svg>
