<svg width="24" height="25" viewBox="0 0 24 25" fill="none" xmlns="http://www.w3.org/2000/svg">
<g id="youtube-logo-fill" clip-path="url(#clip0_818_488)">
<path id="Vector" d="M21.9685 7.41274C21.8796 7.06779 21.7099 6.74893 21.4734 6.48248C21.237 6.21602 20.9406 6.00962 20.6087 5.88029C17.3959 4.6457 12.2793 4.656 12 4.65746C11.7208 4.65522 6.60421 4.64565 3.3914 5.88029C3.05949 6.00961 2.76308 6.21601 2.52664 6.48244C2.29021 6.74888 2.12051 7.06772 2.03157 7.41265C1.78904 8.34365 1.50001 10.046 1.50001 12.8692C1.50001 15.6924 1.78904 17.3948 2.03152 18.3257C2.12045 18.6707 2.29014 18.9895 2.52658 19.256C2.76302 19.5225 3.05943 19.7289 3.39135 19.8582C6.46693 21.0401 11.2871 21.0812 11.9383 21.0812C11.9964 21.0812 12.0036 21.0812 12.0618 21.0812C12.7134 21.0812 17.5332 21.04 20.6086 19.8582C20.9405 19.7289 21.2369 19.5225 21.4734 19.256C21.7098 18.9896 21.8795 18.6708 21.9685 18.3258C22.211 17.3948 22.5 15.6925 22.5 12.8692C22.5 10.0461 22.211 8.3437 21.9685 7.41274ZM15.208 13.1813L10.708 16.1813C10.6515 16.2189 10.5859 16.2405 10.5181 16.2438C10.4503 16.2471 10.3829 16.2319 10.3231 16.1999C10.2632 16.1679 10.2132 16.1202 10.1783 16.062C10.1434 16.0037 10.125 15.9371 10.125 15.8692V9.86924C10.125 9.80136 10.1434 9.73475 10.1783 9.67652C10.2132 9.61829 10.2632 9.57062 10.3231 9.53859C10.3829 9.50656 10.4503 9.49138 10.5181 9.49466C10.5859 9.49794 10.6515 9.51957 10.708 9.55723L15.208 12.5572C15.2594 12.5915 15.3015 12.6379 15.3306 12.6923C15.3598 12.7467 15.375 12.8075 15.375 12.8692C15.375 12.931 15.3598 12.9918 15.3306 13.0462C15.3015 13.1006 15.2594 13.147 15.208 13.1813Z" fill="white"/>
</g>
<defs>
<clipPath id="clip0_818_488">
<rect width="24" height="24" fill="white" transform="translate(0 0.869141)"/>
</clipPath>
</defs>
</svg>
